<svg width="174" height="174" viewBox="0 0 174 174" fill="none" xmlns="http://www.w3.org/2000/svg">
<path d="M174 87C174 135.049 135.049 174 87 174C38.9512 174 0 135.049 0 87C0 38.9512 38.9512 0 87 0C135.049 0 174 38.9512 174 87ZM34.8 87C34.8 115.829 58.1707 139.2 87 139.2C115.829 139.2 139.2 115.829 139.2 87C139.2 58.1707 115.829 34.8 87 34.8C58.1707 34.8 34.8 58.1707 34.8 87Z" fill="#76746F" fill-opacity="0.4"/>
<path d="M174 87C174 135.049 135.049 174 87 174C38.9512 174 0 135.049 0 87C0 38.9512 38.9512 0 87 0C135.049 0 174 38.9512 174 87ZM34.8 87C34.8 115.829 58.1707 139.2 87 139.2C115.829 139.2 139.2 115.829 139.2 87C139.2 58.1707 115.829 34.8 87 34.8C58.1707 34.8 34.8 58.1707 34.8 87Z" fill="#EF7D4F"/>
</svg>
