<svg width="360" height="79" viewBox="0 0 360 79" fill="none" xmlns="http://www.w3.org/2000/svg">
<g clip-path="url(#clip0_3319_9217)">
<path d="M314.186 63.9897C301.377 63.9897 291 53.8524 291 41.3623C291 28.8722 301.387 18.7349 314.186 18.7349C381.144 18.7349 435.618 -34.4273 435.618 -99.7625C435.618 -171.788 383.023 -213.554 314.196 -213.554C301.482 -213.554 291 -225.478 291 -235.256C291 -247.826 302.912 -259 314.196 -259C408.772 -259 482 -190.057 482 -99.7625C482 -9.4676 406.719 64 314.196 64L314.186 63.9897Z" fill="#EF7D4F"/>
<path d="M81 40.5461C81 27.5569 91.47 17.0414 104.459 17.0947C170.477 17.3658 353.314 18.1498 357 18.5326C359.93 18.837 346.322 38.0268 336.472 51.376C330.563 59.385 321.164 64 311.211 64H104.454C91.5007 64 81 53.4993 81 40.5461V40.5461Z" fill="#EF7D4F"/>
<path d="M23.3266 51.4012C23.3266 52.5163 24.2042 53.4196 25.2855 53.4196C26.3668 53.4196 27.2444 52.5154 27.2444 51.4012C27.2444 45.5723 31.8468 40.8302 37.503 40.8302C43.7384 40.8302 47.3542 45.4088 47.3542 51.4003C47.3542 52.5072 48.3865 53.4196 49.233 53.4196C50.3212 53.4196 51.2886 52.3826 51.2886 51.4003C51.2886 43.1672 45.32 36.7925 37.503 36.7925C29.6859 36.7925 23.3257 43.3459 23.3257 51.4003L23.3266 51.4012Z" fill="#DBB8D8"/>
<path d="M37.5041 25.0377C23.3959 25.0377 11.9178 36.8643 11.9178 51.401C11.9178 52.516 11.0402 53.4194 9.95891 53.4194C8.87761 53.4194 8 52.5151 8 51.401C8 34.6379 21.2359 21 37.505 21C45.253 21 52.5732 24.0705 58.1152 29.6466C63.6483 35.2127 66.8036 42.6594 66.9994 50.6144C67.0268 51.7286 66.1722 52.6556 65.09 52.6839C64.0149 52.7113 63.109 51.8317 63.0815 50.7166C62.7264 36.3168 51.491 25.0377 37.5041 25.0377Z" fill="#1C371C"/>
<path d="M37.5042 28.748C49.627 28.748 59.4897 38.9103 59.4897 51.4012V55.9818C59.4897 57.0969 58.6121 58.0002 57.5308 58.0002C56.4495 58.0002 55.5719 57.096 55.5719 55.9818V51.4012C55.5719 41.1367 47.4671 32.7848 37.5051 32.7848C27.5432 32.7848 19.4383 41.1358 19.4383 51.4012V55.9818C19.4383 57.0969 18.5607 58.0002 17.4794 58.0002C16.3981 58.0002 15.5205 57.096 15.5205 55.9818V51.4012C15.5205 38.9103 25.3833 28.748 37.506 28.748H37.5042Z" fill="#EF7D4F"/>
<path d="M90.3684 46.8086H95.6067C95.9114 46.8086 96.1692 46.9141 96.3802 47.125C96.5989 47.3438 96.7083 47.6016 96.7083 47.8984C96.7083 48.2031 96.5989 48.4648 96.3802 48.6836C96.1692 48.8945 95.9114 49 95.6067 49H89.2786C88.9739 49 88.7122 48.8945 88.4934 48.6836C88.2825 48.4648 88.177 48.2031 88.177 47.8984V33.0391C88.177 32.7344 88.2825 32.4766 88.4934 32.2656C88.7122 32.0469 88.9739 31.9375 89.2786 31.9375C89.5755 31.9375 89.8333 32.0469 90.052 32.2656C90.263 32.4766 90.3684 32.7344 90.3684 33.0391V46.8086ZM101.495 46.8086H106.182C106.487 46.8086 106.745 46.9141 106.956 47.125C107.174 47.3438 107.284 47.6016 107.284 47.8984C107.284 48.2031 107.174 48.4648 106.956 48.6836C106.745 48.8945 106.487 49 106.182 49H100.405C100.1 49 99.8384 48.8945 99.6197 48.6836C99.4088 48.4648 99.3033 48.2031 99.3033 47.8984V33.2383C99.3033 32.9414 99.4088 32.6836 99.6197 32.4648C99.8384 32.2539 100.1 32.1484 100.405 32.1484H106.182C106.487 32.1484 106.745 32.2539 106.956 32.4648C107.174 32.6836 107.284 32.9414 107.284 33.2383C107.284 33.543 107.174 33.8008 106.956 34.0117C106.745 34.2305 106.487 34.3398 106.182 34.3398H101.495V38.8867H105.479C105.784 38.8867 106.045 38.9922 106.264 39.2031C106.475 39.4141 106.581 39.6719 106.581 39.9766C106.581 40.2812 106.475 40.5391 106.264 40.75C106.045 40.9688 105.784 41.0781 105.479 41.0781H101.495V46.8086ZM112.844 38.2422C113.289 38.6797 113.828 38.8984 114.461 38.8984C116.023 38.9062 117.301 39.5234 118.293 40.75C119.301 41.9922 119.64 43.4141 119.312 45.0156C119.078 46.1797 118.492 47.1367 117.555 47.8867C116.625 48.6289 115.562 49 114.367 49H114.355C113.246 49 112.246 48.6602 111.355 47.9805C110.488 47.3164 109.898 46.4609 109.586 45.4141C109.476 45.0469 109.531 44.7109 109.75 44.4062C109.969 44.1016 110.265 43.9492 110.64 43.9492C111.195 43.9492 111.547 44.2109 111.695 44.7344C111.867 45.3203 112.195 45.8008 112.68 46.1758C113.172 46.5586 113.73 46.75 114.355 46.75H114.402C115.035 46.75 115.601 46.5625 116.101 46.1875C116.609 45.8047 116.945 45.3125 117.109 44.7109C117.344 43.7969 117.183 42.9766 116.629 42.25C116.09 41.5391 115.379 41.1719 114.496 41.1484C113.23 41.125 112.156 40.6758 111.273 39.8008C110.383 38.9258 109.937 37.8594 109.937 36.6016V36.2734C109.937 35.0156 110.379 33.9414 111.262 33.0508C112.137 32.168 113.195 31.7266 114.437 31.7266H114.508C115.484 31.7266 116.363 32.0156 117.144 32.5938C117.918 33.1641 118.457 33.9023 118.762 34.8086C118.879 35.168 118.824 35.5039 118.598 35.8164C118.379 36.1211 118.082 36.2734 117.707 36.2734H117.695C117.172 36.2734 116.828 36.0273 116.664 35.5352C116.508 35.0742 116.234 34.6992 115.844 34.4102C115.445 34.1133 115 33.9648 114.508 33.9648H114.437C113.805 33.9648 113.269 34.1914 112.832 34.6445C112.387 35.0898 112.164 35.6328 112.164 36.2734V36.6367C112.164 37.2695 112.39 37.8047 112.844 38.2422ZM131.428 38.6758H135.987V36.168C135.987 35.8711 135.928 35.5859 135.811 35.3125L135.799 35.2891C135.713 35.0938 135.604 34.9141 135.471 34.75C135.479 34.7578 135.471 34.7461 135.448 34.7148C135.377 34.6367 135.299 34.5586 135.213 34.4805C135.182 34.457 135.159 34.4375 135.143 34.4219C135.096 34.3828 135.049 34.3477 135.002 34.3164C134.955 34.2852 134.905 34.2539 134.85 34.2227C134.803 34.1992 134.748 34.1719 134.686 34.1406C134.631 34.1172 134.577 34.0938 134.522 34.0703C134.459 34.0469 134.424 34.0352 134.416 34.0352C134.33 34.0039 134.241 33.9805 134.147 33.9648C134.131 33.9648 134.1 33.9609 134.053 33.9531C133.944 33.9375 133.846 33.9297 133.76 33.9297H133.655C133.569 33.9297 133.471 33.9375 133.362 33.9531C133.315 33.9609 133.284 33.9648 133.268 33.9648C133.174 33.9805 133.084 34.0039 132.998 34.0352L132.881 34.0703C132.827 34.0938 132.776 34.1172 132.729 34.1406C132.659 34.1719 132.604 34.1992 132.565 34.2227C132.502 34.2539 132.452 34.2852 132.413 34.3164C132.366 34.3477 132.319 34.3828 132.272 34.4219C132.264 34.4219 132.241 34.4414 132.202 34.4805C132.116 34.5586 132.038 34.6367 131.967 34.7148C131.959 34.7227 131.955 34.7305 131.955 34.7383C131.948 34.7461 131.94 34.75 131.932 34.75C131.799 34.9141 131.694 35.0938 131.616 35.2891C131.616 35.2812 131.612 35.2891 131.604 35.3125C131.487 35.5859 131.428 35.8711 131.428 36.168V38.6758ZM137.955 34.7852V34.8086C138.104 35.2539 138.178 35.707 138.178 36.168V47.8984C138.178 48.2031 138.069 48.4648 137.85 48.6836C137.639 48.8945 137.381 49 137.077 49C136.772 49 136.514 48.8945 136.303 48.6836C136.092 48.4648 135.987 48.2031 135.987 47.8984V40.8672H131.428V47.8984C131.428 48.2031 131.323 48.4648 131.112 48.6836C130.893 48.8945 130.635 49 130.338 49C130.034 49 129.772 48.8945 129.553 48.6836C129.342 48.4648 129.237 48.2031 129.237 47.8984V36.168C129.237 35.707 129.307 35.2539 129.448 34.8086C129.471 34.7305 129.475 34.7109 129.459 34.75C129.944 33.3203 130.905 32.3828 132.342 31.9375C132.35 31.9375 132.362 31.9336 132.377 31.9258C132.495 31.8945 132.616 31.8633 132.741 31.832H132.776C132.799 31.8242 132.815 31.8203 132.823 31.8203C132.932 31.7969 133.045 31.7773 133.163 31.7617L133.245 31.75C133.401 31.7422 133.541 31.7383 133.666 31.7383H133.748C133.873 31.7383 134.01 31.7422 134.159 31.75L134.252 31.7617C134.37 31.7773 134.483 31.7969 134.592 31.8203C134.6 31.8203 134.612 31.8242 134.627 31.832H134.674C134.799 31.8633 134.92 31.8945 135.038 31.9258C135.045 31.9336 135.053 31.9375 135.061 31.9375C136.498 32.3828 137.459 33.3203 137.944 34.75C137.952 34.7578 137.955 34.7695 137.955 34.7852ZM145.882 48.9883C144.547 48.9258 143.418 48.3906 142.496 47.3828C141.59 46.3906 141.136 45.2188 141.136 43.8672V32.8281C141.136 32.5234 141.242 32.2617 141.453 32.043C141.672 31.832 141.933 31.7266 142.238 31.7266C142.535 31.7266 142.793 31.832 143.011 32.043C143.222 32.2617 143.328 32.5234 143.328 32.8281V43.9141C143.328 44.6328 143.558 45.2656 144.019 45.8125C144.48 46.375 145.062 46.6992 145.765 46.7852C146.601 46.8867 147.336 46.6602 147.968 46.1055C148.593 45.5508 148.906 44.8555 148.906 44.0195V32.8281C148.906 32.5234 149.011 32.2617 149.222 32.043C149.433 31.832 149.691 31.7266 149.996 31.7266C150.3 31.7266 150.558 31.832 150.769 32.043C150.988 32.2617 151.097 32.5234 151.097 32.8281V44.0195C151.097 45.4336 150.582 46.6328 149.55 47.6172C148.527 48.6016 147.304 49.0586 145.882 48.9883ZM160.981 44.5586V36.5781C160.981 35.9609 160.759 35.4336 160.313 34.9961C159.876 34.5586 159.349 34.3398 158.731 34.3398H156.235V46.8086H158.731C159.349 46.8086 159.876 46.5898 160.313 46.1523C160.759 45.7148 160.981 45.1836 160.981 44.5586ZM155.145 32.1484H158.731C159.958 32.1484 161.005 32.582 161.872 33.4492C162.739 34.3164 163.173 35.3594 163.173 36.5781V44.5586C163.173 45.7852 162.739 46.832 161.872 47.6992C161.005 48.5664 159.958 49 158.731 49H155.145C154.841 49 154.579 48.8945 154.36 48.6836C154.149 48.4648 154.044 48.2031 154.044 47.8984V33.2383C154.044 32.9414 154.149 32.6836 154.36 32.4648C154.579 32.2539 154.841 32.1484 155.145 32.1484ZM167.83 38.6758H172.389V36.168C172.389 35.8711 172.33 35.5859 172.213 35.3125L172.201 35.2891C172.115 35.0938 172.006 34.9141 171.873 34.75C171.881 34.7578 171.873 34.7461 171.85 34.7148C171.78 34.6367 171.701 34.5586 171.615 34.4805C171.584 34.457 171.561 34.4375 171.545 34.4219C171.498 34.3828 171.451 34.3477 171.405 34.3164C171.358 34.2852 171.307 34.2539 171.252 34.2227C171.205 34.1992 171.151 34.1719 171.088 34.1406C171.033 34.1172 170.979 34.0938 170.924 34.0703C170.862 34.0469 170.826 34.0352 170.819 34.0352C170.733 34.0039 170.643 33.9805 170.549 33.9648C170.533 33.9648 170.502 33.9609 170.455 33.9531C170.346 33.9375 170.248 33.9297 170.162 33.9297H170.057C169.971 33.9297 169.873 33.9375 169.764 33.9531C169.717 33.9609 169.686 33.9648 169.67 33.9648C169.576 33.9805 169.487 34.0039 169.401 34.0352L169.283 34.0703C169.229 34.0938 169.178 34.1172 169.131 34.1406C169.061 34.1719 169.006 34.1992 168.967 34.2227C168.905 34.2539 168.854 34.2852 168.815 34.3164C168.768 34.3477 168.721 34.3828 168.674 34.4219C168.666 34.4219 168.643 34.4414 168.604 34.4805C168.518 34.5586 168.44 34.6367 168.369 34.7148C168.362 34.7227 168.358 34.7305 168.358 34.7383C168.35 34.7461 168.342 34.75 168.334 34.75C168.201 34.9141 168.096 35.0938 168.018 35.2891C168.018 35.2812 168.014 35.2891 168.006 35.3125C167.889 35.5859 167.83 35.8711 167.83 36.168V38.6758ZM174.358 34.7852V34.8086C174.506 35.2539 174.58 35.707 174.58 36.168V47.8984C174.58 48.2031 174.471 48.4648 174.252 48.6836C174.041 48.8945 173.783 49 173.479 49C173.174 49 172.916 48.8945 172.705 48.6836C172.494 48.4648 172.389 48.2031 172.389 47.8984V40.8672H167.83V47.8984C167.83 48.2031 167.725 48.4648 167.514 48.6836C167.295 48.8945 167.037 49 166.74 49C166.436 49 166.174 48.8945 165.955 48.6836C165.744 48.4648 165.639 48.2031 165.639 47.8984V36.168C165.639 35.707 165.709 35.2539 165.85 34.8086C165.873 34.7305 165.877 34.7109 165.862 34.75C166.346 33.3203 167.307 32.3828 168.744 31.9375C168.752 31.9375 168.764 31.9336 168.78 31.9258C168.897 31.8945 169.018 31.8633 169.143 31.832H169.178C169.201 31.8242 169.217 31.8203 169.225 31.8203C169.334 31.7969 169.448 31.7773 169.565 31.7617L169.647 31.75C169.803 31.7422 169.944 31.7383 170.069 31.7383H170.151C170.276 31.7383 170.412 31.7422 170.561 31.75L170.655 31.7617C170.772 31.7773 170.885 31.7969 170.994 31.8203C171.002 31.8203 171.014 31.8242 171.03 31.832H171.076C171.201 31.8633 171.323 31.8945 171.44 31.9258C171.448 31.9336 171.455 31.9375 171.463 31.9375C172.901 32.3828 173.862 33.3203 174.346 34.75C174.354 34.7578 174.358 34.7695 174.358 34.7852ZM183.679 45.2852C183.843 44.8008 184.187 44.5586 184.71 44.5586C185.078 44.5586 185.375 44.7109 185.601 45.0156C185.82 45.3125 185.871 45.6367 185.753 45.9883C185.457 46.8711 184.925 47.5898 184.16 48.1445C183.386 48.7148 182.519 49 181.558 49H181.488C180.261 49 179.214 48.5664 178.347 47.6992C177.48 46.832 177.046 45.7852 177.046 44.5586V36.168C177.046 34.9492 177.48 33.9062 178.347 33.0391C179.214 32.1719 180.261 31.7383 181.488 31.7383H181.558C182.519 31.7383 183.386 32.0195 184.16 32.582C184.925 33.1367 185.457 33.8594 185.753 34.75C185.871 35.0938 185.82 35.418 185.601 35.7227C185.375 36.0195 185.078 36.168 184.71 36.168C184.187 36.168 183.843 35.9297 183.679 35.4531C183.531 35 183.261 34.6328 182.871 34.3516C182.48 34.0703 182.043 33.9297 181.558 33.9297H181.488C180.863 33.9297 180.332 34.1484 179.894 34.5859C179.457 35.0234 179.238 35.5508 179.238 36.168V44.5586C179.238 45.1836 179.457 45.7148 179.894 46.1523C180.332 46.5898 180.863 46.8086 181.488 46.8086H181.558C182.043 46.8086 182.48 46.6641 182.871 46.375C183.261 46.0938 183.531 45.7305 183.679 45.2852ZM189.626 49C189.321 49 189.059 48.8945 188.841 48.6836C188.63 48.4648 188.524 48.2031 188.524 47.8984V32.8281C188.524 32.5234 188.63 32.2656 188.841 32.0547C189.059 31.8438 189.321 31.7383 189.626 31.7383C189.923 31.7383 190.18 31.8438 190.399 32.0547C190.61 32.2656 190.716 32.5234 190.716 32.8281V47.8984C190.716 48.2031 190.61 48.4648 190.399 48.6836C190.18 48.8945 189.923 49 189.626 49ZM196.217 46.8086H200.904C201.209 46.8086 201.467 46.9141 201.678 47.125C201.897 47.3438 202.006 47.6016 202.006 47.8984C202.006 48.2031 201.897 48.4648 201.678 48.6836C201.467 48.8945 201.209 49 200.904 49H195.127C194.822 49 194.561 48.8945 194.342 48.6836C194.131 48.4648 194.025 48.2031 194.025 47.8984V33.2383C194.025 32.9414 194.131 32.6836 194.342 32.4648C194.561 32.2539 194.822 32.1484 195.127 32.1484H200.904C201.209 32.1484 201.467 32.2539 201.678 32.4648C201.897 32.6836 202.006 32.9414 202.006 33.2383C202.006 33.543 201.897 33.8008 201.678 34.0117C201.467 34.2305 201.209 34.3398 200.904 34.3398H196.217V38.8867H200.201C200.506 38.8867 200.768 38.9922 200.986 39.2031C201.197 39.4141 201.303 39.6719 201.303 39.9766C201.303 40.2812 201.197 40.5391 200.986 40.75C200.768 40.9688 200.506 41.0781 200.201 41.0781H196.217V46.8086ZM209.359 48.9883C208.023 48.9258 206.894 48.3906 205.972 47.3828C205.066 46.3906 204.613 45.2188 204.613 43.8672V32.8281C204.613 32.5234 204.718 32.2617 204.929 32.043C205.148 31.832 205.41 31.7266 205.714 31.7266C206.011 31.7266 206.269 31.832 206.488 32.043C206.699 32.2617 206.804 32.5234 206.804 32.8281V43.9141C206.804 44.6328 207.035 45.2656 207.495 45.8125C207.956 46.375 208.538 46.6992 209.242 46.7852C210.077 46.8867 210.812 46.6602 211.445 46.1055C212.07 45.5508 212.382 44.8555 212.382 44.0195V32.8281C212.382 32.5234 212.488 32.2617 212.699 32.043C212.91 31.832 213.167 31.7266 213.472 31.7266C213.777 31.7266 214.035 31.832 214.245 32.043C214.464 32.2617 214.574 32.5234 214.574 32.8281V44.0195C214.574 45.4336 214.058 46.6328 213.027 47.6172C212.003 48.6016 210.781 49.0586 209.359 48.9883ZM220.122 38.2422C220.567 38.6797 221.106 38.8984 221.739 38.8984C223.301 38.9062 224.579 39.5234 225.571 40.75C226.579 41.9922 226.919 43.4141 226.59 45.0156C226.356 46.1797 225.77 47.1367 224.833 47.8867C223.903 48.6289 222.84 49 221.645 49H221.633C220.524 49 219.524 48.6602 218.633 47.9805C217.766 47.3164 217.176 46.4609 216.864 45.4141C216.755 45.0469 216.809 44.7109 217.028 44.4062C217.247 44.1016 217.544 43.9492 217.919 43.9492C218.473 43.9492 218.825 44.2109 218.973 44.7344C219.145 45.3203 219.473 45.8008 219.958 46.1758C220.45 46.5586 221.008 46.75 221.633 46.75H221.68C222.313 46.75 222.88 46.5625 223.38 46.1875C223.887 45.8047 224.223 45.3125 224.387 44.7109C224.622 43.7969 224.462 42.9766 223.907 42.25C223.368 41.5391 222.657 41.1719 221.774 41.1484C220.508 41.125 219.434 40.6758 218.551 39.8008C217.661 38.9258 217.215 37.8594 217.215 36.6016V36.2734C217.215 35.0156 217.657 33.9414 218.54 33.0508C219.415 32.168 220.473 31.7266 221.715 31.7266H221.786C222.762 31.7266 223.641 32.0156 224.423 32.5938C225.196 33.1641 225.735 33.9023 226.04 34.8086C226.157 35.168 226.102 35.5039 225.876 35.8164C225.657 36.1211 225.36 36.2734 224.985 36.2734H224.973C224.45 36.2734 224.106 36.0273 223.942 35.5352C223.786 35.0742 223.512 34.6992 223.122 34.4102C222.723 34.1133 222.278 33.9648 221.786 33.9648H221.715C221.083 33.9648 220.548 34.1914 220.11 34.6445C219.665 35.0898 219.442 35.6328 219.442 36.2734V36.6367C219.442 37.2695 219.669 37.8047 220.122 38.2422ZM231.752 46.8086H236.439C236.744 46.8086 237.002 46.9141 237.213 47.125C237.432 47.3438 237.541 47.6016 237.541 47.8984C237.541 48.2031 237.432 48.4648 237.213 48.6836C237.002 48.8945 236.744 49 236.439 49H230.662C230.357 49 230.096 48.8945 229.877 48.6836C229.666 48.4648 229.56 48.2031 229.56 47.8984V33.2383C229.56 32.9414 229.666 32.6836 229.877 32.4648C230.096 32.2539 230.357 32.1484 230.662 32.1484H236.439C236.744 32.1484 237.002 32.2539 237.213 32.4648C237.432 32.6836 237.541 32.9414 237.541 33.2383C237.541 33.543 237.432 33.8008 237.213 34.0117C237.002 34.2305 236.744 34.3398 236.439 34.3398H231.752V38.8867H235.736C236.041 38.8867 236.303 38.9922 236.521 39.2031C236.732 39.4141 236.838 39.6719 236.838 39.9766C236.838 40.2812 236.732 40.5391 236.521 40.75C236.303 40.9688 236.041 41.0781 235.736 41.0781H231.752V46.8086ZM243.101 38.2422C243.546 38.6797 244.085 38.8984 244.718 38.8984C246.28 38.9062 247.558 39.5234 248.55 40.75C249.558 41.9922 249.898 43.4141 249.57 45.0156C249.335 46.1797 248.749 47.1367 247.812 47.8867C246.882 48.6289 245.82 49 244.624 49H244.613C243.503 49 242.503 48.6602 241.613 47.9805C240.745 47.3164 240.155 46.4609 239.843 45.4141C239.734 45.0469 239.788 44.7109 240.007 44.4062C240.226 44.1016 240.523 43.9492 240.898 43.9492C241.452 43.9492 241.804 44.2109 241.952 44.7344C242.124 45.3203 242.452 45.8008 242.937 46.1758C243.429 46.5586 243.988 46.75 244.613 46.75H244.659C245.292 46.75 245.859 46.5625 246.359 46.1875C246.866 45.8047 247.202 45.3125 247.366 44.7109C247.601 43.7969 247.441 42.9766 246.886 42.25C246.347 41.5391 245.636 41.1719 244.753 41.1484C243.488 41.125 242.413 40.6758 241.53 39.8008C240.64 38.9258 240.195 37.8594 240.195 36.6016V36.2734C240.195 35.0156 240.636 33.9414 241.519 33.0508C242.394 32.168 243.452 31.7266 244.695 31.7266H244.765C245.741 31.7266 246.62 32.0156 247.402 32.5938C248.175 33.1641 248.714 33.9023 249.019 34.8086C249.136 35.168 249.081 35.5039 248.855 35.8164C248.636 36.1211 248.339 36.2734 247.964 36.2734H247.952C247.429 36.2734 247.085 36.0273 246.921 35.5352C246.765 35.0742 246.491 34.6992 246.101 34.4102C245.702 34.1133 245.257 33.9648 244.765 33.9648H244.695C244.062 33.9648 243.527 34.1914 243.089 34.6445C242.644 35.0898 242.421 35.6328 242.421 36.2734V36.6367C242.421 37.2695 242.648 37.8047 243.101 38.2422ZM261.685 38.6758H266.244V36.168C266.244 35.8711 266.185 35.5859 266.068 35.3125L266.056 35.2891C265.97 35.0938 265.861 34.9141 265.728 34.75C265.736 34.7578 265.728 34.7461 265.705 34.7148C265.635 34.6367 265.556 34.5586 265.47 34.4805C265.439 34.457 265.416 34.4375 265.4 34.4219C265.353 34.3828 265.306 34.3477 265.26 34.3164C265.213 34.2852 265.162 34.2539 265.107 34.2227C265.06 34.1992 265.006 34.1719 264.943 34.1406C264.888 34.1172 264.834 34.0938 264.779 34.0703C264.717 34.0469 264.681 34.0352 264.674 34.0352C264.588 34.0039 264.498 33.9805 264.404 33.9648C264.388 33.9648 264.357 33.9609 264.31 33.9531C264.201 33.9375 264.103 33.9297 264.017 33.9297H263.912C263.826 33.9297 263.728 33.9375 263.619 33.9531C263.572 33.9609 263.541 33.9648 263.525 33.9648C263.431 33.9805 263.342 34.0039 263.256 34.0352L263.138 34.0703C263.084 34.0938 263.033 34.1172 262.986 34.1406C262.916 34.1719 262.861 34.1992 262.822 34.2227C262.76 34.2539 262.709 34.2852 262.67 34.3164C262.623 34.3477 262.576 34.3828 262.529 34.4219C262.521 34.4219 262.498 34.4414 262.459 34.4805C262.373 34.5586 262.295 34.6367 262.224 34.7148C262.217 34.7227 262.213 34.7305 262.213 34.7383C262.205 34.7461 262.197 34.75 262.189 34.75C262.056 34.9141 261.951 35.0938 261.873 35.2891C261.873 35.2812 261.869 35.2891 261.861 35.3125C261.744 35.5859 261.685 35.8711 261.685 36.168V38.6758ZM268.213 34.7852V34.8086C268.361 35.2539 268.435 35.707 268.435 36.168V47.8984C268.435 48.2031 268.326 48.4648 268.107 48.6836C267.896 48.8945 267.638 49 267.334 49C267.029 49 266.771 48.8945 266.56 48.6836C266.349 48.4648 266.244 48.2031 266.244 47.8984V40.8672H261.685V47.8984C261.685 48.2031 261.58 48.4648 261.369 48.6836C261.15 48.8945 260.892 49 260.595 49C260.291 49 260.029 48.8945 259.81 48.6836C259.599 48.4648 259.494 48.2031 259.494 47.8984V36.168C259.494 35.707 259.564 35.2539 259.705 34.8086C259.728 34.7305 259.732 34.7109 259.717 34.75C260.201 33.3203 261.162 32.3828 262.599 31.9375C262.607 31.9375 262.619 31.9336 262.635 31.9258C262.752 31.8945 262.873 31.8633 262.998 31.832H263.033C263.056 31.8242 263.072 31.8203 263.08 31.8203C263.189 31.7969 263.303 31.7773 263.42 31.7617L263.502 31.75C263.658 31.7422 263.799 31.7383 263.924 31.7383H264.006C264.131 31.7383 264.267 31.7422 264.416 31.75L264.51 31.7617C264.627 31.7773 264.74 31.7969 264.849 31.8203C264.857 31.8203 264.869 31.8242 264.885 31.832H264.931C265.056 31.8633 265.178 31.8945 265.295 31.9258C265.303 31.9336 265.31 31.9375 265.318 31.9375C266.756 32.3828 267.717 33.3203 268.201 34.75C268.209 34.7578 268.213 34.7695 268.213 34.7852ZM277.534 45.2852C277.698 44.8008 278.042 44.5586 278.565 44.5586C278.933 44.5586 279.23 44.7109 279.456 45.0156C279.675 45.3125 279.726 45.6367 279.608 45.9883C279.312 46.8711 278.78 47.5898 278.015 48.1445C277.241 48.7148 276.374 49 275.413 49H275.343C274.116 49 273.069 48.5664 272.202 47.6992C271.335 46.832 270.901 45.7852 270.901 44.5586V36.168C270.901 34.9492 271.335 33.9062 272.202 33.0391C273.069 32.1719 274.116 31.7383 275.343 31.7383H275.413C276.374 31.7383 277.241 32.0195 278.015 32.582C278.78 33.1367 279.312 33.8594 279.608 34.75C279.726 35.0938 279.675 35.418 279.456 35.7227C279.23 36.0195 278.933 36.168 278.565 36.168C278.042 36.168 277.698 35.9297 277.534 35.4531C277.386 35 277.116 34.6328 276.726 34.3516C276.335 34.0703 275.898 33.9297 275.413 33.9297H275.343C274.718 33.9297 274.187 34.1484 273.749 34.5859C273.312 35.0234 273.093 35.5508 273.093 36.168V44.5586C273.093 45.1836 273.312 45.7148 273.749 46.1523C274.187 46.5898 274.718 46.8086 275.343 46.8086H275.413C275.898 46.8086 276.335 46.6641 276.726 46.375C277.116 46.0938 277.386 45.7305 277.534 45.2852ZM284.571 38.6758H289.129V36.168C289.129 35.8711 289.071 35.5859 288.953 35.3125L288.942 35.2891C288.856 35.0938 288.746 34.9141 288.614 34.75C288.621 34.7578 288.614 34.7461 288.59 34.7148C288.52 34.6367 288.442 34.5586 288.356 34.4805C288.325 34.457 288.301 34.4375 288.285 34.4219C288.239 34.3828 288.192 34.3477 288.145 34.3164C288.098 34.2852 288.047 34.2539 287.993 34.2227C287.946 34.1992 287.891 34.1719 287.828 34.1406C287.774 34.1172 287.719 34.0938 287.664 34.0703C287.602 34.0469 287.567 34.0352 287.559 34.0352C287.473 34.0039 287.383 33.9805 287.289 33.9648C287.274 33.9648 287.243 33.9609 287.196 33.9531C287.086 33.9375 286.989 33.9297 286.903 33.9297H286.797C286.711 33.9297 286.614 33.9375 286.504 33.9531C286.457 33.9609 286.426 33.9648 286.41 33.9648C286.317 33.9805 286.227 34.0039 286.141 34.0352L286.024 34.0703C285.969 34.0938 285.918 34.1172 285.871 34.1406C285.801 34.1719 285.746 34.1992 285.707 34.2227C285.645 34.2539 285.594 34.2852 285.555 34.3164C285.508 34.3477 285.461 34.3828 285.414 34.4219C285.407 34.4219 285.383 34.4414 285.344 34.4805C285.258 34.5586 285.18 34.6367 285.11 34.7148C285.102 34.7227 285.098 34.7305 285.098 34.7383C285.09 34.7461 285.082 34.75 285.075 34.75C284.942 34.9141 284.836 35.0938 284.758 35.2891C284.758 35.2812 284.754 35.2891 284.746 35.3125C284.629 35.5859 284.571 35.8711 284.571 36.168V38.6758ZM291.098 34.7852V34.8086C291.246 35.2539 291.321 35.707 291.321 36.168V47.8984C291.321 48.2031 291.211 48.4648 290.993 48.6836C290.782 48.8945 290.524 49 290.219 49C289.914 49 289.657 48.8945 289.446 48.6836C289.235 48.4648 289.129 48.2031 289.129 47.8984V40.8672H284.571V47.8984C284.571 48.2031 284.465 48.4648 284.254 48.6836C284.035 48.8945 283.778 49 283.481 49C283.176 49 282.914 48.8945 282.696 48.6836C282.485 48.4648 282.379 48.2031 282.379 47.8984V36.168C282.379 35.707 282.45 35.2539 282.59 34.8086C282.614 34.7305 282.618 34.7109 282.602 34.75C283.086 33.3203 284.047 32.3828 285.485 31.9375C285.493 31.9375 285.504 31.9336 285.52 31.9258C285.637 31.8945 285.758 31.8633 285.883 31.832H285.918C285.942 31.8242 285.957 31.8203 285.965 31.8203C286.075 31.7969 286.188 31.7773 286.305 31.7617L286.387 31.75C286.543 31.7422 286.684 31.7383 286.809 31.7383H286.891C287.016 31.7383 287.153 31.7422 287.301 31.75L287.395 31.7617C287.512 31.7773 287.625 31.7969 287.735 31.8203C287.743 31.8203 287.754 31.8242 287.77 31.832H287.817C287.942 31.8633 288.063 31.8945 288.18 31.9258C288.188 31.9336 288.196 31.9375 288.203 31.9375C289.641 32.3828 290.602 33.3203 291.086 34.75C291.094 34.7578 291.098 34.7695 291.098 34.7852ZM301.568 44.5586V36.5781C301.568 35.9609 301.345 35.4336 300.9 34.9961C300.463 34.5586 299.935 34.3398 299.318 34.3398H296.822V46.8086H299.318C299.935 46.8086 300.463 46.5898 300.9 46.1523C301.345 45.7148 301.568 45.1836 301.568 44.5586ZM295.732 32.1484H299.318C300.545 32.1484 301.591 32.582 302.459 33.4492C303.326 34.3164 303.759 35.3594 303.759 36.5781V44.5586C303.759 45.7852 303.326 46.832 302.459 47.6992C301.591 48.5664 300.545 49 299.318 49H295.732C295.427 49 295.166 48.8945 294.947 48.6836C294.736 48.4648 294.63 48.2031 294.63 47.8984V33.2383C294.63 32.9414 294.736 32.6836 294.947 32.4648C295.166 32.2539 295.427 32.1484 295.732 32.1484ZM308.909 46.8086H313.597C313.901 46.8086 314.159 46.9141 314.37 47.125C314.589 47.3438 314.698 47.6016 314.698 47.8984C314.698 48.2031 314.589 48.4648 314.37 48.6836C314.159 48.8945 313.901 49 313.597 49H307.819C307.515 49 307.253 48.8945 307.034 48.6836C306.823 48.4648 306.718 48.2031 306.718 47.8984V33.2383C306.718 32.9414 306.823 32.6836 307.034 32.4648C307.253 32.2539 307.515 32.1484 307.819 32.1484H313.597C313.901 32.1484 314.159 32.2539 314.37 32.4648C314.589 32.6836 314.698 32.9414 314.698 33.2383C314.698 33.543 314.589 33.8008 314.37 34.0117C314.159 34.2305 313.901 34.3398 313.597 34.3398H308.909V38.8867H312.893C313.198 38.8867 313.46 38.9922 313.679 39.2031C313.89 39.4141 313.995 39.6719 313.995 39.9766C313.995 40.2812 313.89 40.5391 313.679 40.75C313.46 40.9688 313.198 41.0781 312.893 41.0781H308.909V46.8086ZM328.461 32.1719C328.68 31.9141 328.953 31.7852 329.281 31.7852C329.586 31.7852 329.848 31.8945 330.067 32.1133C330.277 32.3242 330.383 32.582 330.383 32.8867V47.8984C330.383 48.2031 330.277 48.4648 330.067 48.6836C329.848 48.8945 329.586 49 329.281 49C328.985 49 328.727 48.8945 328.508 48.6836C328.297 48.4648 328.192 48.2031 328.192 47.8984V37.4219L324.981 43.6914C324.942 43.7617 324.899 43.8203 324.852 43.8672C324.758 44 324.645 44.1016 324.512 44.1719C324.238 44.3047 323.957 44.3242 323.668 44.2305C323.387 44.1445 323.176 43.9648 323.035 43.6914L319.848 37.4453V47.8984C319.848 48.2031 319.742 48.4648 319.531 48.6836C319.313 48.8945 319.055 49 318.758 49C318.453 49 318.192 48.8945 317.973 48.6836C317.762 48.4648 317.656 48.2031 317.656 47.8984V32.8867C317.656 32.582 317.762 32.3242 317.973 32.1133C318.192 31.8945 318.453 31.7852 318.758 31.7852C319.18 31.7852 319.496 31.9727 319.707 32.3477C319.707 32.3555 319.711 32.3633 319.719 32.3711C319.719 32.3711 319.723 32.375 319.731 32.3828L324.008 40.7734L328.309 32.3828C328.309 32.3906 328.324 32.3633 328.356 32.3008C328.379 32.2695 328.387 32.2578 328.379 32.2656C328.41 32.2266 328.438 32.1953 328.461 32.1719ZM334.783 49C334.478 49 334.216 48.8945 333.997 48.6836C333.787 48.4648 333.681 48.2031 333.681 47.8984V32.8281C333.681 32.5234 333.787 32.2656 333.997 32.0547C334.216 31.8438 334.478 31.7383 334.783 31.7383C335.08 31.7383 335.337 31.8438 335.556 32.0547C335.767 32.2656 335.872 32.5234 335.872 32.8281V47.8984C335.872 48.2031 335.767 48.4648 335.556 48.6836C335.337 48.8945 335.08 49 334.783 49ZM341.374 46.8086H346.061C346.366 46.8086 346.624 46.9141 346.835 47.125C347.053 47.3438 347.163 47.6016 347.163 47.8984C347.163 48.2031 347.053 48.4648 346.835 48.6836C346.624 48.8945 346.366 49 346.061 49H340.284C339.979 49 339.717 48.8945 339.499 48.6836C339.288 48.4648 339.182 48.2031 339.182 47.8984V33.2383C339.182 32.9414 339.288 32.6836 339.499 32.4648C339.717 32.2539 339.979 32.1484 340.284 32.1484H346.061C346.366 32.1484 346.624 32.2539 346.835 32.4648C347.053 32.6836 347.163 32.9414 347.163 33.2383C347.163 33.543 347.053 33.8008 346.835 34.0117C346.624 34.2305 346.366 34.3398 346.061 34.3398H341.374V38.8867H345.358C345.663 38.8867 345.925 38.9922 346.143 39.2031C346.354 39.4141 346.46 39.6719 346.46 39.9766C346.46 40.2812 346.354 40.5391 346.143 40.75C345.925 40.9688 345.663 41.0781 345.358 41.0781H341.374V46.8086Z" fill="#FFFBF1"/>
</g>
<defs>
<clipPath id="clip0_3319_9217">
<path d="M0 0H360V63C360 71.8366 352.837 79 344 79H16C7.16344 79 0 71.8366 0 63V0Z" fill="white"/>
</clipPath>
</defs>
</svg>
