<svg width="368" height="63" viewBox="0 0 368 63" fill="none" xmlns="http://www.w3.org/2000/svg">
<g filter="url(#filter0_d_3319_9286)">
<g clip-path="url(#clip0_3319_9286)">
<path d="M4 22C4 13.1634 11.1634 6 20 6H348C356.837 6 364 13.1634 364 22V61H4V22Z" fill="#FFFBF1"/>
<path d="M265.238 -26.925C273.999 -20.1118 268.145 -12.7093 261.5 -4.1649C254.855 4.37954 251.254 2.64269 242.5 -4.16489C196.701 -39.7806 129.822 -24.1893 95.0638 20.5063C56.7467 69.7788 70.5021 126.327 117.579 162.937C126.275 169.7 127.101 183.432 121.9 190.121C115.213 198.72 101.12 200.028 93.402 194.026C28.7126 143.72 15.3025 57.6056 63.3388 -4.16489C111.375 -65.9354 201.951 -76.1517 265.236 -26.9376L265.238 -26.925Z" fill="#EF7D4F" fill-opacity="0.5"/>
<g clip-path="url(#clip1_3319_9286)">
<path d="M61 21.5269L66 26.0269V33.8369H64V27.8369H58V33.8369H56V26.0269L61 21.5269V21.5269ZM61 18.8369L51 27.8369H54V35.8369H60V29.8369H62V35.8369H68V27.8369H71L61 18.8369Z" fill="black"/>
</g>
<path d="M46.8293 42.1369C47.0053 42.1369 47.1593 42.2029 47.2913 42.3349C47.4306 42.4596 47.5003 42.6172 47.5003 42.8079V49.1659C47.5003 49.3566 47.4306 49.5179 47.2913 49.6499C47.152 49.7746 46.9906 49.8369 46.8073 49.8369C46.602 49.8369 46.437 49.7746 46.3123 49.6499C46.1876 49.5179 46.1253 49.3566 46.1253 49.1659V42.8079C46.1253 42.6172 46.1913 42.4596 46.3233 42.3349C46.4553 42.2029 46.624 42.1369 46.8293 42.1369ZM51.7023 42.1369C51.9076 42.1369 52.0726 42.2029 52.1973 42.3349C52.322 42.4596 52.3843 42.6172 52.3843 42.8079V49.1659C52.3843 49.3566 52.3183 49.5179 52.1863 49.6499C52.0616 49.7746 51.893 49.8369 51.6803 49.8369C51.5043 49.8369 51.3466 49.7746 51.2073 49.6499C51.0753 49.5179 51.0093 49.3566 51.0093 49.1659V42.8079C51.0093 42.6172 51.079 42.4596 51.2183 42.3349C51.3576 42.2029 51.519 42.1369 51.7023 42.1369ZM46.7963 45.3379H51.7023V46.6029H46.7963V45.3379ZM59.6305 46.8999C59.6305 47.5012 59.4949 48.0329 59.2235 48.4949C58.9595 48.9496 58.6002 49.3052 58.1455 49.5619C57.6982 49.8186 57.1959 49.9469 56.6385 49.9469C56.0812 49.9469 55.5752 49.8186 55.1205 49.5619C54.6732 49.3052 54.3139 48.9496 54.0425 48.4949C53.7785 48.0329 53.6465 47.5012 53.6465 46.8999C53.6465 46.2986 53.7785 45.7706 54.0425 45.3159C54.3139 44.8539 54.6732 44.4946 55.1205 44.2379C55.5752 43.9739 56.0812 43.8419 56.6385 43.8419C57.1959 43.8419 57.6982 43.9739 58.1455 44.2379C58.6002 44.4946 58.9595 44.8539 59.2235 45.3159C59.4949 45.7706 59.6305 46.2986 59.6305 46.8999ZM58.3105 46.8999C58.3105 46.5259 58.2335 46.2032 58.0795 45.9319C57.9329 45.6532 57.7312 45.4369 57.4745 45.2829C57.2252 45.1289 56.9465 45.0519 56.6385 45.0519C56.3305 45.0519 56.0482 45.1289 55.7915 45.2829C55.5422 45.4369 55.3405 45.6532 55.1865 45.9319C55.0399 46.2032 54.9665 46.5259 54.9665 46.8999C54.9665 47.2666 55.0399 47.5892 55.1865 47.8679C55.3405 48.1392 55.5422 48.3519 55.7915 48.5059C56.0482 48.6599 56.3305 48.7369 56.6385 48.7369C56.9465 48.7369 57.2252 48.6599 57.4745 48.5059C57.7312 48.3519 57.9329 48.1392 58.0795 47.8679C58.2335 47.5892 58.3105 47.2666 58.3105 46.8999ZM63.8768 43.8419C64.4635 43.8419 64.8961 43.9849 65.1748 44.2709C65.4535 44.5496 65.6368 44.9126 65.7248 45.3599L65.5378 45.2609L65.6258 45.0849C65.7138 44.9162 65.8495 44.7366 66.0328 44.5459C66.2161 44.3479 66.4361 44.1829 66.6928 44.0509C66.9568 43.9116 67.2501 43.8419 67.5728 43.8419C68.1008 43.8419 68.5005 43.9556 68.7718 44.1829C69.0505 44.4102 69.2411 44.7146 69.3438 45.0959C69.4465 45.4699 69.4978 45.8879 69.4978 46.3499V49.1659C69.4978 49.3566 69.4355 49.5179 69.3108 49.6499C69.1861 49.7746 69.0285 49.8369 68.8378 49.8369C68.6471 49.8369 68.4895 49.7746 68.3648 49.6499C68.2401 49.5179 68.1778 49.3566 68.1778 49.1659V46.3499C68.1778 46.1079 68.1485 45.8916 68.0898 45.7009C68.0311 45.5029 67.9248 45.3452 67.7708 45.2279C67.6168 45.1106 67.3968 45.0519 67.1108 45.0519C66.8321 45.0519 66.5938 45.1106 66.3958 45.2279C66.1978 45.3452 66.0475 45.5029 65.9448 45.7009C65.8495 45.8916 65.8018 46.1079 65.8018 46.3499V49.1659C65.8018 49.3566 65.7395 49.5179 65.6148 49.6499C65.4901 49.7746 65.3325 49.8369 65.1418 49.8369C64.9511 49.8369 64.7935 49.7746 64.6688 49.6499C64.5441 49.5179 64.4818 49.3566 64.4818 49.1659V46.3499C64.4818 46.1079 64.4525 45.8916 64.3938 45.7009C64.3351 45.5029 64.2288 45.3452 64.0748 45.2279C63.9208 45.1106 63.7008 45.0519 63.4148 45.0519C63.1361 45.0519 62.8978 45.1106 62.6998 45.2279C62.5018 45.3452 62.3515 45.5029 62.2488 45.7009C62.1535 45.8916 62.1058 46.1079 62.1058 46.3499V49.1659C62.1058 49.3566 62.0435 49.5179 61.9188 49.6499C61.7941 49.7746 61.6365 49.8369 61.4458 49.8369C61.2551 49.8369 61.0975 49.7746 60.9728 49.6499C60.8481 49.5179 60.7858 49.3566 60.7858 49.1659V44.6229C60.7858 44.4322 60.8481 44.2746 60.9728 44.1499C61.0975 44.0179 61.2551 43.9519 61.4458 43.9519C61.6365 43.9519 61.7941 44.0179 61.9188 44.1499C62.0435 44.2746 62.1058 44.4322 62.1058 44.6229V45.0959L61.9408 45.0629C62.0068 44.9382 62.0985 44.8062 62.2158 44.6669C62.3331 44.5202 62.4761 44.3846 62.6448 44.2599C62.8135 44.1352 63.0005 44.0362 63.2058 43.9629C63.4111 43.8822 63.6348 43.8419 63.8768 43.8419ZM73.6984 49.9469C73.0751 49.9469 72.5324 49.8186 72.0704 49.5619C71.6158 49.2979 71.2638 48.9422 71.0144 48.4949C70.7724 48.0476 70.6514 47.5416 70.6514 46.9769C70.6514 46.3169 70.7834 45.7559 71.0474 45.2939C71.3188 44.8246 71.6708 44.4652 72.1034 44.2159C72.5361 43.9666 72.9944 43.8419 73.4784 43.8419C73.8524 43.8419 74.2044 43.9189 74.5344 44.0729C74.8718 44.2269 75.1688 44.4396 75.4254 44.7109C75.6821 44.9749 75.8838 45.2829 76.0304 45.6349C76.1844 45.9869 76.2614 46.3609 76.2614 46.7569C76.2541 46.9329 76.1844 47.0759 76.0524 47.1859C75.9204 47.2959 75.7664 47.3509 75.5904 47.3509H71.3884L71.0584 46.2509H75.0954L74.8534 46.4709V46.1739C74.8388 45.9612 74.7618 45.7706 74.6224 45.6019C74.4904 45.4332 74.3218 45.3012 74.1164 45.2059C73.9184 45.1032 73.7058 45.0519 73.4784 45.0519C73.2584 45.0519 73.0531 45.0812 72.8624 45.1399C72.6718 45.1986 72.5068 45.2976 72.3674 45.4369C72.2281 45.5762 72.1181 45.7632 72.0374 45.9979C71.9568 46.2326 71.9164 46.5296 71.9164 46.8889C71.9164 47.2849 71.9971 47.6222 72.1584 47.9009C72.3271 48.1722 72.5398 48.3812 72.7964 48.5279C73.0604 48.6672 73.3391 48.7369 73.6324 48.7369C73.9038 48.7369 74.1201 48.7149 74.2814 48.6709C74.4428 48.6269 74.5711 48.5756 74.6664 48.5169C74.7691 48.4509 74.8608 48.3959 74.9414 48.3519C75.0734 48.2859 75.1981 48.2529 75.3154 48.2529C75.4768 48.2529 75.6088 48.3079 75.7114 48.4179C75.8214 48.5279 75.8764 48.6562 75.8764 48.8029C75.8764 49.0009 75.7738 49.1806 75.5684 49.3419C75.3778 49.5032 75.1101 49.6462 74.7654 49.7709C74.4208 49.8882 74.0651 49.9469 73.6984 49.9469Z" fill="#EF7D4F"/>
<g clip-path="url(#clip2_3319_9286)">
<path d="M138 32.5H140V34.5H138V32.5ZM152 27.5V41.5C152 42.6 151.1 43.5 150 43.5H136C134.89 43.5 134 42.6 134 41.5L134.01 27.5C134.01 26.4 134.89 25.5 136 25.5H137V23.5H139V25.5H147V23.5H149V25.5H150C151.1 25.5 152 26.4 152 27.5ZM136 29.5H150V27.5H136V29.5ZM150 41.5V31.5H136V41.5H150ZM146 34.5H148V32.5H146V34.5ZM142 34.5H144V32.5H142V34.5Z" fill="black"/>
</g>
<g clip-path="url(#clip3_3319_9286)">
<path d="M231 23.5H219C217.9 23.5 217 24.4 217 25.5V41.5C217 42.6 217.9 43.5 219 43.5H231C232.1 43.5 233 42.6 233 41.5V25.5C233 24.4 232.1 23.5 231 23.5ZM222 25.5H224V30.5L223 29.75L222 30.5V25.5ZM231 41.5H219V25.5H220V34.5L223 32.25L226 34.5V25.5H231V41.5Z" fill="black"/>
</g>
<g clip-path="url(#clip4_3319_9286)">
<path d="M307 27.5C308.1 27.5 309 28.4 309 29.5C309 30.6 308.1 31.5 307 31.5C305.9 31.5 305 30.6 305 29.5C305 28.4 305.9 27.5 307 27.5ZM307 37.5C309.7 37.5 312.8 38.79 313 39.5H301C301.23 38.78 304.31 37.5 307 37.5ZM307 25.5C304.79 25.5 303 27.29 303 29.5C303 31.71 304.79 33.5 307 33.5C309.21 33.5 311 31.71 311 29.5C311 27.29 309.21 25.5 307 25.5ZM307 35.5C304.33 35.5 299 36.84 299 39.5V41.5H315V39.5C315 36.84 309.67 35.5 307 35.5Z" fill="black"/>
</g>
</g>
</g>
<defs>
<filter id="filter0_d_3319_9286" x="0" y="0" width="368" height="63" filterUnits="userSpaceOnUse" color-interpolation-filters="sRGB">
<feFlood flood-opacity="0" result="BackgroundImageFix"/>
<feColorMatrix in="SourceAlpha" type="matrix" values="0 0 0 0 0 0 0 0 0 0 0 0 0 0 0 0 0 0 127 0" result="hardAlpha"/>
<feOffset dy="-2"/>
<feGaussianBlur stdDeviation="2"/>
<feComposite in2="hardAlpha" operator="out"/>
<feColorMatrix type="matrix" values="0 0 0 0 0 0 0 0 0 0 0 0 0 0 0 0 0 0 0.25 0"/>
<feBlend mode="normal" in2="BackgroundImageFix" result="effect1_dropShadow_3319_9286"/>
<feBlend mode="normal" in="SourceGraphic" in2="effect1_dropShadow_3319_9286" result="shape"/>
</filter>
<clipPath id="clip0_3319_9286">
<path d="M4 22C4 13.1634 11.1634 6 20 6H348C356.837 6 364 13.1634 364 22V61H4V22Z" fill="white"/>
</clipPath>
<clipPath id="clip1_3319_9286">
<rect width="24" height="24" fill="white" transform="translate(49 15.8369)"/>
</clipPath>
<clipPath id="clip2_3319_9286">
<rect width="24" height="24" fill="white" transform="translate(131 21.5)"/>
</clipPath>
<clipPath id="clip3_3319_9286">
<rect width="24" height="24" fill="white" transform="translate(213 21.5)"/>
</clipPath>
<clipPath id="clip4_3319_9286">
<rect width="24" height="24" fill="white" transform="translate(295 21.5)"/>
</clipPath>
</defs>
</svg>
