<svg width="181" height="228" viewBox="0 0 181 228" fill="none" xmlns="http://www.w3.org/2000/svg">
<g filter="url(#filter0_d_3319_9401)">
<path d="M3 16C3 7.16344 10.1634 0 19 0H160C168.837 0 176 7.16344 176 16V204C176 212.837 168.837 220 160 220H19C10.1634 220 3 212.837 3 204V16Z" fill="#FFFBF1" shape-rendering="crispEdges"/>
<path d="M19 0.5H160C168.56 0.5 175.5 7.43959 175.5 16V204C175.5 212.56 168.56 219.5 160 219.5H19C10.4396 219.5 3.5 212.56 3.5 204V16C3.5 7.43959 10.4396 0.5 19 0.5Z" stroke="#76746F" stroke-opacity="0.4" shape-rendering="crispEdges"/>
<path d="M25.208 20.8C26.1893 20.8 26.9307 21.04 27.432 21.52C27.944 22 28.2 22.6987 28.2 23.616C28.2 24.096 28.0827 24.5333 27.848 24.928C27.624 25.312 27.288 25.616 26.84 25.84C26.4027 26.064 25.8533 26.1813 25.192 26.192L25.224 25.6C25.576 25.6 25.9547 25.648 26.36 25.744C26.776 25.84 27.1653 26.0053 27.528 26.24C27.8907 26.4747 28.1893 26.7947 28.424 27.2C28.6587 27.5947 28.776 28.0907 28.776 28.688C28.776 29.3387 28.6693 29.8827 28.456 30.32C28.2427 30.7467 27.96 31.0827 27.608 31.328C27.256 31.5733 26.8667 31.7493 26.44 31.856C26.024 31.952 25.6133 32 25.208 32H21.112C20.888 32 20.696 31.9253 20.536 31.776C20.376 31.616 20.296 31.4187 20.296 31.184V21.616C20.296 21.3813 20.376 21.1893 20.536 21.04C20.696 20.88 20.888 20.8 21.112 20.8H25.208ZM24.984 22.368H21.832L22.024 22.112V25.552L21.848 25.376H25.016C25.4 25.3653 25.736 25.2373 26.024 24.992C26.3227 24.736 26.472 24.3627 26.472 23.872C26.472 23.3707 26.3387 22.9973 26.072 22.752C25.8053 22.496 25.4427 22.368 24.984 22.368ZM25.096 26.944H21.912L22.024 26.832V30.608L21.896 30.464H25.192C25.7467 30.464 26.1947 30.32 26.536 30.032C26.8773 29.7333 27.048 29.2853 27.048 28.688C27.048 28.1867 26.9467 27.8133 26.744 27.568C26.5413 27.3227 26.2907 27.1573 25.992 27.072C25.6933 26.9867 25.3947 26.944 25.096 26.944ZM32.1099 31.184C32.1099 31.4187 32.0299 31.616 31.8699 31.776C31.7205 31.9253 31.5339 32 31.3099 32C31.0859 32 30.8939 31.9253 30.7339 31.776C30.5845 31.616 30.5099 31.4187 30.5099 31.184V20.976C30.5099 20.7413 30.5899 20.5493 30.7499 20.4C30.9099 20.24 31.1019 20.16 31.3259 20.16C31.5605 20.16 31.7472 20.24 31.8859 20.4C32.0352 20.5493 32.1099 20.7413 32.1099 20.976V31.184ZM42.239 27.792C42.239 28.6453 42.0523 29.4027 41.679 30.064C41.3057 30.7147 40.799 31.2267 40.159 31.6C39.519 31.9733 38.799 32.16 37.999 32.16C37.199 32.16 36.479 31.9733 35.839 31.6C35.199 31.2267 34.687 30.7147 34.303 30.064C33.9297 29.4027 33.743 28.6453 33.743 27.792C33.743 26.928 33.9297 26.1707 34.303 25.52C34.687 24.8587 35.199 24.3413 35.839 23.968C36.479 23.584 37.199 23.392 37.999 23.392C38.799 23.392 39.519 23.584 40.159 23.968C40.799 24.3413 41.3057 24.8587 41.679 25.52C42.0523 26.1707 42.239 26.928 42.239 27.792ZM40.639 27.792C40.639 27.2053 40.5217 26.6987 40.287 26.272C40.0523 25.8347 39.7323 25.4933 39.327 25.248C38.9323 24.992 38.4897 24.864 37.999 24.864C37.5083 24.864 37.0603 24.992 36.655 25.248C36.2497 25.4933 35.9297 25.8347 35.695 26.272C35.4603 26.6987 35.343 27.2053 35.343 27.792C35.343 28.3573 35.4603 28.8587 35.695 29.296C35.9297 29.7333 36.2497 30.0747 36.655 30.32C37.0603 30.5653 37.5083 30.688 37.999 30.688C38.4897 30.688 38.9323 30.5653 39.327 30.32C39.7323 30.0747 40.0523 29.7333 40.287 29.296C40.5217 28.8587 40.639 28.3573 40.639 27.792ZM50.786 23.552C51.0207 23.552 51.2127 23.632 51.362 23.792C51.5113 23.9413 51.586 24.1333 51.586 24.368V34.384C51.586 34.6187 51.5113 34.8107 51.362 34.96C51.2127 35.12 51.0207 35.2 50.786 35.2C50.562 35.2 50.37 35.12 50.21 34.96C50.0607 34.8107 49.986 34.6187 49.986 34.384V30.032L50.322 30.048C50.322 30.24 50.242 30.4587 50.082 30.704C49.9327 30.9387 49.7247 31.168 49.458 31.392C49.1913 31.616 48.8767 31.8027 48.514 31.952C48.1513 32.0907 47.762 32.16 47.346 32.16C46.61 32.16 45.9487 31.9733 45.362 31.6C44.7753 31.216 44.3113 30.6987 43.97 30.048C43.6287 29.3867 43.458 28.6293 43.458 27.776C43.458 26.9227 43.6287 26.1707 43.97 25.52C44.3113 24.8587 44.77 24.3413 45.346 23.968C45.9327 23.584 46.5833 23.392 47.298 23.392C47.746 23.392 48.162 23.4667 48.546 23.616C48.9407 23.7653 49.282 23.9573 49.57 24.192C49.858 24.4267 50.082 24.6773 50.242 24.944C50.402 25.2 50.482 25.4453 50.482 25.68L49.986 25.728V24.368C49.986 24.144 50.0607 23.952 50.21 23.792C50.37 23.632 50.562 23.552 50.786 23.552ZM47.522 30.688C48.034 30.688 48.4767 30.56 48.85 30.304C49.234 30.048 49.5327 29.7013 49.746 29.264C49.9593 28.8267 50.066 28.3307 50.066 27.776C50.066 27.2213 49.9593 26.7253 49.746 26.288C49.5327 25.8507 49.234 25.504 48.85 25.248C48.466 24.992 48.0233 24.864 47.522 24.864C47.0313 24.864 46.594 24.992 46.21 25.248C45.8367 25.504 45.538 25.8507 45.314 26.288C45.1007 26.7253 44.994 27.2213 44.994 27.776C44.994 28.3307 45.1007 28.8267 45.314 29.264C45.538 29.7013 45.8367 30.048 46.21 30.304C46.594 30.56 47.0313 30.688 47.522 30.688ZM59.9395 23.584C60.1635 23.584 60.3502 23.664 60.4995 23.824C60.6595 23.9733 60.7395 24.1653 60.7395 24.4V28.608C60.7395 29.7173 60.4302 30.5867 59.8115 31.216C59.1928 31.8347 58.3182 32.144 57.1875 32.144C56.0675 32.144 55.1982 31.8347 54.5795 31.216C53.9715 30.5867 53.6675 29.7173 53.6675 28.608V24.4C53.6675 24.1653 53.7422 23.9733 53.8915 23.824C54.0408 23.664 54.2328 23.584 54.4675 23.584C54.6915 23.584 54.8782 23.664 55.0275 23.824C55.1875 23.9733 55.2675 24.1653 55.2675 24.4V28.608C55.2675 29.3013 55.4275 29.8187 55.7475 30.16C56.0782 30.5013 56.5582 30.672 57.1875 30.672C57.8275 30.672 58.3128 30.5013 58.6435 30.16C58.9742 29.8187 59.1395 29.3013 59.1395 28.608V24.4C59.1395 24.1653 59.2142 23.9733 59.3635 23.824C59.5128 23.664 59.7048 23.584 59.9395 23.584ZM66.7244 32.16C65.839 32.16 65.071 31.9787 64.4204 31.616C63.7697 31.2427 63.263 30.736 62.9004 30.096C62.5484 29.4453 62.3724 28.704 62.3724 27.872C62.3724 26.9333 62.559 26.1333 62.9324 25.472C63.3164 24.8 63.8124 24.288 64.4204 23.936C65.0284 23.5733 65.6737 23.392 66.3564 23.392C66.879 23.392 67.375 23.4987 67.8444 23.712C68.3137 23.9147 68.7297 24.2027 69.0924 24.576C69.4657 24.9387 69.759 25.3707 69.9724 25.872C70.1857 26.3627 70.2977 26.9013 70.3084 27.488C70.2977 27.7013 70.2124 27.8773 70.0524 28.016C69.8924 28.1547 69.7057 28.224 69.4924 28.224H63.2684L62.8844 26.864H68.9004L68.5964 27.152V26.752C68.575 26.3787 68.4524 26.0533 68.2284 25.776C68.0044 25.488 67.727 25.2693 67.3964 25.12C67.0657 24.96 66.719 24.88 66.3564 24.88C66.0364 24.88 65.727 24.9333 65.4284 25.04C65.1404 25.136 64.879 25.296 64.6444 25.52C64.4204 25.744 64.239 26.0427 64.1004 26.416C63.9724 26.7787 63.9084 27.232 63.9084 27.776C63.9084 28.3627 64.031 28.8747 64.2764 29.312C64.5217 29.7493 64.8524 30.0907 65.2684 30.336C65.6844 30.5707 66.143 30.688 66.6444 30.688C67.039 30.688 67.3644 30.6507 67.6204 30.576C67.8764 30.4907 68.0897 30.3893 68.2604 30.272C68.431 30.1547 68.5804 30.0427 68.7084 29.936C68.8684 29.84 69.0284 29.792 69.1884 29.792C69.3804 29.792 69.5404 29.8613 69.6684 30C69.7964 30.128 69.8604 30.2827 69.8604 30.464C69.8604 30.6987 69.743 30.912 69.5084 31.104C69.2204 31.3813 68.8204 31.6267 68.3084 31.84C67.807 32.0533 67.279 32.16 66.7244 32.16ZM71.4609 30.688C71.3649 30.5387 71.3222 30.368 71.3329 30.176C71.3435 29.9733 71.4555 29.8027 71.6689 29.664C71.8182 29.568 71.9729 29.5307 72.1329 29.552C72.3035 29.5627 72.4635 29.6427 72.6129 29.792C72.9115 30.1227 73.2422 30.384 73.6049 30.576C73.9782 30.768 74.4262 30.864 74.9489 30.864C75.1622 30.8533 75.3809 30.8213 75.6049 30.768C75.8289 30.704 76.0209 30.5973 76.1809 30.448C76.3409 30.288 76.4209 30.0587 76.4209 29.76C76.4209 29.4933 76.3355 29.28 76.1649 29.12C75.9942 28.96 75.7702 28.832 75.4929 28.736C75.2155 28.6293 74.9169 28.5333 74.5969 28.448C74.2555 28.352 73.9089 28.2453 73.5569 28.128C73.2155 28.0107 72.9062 27.8613 72.6289 27.68C72.3515 27.488 72.1222 27.2427 71.9409 26.944C71.7702 26.6453 71.6849 26.2773 71.6849 25.84C71.6849 25.3387 71.8235 24.9067 72.1009 24.544C72.3889 24.1813 72.7569 23.8987 73.2049 23.696C73.6635 23.4933 74.1595 23.392 74.6929 23.392C75.0022 23.392 75.3275 23.4347 75.6689 23.52C76.0102 23.5947 76.3409 23.7173 76.6609 23.888C76.9809 24.0587 77.2582 24.2827 77.4929 24.56C77.5995 24.6987 77.6582 24.864 77.6689 25.056C77.6902 25.248 77.6049 25.4187 77.4129 25.568C77.2849 25.6747 77.1302 25.7227 76.9489 25.712C76.7675 25.7013 76.6182 25.6427 76.5009 25.536C76.2982 25.28 76.0369 25.0827 75.7169 24.944C75.3969 24.7947 75.0342 24.72 74.6289 24.72C74.4262 24.72 74.2129 24.752 73.9889 24.816C73.7755 24.8693 73.5942 24.9707 73.4449 25.12C73.2955 25.2693 73.2209 25.488 73.2209 25.776C73.2209 26.0427 73.3062 26.256 73.4769 26.416C73.6582 26.576 73.8929 26.7093 74.1809 26.816C74.4689 26.9227 74.7835 27.0187 75.1249 27.104C75.4555 27.1893 75.7809 27.2907 76.1009 27.408C76.4315 27.5253 76.7249 27.68 76.9809 27.872C77.2475 28.0533 77.4609 28.2933 77.6209 28.592C77.7915 28.88 77.8769 29.248 77.8769 29.696C77.8769 30.2187 77.7222 30.6667 77.4129 31.04C77.1142 31.4027 76.7302 31.68 76.2609 31.872C75.8022 32.064 75.3169 32.16 74.8049 32.16C74.1969 32.16 73.5889 32.0533 72.9809 31.84C72.3835 31.616 71.8769 31.232 71.4609 30.688ZM83.2346 30.688C83.1386 30.5387 83.096 30.368 83.1066 30.176C83.1173 29.9733 83.2293 29.8027 83.4426 29.664C83.592 29.568 83.7466 29.5307 83.9066 29.552C84.0773 29.5627 84.2373 29.6427 84.3866 29.792C84.6853 30.1227 85.016 30.384 85.3786 30.576C85.752 30.768 86.2 30.864 86.7226 30.864C86.936 30.8533 87.1546 30.8213 87.3786 30.768C87.6026 30.704 87.7946 30.5973 87.9546 30.448C88.1146 30.288 88.1946 30.0587 88.1946 29.76C88.1946 29.4933 88.1093 29.28 87.9386 29.12C87.768 28.96 87.544 28.832 87.2666 28.736C86.9893 28.6293 86.6906 28.5333 86.3706 28.448C86.0293 28.352 85.6826 28.2453 85.3306 28.128C84.9893 28.0107 84.68 27.8613 84.4026 27.68C84.1253 27.488 83.896 27.2427 83.7146 26.944C83.544 26.6453 83.4586 26.2773 83.4586 25.84C83.4586 25.3387 83.5973 24.9067 83.8746 24.544C84.1626 24.1813 84.5306 23.8987 84.9786 23.696C85.4373 23.4933 85.9333 23.392 86.4666 23.392C86.776 23.392 87.1013 23.4347 87.4426 23.52C87.784 23.5947 88.1146 23.7173 88.4346 23.888C88.7546 24.0587 89.032 24.2827 89.2666 24.56C89.3733 24.6987 89.432 24.864 89.4426 25.056C89.464 25.248 89.3786 25.4187 89.1866 25.568C89.0586 25.6747 88.904 25.7227 88.7226 25.712C88.5413 25.7013 88.392 25.6427 88.2746 25.536C88.072 25.28 87.8106 25.0827 87.4906 24.944C87.1706 24.7947 86.808 24.72 86.4026 24.72C86.2 24.72 85.9866 24.752 85.7626 24.816C85.5493 24.8693 85.368 24.9707 85.2186 25.12C85.0693 25.2693 84.9946 25.488 84.9946 25.776C84.9946 26.0427 85.08 26.256 85.2506 26.416C85.432 26.576 85.6666 26.7093 85.9546 26.816C86.2426 26.9227 86.5573 27.0187 86.8986 27.104C87.2293 27.1893 87.5546 27.2907 87.8746 27.408C88.2053 27.5253 88.4986 27.68 88.7546 27.872C89.0213 28.0533 89.2346 28.2933 89.3946 28.592C89.5653 28.88 89.6506 29.248 89.6506 29.696C89.6506 30.2187 89.496 30.6667 89.1866 31.04C88.888 31.4027 88.504 31.68 88.0346 31.872C87.576 32.064 87.0906 32.16 86.5786 32.16C85.9706 32.16 85.3626 32.0533 84.7546 31.84C84.1573 31.616 83.6506 31.232 83.2346 30.688ZM92.7152 31.184C92.7152 31.4187 92.6406 31.616 92.4912 31.776C92.3419 31.9253 92.1499 32 91.9152 32C91.6912 32 91.4992 31.9253 91.3392 31.776C91.1899 31.616 91.1152 31.4187 91.1152 31.184V24.336C91.1152 24.1013 91.1899 23.9093 91.3392 23.76C91.4992 23.6 91.6912 23.52 91.9152 23.52C92.1499 23.52 92.3419 23.6 92.4912 23.76C92.6406 23.9093 92.7152 24.1013 92.7152 24.336V31.184ZM91.8992 22.464C91.5899 22.464 91.3659 22.4107 91.2272 22.304C91.0886 22.1867 91.0192 21.9947 91.0192 21.728V21.472C91.0192 21.2053 91.0939 21.0187 91.2432 20.912C91.3926 20.8053 91.6166 20.752 91.9152 20.752C92.2352 20.752 92.4646 20.8107 92.6032 20.928C92.7419 21.0347 92.8112 21.216 92.8112 21.472V21.728C92.8112 22.0053 92.7366 22.1973 92.5872 22.304C92.4486 22.4107 92.2192 22.464 91.8992 22.464ZM98.9315 23.44C99.7208 23.44 100.329 23.6373 100.756 24.032C101.182 24.416 101.465 24.9387 101.604 25.6L101.348 25.52L101.46 25.264C101.598 24.9867 101.806 24.7093 102.084 24.432C102.372 24.144 102.713 23.9093 103.108 23.728C103.502 23.536 103.924 23.44 104.372 23.44C105.108 23.44 105.678 23.6 106.084 23.92C106.489 24.2293 106.772 24.6507 106.932 25.184C107.092 25.7067 107.172 26.2933 107.172 26.944V31.184C107.172 31.4187 107.097 31.616 106.948 31.776C106.798 31.9253 106.606 32 106.372 32C106.148 32 105.956 31.9253 105.796 31.776C105.646 31.616 105.572 31.4187 105.572 31.184V26.96C105.572 26.5867 105.518 26.2453 105.412 25.936C105.316 25.6267 105.14 25.3813 104.884 25.2C104.638 25.008 104.297 24.912 103.86 24.912C103.444 24.912 103.07 25.008 102.74 25.2C102.42 25.3813 102.169 25.6267 101.988 25.936C101.806 26.2453 101.716 26.5867 101.716 26.96V31.184C101.716 31.4187 101.641 31.616 101.492 31.776C101.342 31.9253 101.15 32 100.916 32C100.681 32 100.489 31.9253 100.34 31.776C100.19 31.616 100.116 31.4187 100.116 31.184V26.944C100.116 26.5707 100.062 26.2293 99.9555 25.92C99.8595 25.6107 99.6888 25.3653 99.4435 25.184C99.1982 25.0027 98.8568 24.912 98.4195 24.912C98.0035 24.912 97.6355 25.0027 97.3155 25.184C96.9955 25.3653 96.7448 25.6107 96.5635 25.92C96.3928 26.2293 96.3075 26.5707 96.3075 26.944V31.184C96.3075 31.4187 96.2275 31.616 96.0675 31.776C95.9182 31.9253 95.7315 32 95.5075 32C95.2728 32 95.0808 31.9253 94.9315 31.776C94.7822 31.616 94.7075 31.4187 94.7075 31.184V24.4C94.7075 24.1653 94.7822 23.9733 94.9315 23.824C95.0808 23.664 95.2728 23.584 95.5075 23.584C95.7315 23.584 95.9182 23.664 96.0675 23.824C96.2275 23.9733 96.3075 24.1653 96.3075 24.4V25.344L96.0035 25.52C96.0782 25.2853 96.2008 25.0453 96.3715 24.8C96.5422 24.5547 96.7555 24.3307 97.0115 24.128C97.2782 23.9253 97.5715 23.76 97.8915 23.632C98.2115 23.504 98.5582 23.44 98.9315 23.44ZM113.491 23.44C114.237 23.44 114.899 23.6267 115.475 24C116.061 24.3733 116.525 24.8853 116.867 25.536C117.208 26.176 117.379 26.9227 117.379 27.776C117.379 28.6293 117.208 29.3867 116.867 30.048C116.525 30.6987 116.067 31.2107 115.491 31.584C114.915 31.9573 114.264 32.144 113.539 32.144C113.133 32.144 112.749 32.08 112.387 31.952C112.024 31.824 111.704 31.6587 111.427 31.456C111.149 31.2427 110.92 31.0187 110.739 30.784C110.568 30.5493 110.461 30.3307 110.419 30.128L110.851 29.92V34.384C110.851 34.6187 110.771 34.8107 110.611 34.96C110.461 35.12 110.275 35.2 110.051 35.2C109.816 35.2 109.624 35.12 109.475 34.96C109.325 34.8107 109.251 34.6187 109.251 34.384V24.368C109.251 24.144 109.325 23.952 109.475 23.792C109.624 23.632 109.816 23.552 110.051 23.552C110.275 23.552 110.461 23.632 110.611 23.792C110.771 23.952 110.851 24.144 110.851 24.368V25.472L110.595 25.328C110.627 25.1253 110.728 24.9173 110.899 24.704C111.069 24.48 111.283 24.272 111.539 24.08C111.805 23.888 112.104 23.7333 112.435 23.616C112.776 23.4987 113.128 23.44 113.491 23.44ZM113.315 24.912C112.803 24.912 112.355 25.04 111.971 25.296C111.597 25.5413 111.304 25.8773 111.091 26.304C110.877 26.7307 110.771 27.2213 110.771 27.776C110.771 28.32 110.877 28.816 111.091 29.264C111.304 29.7013 111.597 30.048 111.971 30.304C112.355 30.5493 112.803 30.672 113.315 30.672C113.816 30.672 114.253 30.5493 114.627 30.304C115 30.048 115.293 29.7013 115.507 29.264C115.731 28.816 115.843 28.32 115.843 27.776C115.843 27.232 115.731 26.7467 115.507 26.32C115.293 25.8827 115 25.5413 114.627 25.296C114.253 25.04 113.816 24.912 113.315 24.912ZM120.756 31.184C120.756 31.4187 120.676 31.616 120.516 31.776C120.367 31.9253 120.18 32 119.956 32C119.732 32 119.54 31.9253 119.38 31.776C119.231 31.616 119.156 31.4187 119.156 31.184V20.976C119.156 20.7413 119.236 20.5493 119.396 20.4C119.556 20.24 119.748 20.16 119.972 20.16C120.207 20.16 120.393 20.24 120.532 20.4C120.681 20.5493 120.756 20.7413 120.756 20.976V31.184ZM126.741 32.16C125.856 32.16 125.088 31.9787 124.437 31.616C123.787 31.2427 123.28 30.736 122.917 30.096C122.565 29.4453 122.389 28.704 122.389 27.872C122.389 26.9333 122.576 26.1333 122.949 25.472C123.333 24.8 123.829 24.288 124.437 23.936C125.045 23.5733 125.691 23.392 126.373 23.392C126.896 23.392 127.392 23.4987 127.861 23.712C128.331 23.9147 128.747 24.2027 129.109 24.576C129.483 24.9387 129.776 25.3707 129.989 25.872C130.203 26.3627 130.315 26.9013 130.325 27.488C130.315 27.7013 130.229 27.8773 130.069 28.016C129.909 28.1547 129.723 28.224 129.509 28.224H123.285L122.901 26.864H128.917L128.613 27.152V26.752C128.592 26.3787 128.469 26.0533 128.245 25.776C128.021 25.488 127.744 25.2693 127.413 25.12C127.083 24.96 126.736 24.88 126.373 24.88C126.053 24.88 125.744 24.9333 125.445 25.04C125.157 25.136 124.896 25.296 124.661 25.52C124.437 25.744 124.256 26.0427 124.117 26.416C123.989 26.7787 123.925 27.232 123.925 27.776C123.925 28.3627 124.048 28.8747 124.293 29.312C124.539 29.7493 124.869 30.0907 125.285 30.336C125.701 30.5707 126.16 30.688 126.661 30.688C127.056 30.688 127.381 30.6507 127.637 30.576C127.893 30.4907 128.107 30.3893 128.277 30.272C128.448 30.1547 128.597 30.0427 128.725 29.936C128.885 29.84 129.045 29.792 129.205 29.792C129.397 29.792 129.557 29.8613 129.685 30C129.813 30.128 129.877 30.2827 129.877 30.464C129.877 30.6987 129.76 30.912 129.525 31.104C129.237 31.3813 128.837 31.6267 128.325 31.84C127.824 32.0533 127.296 32.16 126.741 32.16ZM131.478 30.688C131.382 30.5387 131.339 30.368 131.35 30.176C131.36 29.9733 131.472 29.8027 131.686 29.664C131.835 29.568 131.99 29.5307 132.15 29.552C132.32 29.5627 132.48 29.6427 132.63 29.792C132.928 30.1227 133.259 30.384 133.622 30.576C133.995 30.768 134.443 30.864 134.966 30.864C135.179 30.8533 135.398 30.8213 135.622 30.768C135.846 30.704 136.038 30.5973 136.198 30.448C136.358 30.288 136.438 30.0587 136.438 29.76C136.438 29.4933 136.352 29.28 136.182 29.12C136.011 28.96 135.787 28.832 135.51 28.736C135.232 28.6293 134.934 28.5333 134.614 28.448C134.272 28.352 133.926 28.2453 133.574 28.128C133.232 28.0107 132.923 27.8613 132.646 27.68C132.368 27.488 132.139 27.2427 131.958 26.944C131.787 26.6453 131.702 26.2773 131.702 25.84C131.702 25.3387 131.84 24.9067 132.118 24.544C132.406 24.1813 132.774 23.8987 133.222 23.696C133.68 23.4933 134.176 23.392 134.71 23.392C135.019 23.392 135.344 23.4347 135.686 23.52C136.027 23.5947 136.358 23.7173 136.678 23.888C136.998 24.0587 137.275 24.2827 137.51 24.56C137.616 24.6987 137.675 24.864 137.686 25.056C137.707 25.248 137.622 25.4187 137.43 25.568C137.302 25.6747 137.147 25.7227 136.966 25.712C136.784 25.7013 136.635 25.6427 136.518 25.536C136.315 25.28 136.054 25.0827 135.734 24.944C135.414 24.7947 135.051 24.72 134.646 24.72C134.443 24.72 134.23 24.752 134.006 24.816C133.792 24.8693 133.611 24.9707 133.462 25.12C133.312 25.2693 133.238 25.488 133.238 25.776C133.238 26.0427 133.323 26.256 133.494 26.416C133.675 26.576 133.91 26.7093 134.198 26.816C134.486 26.9227 134.8 27.0187 135.142 27.104C135.472 27.1893 135.798 27.2907 136.118 27.408C136.448 27.5253 136.742 27.68 136.998 27.872C137.264 28.0533 137.478 28.2933 137.638 28.592C137.808 28.88 137.894 29.248 137.894 29.696C137.894 30.2187 137.739 30.6667 137.43 31.04C137.131 31.4027 136.747 31.68 136.278 31.872C135.819 32.064 135.334 32.16 134.822 32.16C134.214 32.16 133.606 32.0533 132.998 31.84C132.4 31.616 131.894 31.232 131.478 30.688Z" fill="#4B4A47"/>
<rect x="19.5" y="52.5" width="31" height="31" rx="3.5" fill="#FFFBF1"/>
<rect x="19.5" y="52.5" width="31" height="31" rx="3.5" stroke="#76746F"/>
<g clip-path="url(#clip0_3319_9401)">
<path d="M28 60V63H33.5V75H36.5V63H42V60H28Z" fill="#4B4A47"/>
</g>
<path d="M63.88 74C63.688 74 63.528 73.936 63.4 73.808C63.272 73.68 63.208 73.5253 63.208 73.344V63.456H64.568V73.344C64.568 73.5253 64.504 73.68 64.376 73.808C64.248 73.936 64.0827 74 63.88 74ZM60.168 64.016C59.9867 64.016 59.832 63.9627 59.704 63.856C59.5867 63.7387 59.528 63.5893 59.528 63.408C59.528 63.2267 59.5867 63.0827 59.704 62.976C59.832 62.8587 59.9867 62.8 60.168 62.8H67.608C67.7893 62.8 67.944 62.8587 68.072 62.976C68.2 63.0827 68.264 63.2267 68.264 63.408C68.264 63.6 68.2 63.7493 68.072 63.856C67.944 63.9627 67.7893 64.016 67.608 64.016H60.168ZM71.0373 73.344C71.0373 73.5253 70.9733 73.68 70.8453 73.808C70.7279 73.936 70.5786 74 70.3973 74C70.2053 74 70.0506 73.936 69.9333 73.808C69.8159 73.68 69.7573 73.5253 69.7573 73.344V66.24C69.7573 66.0587 69.8159 65.9093 69.9333 65.792C70.0613 65.664 70.2159 65.6 70.3973 65.6C70.5786 65.6 70.7279 65.664 70.8453 65.792C70.9733 65.9093 71.0373 66.0587 71.0373 66.24V73.344ZM70.3973 64.528C70.1306 64.528 69.9333 64.4747 69.8053 64.368C69.6773 64.2613 69.6133 64.096 69.6133 63.872V63.648C69.6133 63.424 69.6826 63.2587 69.8213 63.152C69.9599 63.0453 70.1573 62.992 70.4133 62.992C70.6693 62.992 70.8613 63.0453 70.9893 63.152C71.1173 63.2587 71.1813 63.424 71.1813 63.648V63.872C71.1813 64.096 71.1119 64.2613 70.9733 64.368C70.8453 64.4747 70.6533 64.528 70.3973 64.528ZM72.8565 65.776H76.6165C76.7872 65.776 76.9258 65.8347 77.0325 65.952C77.1498 66.0693 77.2085 66.208 77.2085 66.368C77.2085 66.5387 77.1498 66.6827 77.0325 66.8C76.9258 66.9067 76.7872 66.96 76.6165 66.96H72.8565C72.6965 66.96 72.5578 66.9013 72.4405 66.784C72.3232 66.6667 72.2645 66.5227 72.2645 66.352C72.2645 66.192 72.3232 66.0587 72.4405 65.952C72.5578 65.8347 72.6965 65.776 72.8565 65.776ZM74.5365 63.6C74.7178 63.6 74.8672 63.664 74.9845 63.792C75.1018 63.9093 75.1605 64.0587 75.1605 64.24V71.968C75.1605 72.224 75.1978 72.416 75.2725 72.544C75.3472 72.672 75.4432 72.7627 75.5605 72.816C75.6885 72.8587 75.8112 72.88 75.9285 72.88C76.0352 72.88 76.1258 72.864 76.2005 72.832C76.2858 72.7893 76.3818 72.768 76.4885 72.768C76.5952 72.768 76.6912 72.8213 76.7765 72.928C76.8725 73.024 76.9205 73.152 76.9205 73.312C76.9205 73.504 76.8085 73.6693 76.5845 73.808C76.3605 73.936 76.1098 74 75.8325 74C75.6832 74 75.4965 73.9893 75.2725 73.968C75.0592 73.9467 74.8458 73.8773 74.6325 73.76C74.4192 73.6427 74.2378 73.4507 74.0885 73.184C73.9498 72.9067 73.8805 72.5227 73.8805 72.032V64.24C73.8805 64.0587 73.9445 63.9093 74.0725 63.792C74.2005 63.664 74.3552 63.6 74.5365 63.6ZM79.469 74C79.2877 74 79.133 73.936 79.005 73.808C78.8877 73.68 78.829 73.5253 78.829 73.344V66.368C78.829 66.1867 78.8877 66.0373 79.005 65.92C79.133 65.792 79.2877 65.728 79.469 65.728C79.661 65.728 79.8157 65.792 79.933 65.92C80.0503 66.0373 80.109 66.1867 80.109 66.368V68.48L79.917 68.144C79.981 67.8133 80.093 67.4933 80.253 67.184C80.4237 66.864 80.637 66.5813 80.893 66.336C81.149 66.08 81.4423 65.8827 81.773 65.744C82.1037 65.5947 82.4663 65.52 82.861 65.52C83.0957 65.52 83.309 65.5787 83.501 65.696C83.7037 65.8027 83.805 65.9573 83.805 66.16C83.805 66.384 83.7463 66.5493 83.629 66.656C83.5117 66.7627 83.3783 66.816 83.229 66.816C83.0903 66.816 82.957 66.7893 82.829 66.736C82.701 66.672 82.541 66.64 82.349 66.64C82.0823 66.64 81.8157 66.7147 81.549 66.864C81.293 67.0027 81.053 67.2053 80.829 67.472C80.6157 67.7387 80.4397 68.0427 80.301 68.384C80.173 68.7147 80.109 69.072 80.109 69.456V73.344C80.109 73.5253 80.045 73.68 79.917 73.808C79.7997 73.936 79.6503 74 79.469 74ZM88.5555 74.16C87.7022 74.16 86.9555 73.9787 86.3155 73.616C85.6755 73.2533 85.1742 72.7573 84.8115 72.128C84.4595 71.488 84.2835 70.752 84.2835 69.92C84.2835 68.992 84.4648 68.2027 84.8275 67.552C85.2008 66.8907 85.6808 66.3893 86.2675 66.048C86.8648 65.696 87.4942 65.52 88.1555 65.52C88.6462 65.52 89.1208 65.6107 89.5795 65.792C90.0382 65.9733 90.4435 66.24 90.7955 66.592C91.1475 66.9333 91.4302 67.3493 91.6435 67.84C91.8568 68.32 91.9688 68.8587 91.9795 69.456C91.9795 69.6267 91.9155 69.7707 91.7875 69.888C91.6595 70.0053 91.5102 70.064 91.3395 70.064H85.0195L84.7315 68.96H90.8915L90.6355 69.184V68.832C90.5928 68.3947 90.4435 68.0213 90.1875 67.712C89.9422 67.392 89.6382 67.1467 89.2755 66.976C88.9235 66.8053 88.5502 66.72 88.1555 66.72C87.8355 66.72 87.5155 66.7787 87.1955 66.896C86.8862 67.0027 86.6035 67.184 86.3475 67.44C86.1022 67.6853 85.8995 68.0053 85.7395 68.4C85.5902 68.7947 85.5155 69.2693 85.5155 69.824C85.5155 70.4427 85.6382 70.9867 85.8835 71.456C86.1395 71.9253 86.4915 72.2987 86.9395 72.576C87.3875 72.8427 87.9102 72.976 88.5075 72.976C88.8808 72.976 89.2062 72.928 89.4835 72.832C89.7608 72.736 90.0008 72.6187 90.2035 72.48C90.4062 72.3307 90.5768 72.1813 90.7155 72.032C90.8542 71.936 90.9875 71.888 91.1155 71.888C91.2755 71.888 91.4035 71.9413 91.4995 72.048C91.6062 72.1547 91.6595 72.2827 91.6595 72.432C91.6595 72.6133 91.5742 72.7733 91.4035 72.912C91.1048 73.2427 90.6995 73.536 90.1875 73.792C89.6755 74.0373 89.1315 74.16 88.5555 74.16Z" fill="#4B4A47"/>
<rect x="19.5" y="92.5" width="31" height="31" rx="3.5" fill="#FFFBF1"/>
<rect x="19.5" y="92.5" width="31" height="31" rx="3.5" stroke="#76746F"/>
<g clip-path="url(#clip1_3319_9401)">
<path d="M25.5 100V103H30.5V115H33.5V103H38.5V100H25.5ZM44.5 105H35.5V108H38.5V115H41.5V108H44.5V105Z" fill="#4B4A47"/>
</g>
<path d="M64.792 102.8C65.3787 102.8 65.9067 102.944 66.376 103.232C66.8453 103.52 67.2133 103.915 67.48 104.416C67.7573 104.917 67.896 105.488 67.896 106.128C67.896 106.757 67.7573 107.328 67.48 107.84C67.2133 108.352 66.8453 108.757 66.376 109.056C65.9067 109.355 65.3787 109.504 64.792 109.504H61.544L61.656 109.312V113.344C61.656 113.525 61.5973 113.68 61.48 113.808C61.3627 113.936 61.2133 114 61.032 114C60.84 114 60.6853 113.936 60.568 113.808C60.4613 113.68 60.408 113.525 60.408 113.344V103.44C60.408 103.259 60.4667 103.109 60.584 102.992C60.712 102.864 60.8667 102.8 61.048 102.8H64.792ZM64.792 108.272C65.144 108.272 65.4533 108.176 65.72 107.984C65.9867 107.792 66.2 107.531 66.36 107.2C66.52 106.869 66.6 106.512 66.6 106.128C66.6 105.723 66.52 105.365 66.36 105.056C66.2 104.747 65.9867 104.501 65.72 104.32C65.4533 104.128 65.144 104.032 64.792 104.032H61.544L61.656 103.856V108.432L61.544 108.272H64.792ZM76.34 105.648C76.5213 105.648 76.6707 105.712 76.788 105.84C76.916 105.957 76.98 106.107 76.98 106.288V113.344C76.98 113.525 76.916 113.68 76.788 113.808C76.6707 113.936 76.5213 114 76.34 114C76.148 114 75.9933 113.936 75.876 113.808C75.7587 113.68 75.7 113.525 75.7 113.344V111.824L76.004 111.792C76.004 112.027 75.924 112.283 75.764 112.56C75.604 112.837 75.3853 113.099 75.108 113.344C74.8307 113.579 74.5 113.776 74.116 113.936C73.7427 114.085 73.3373 114.16 72.9 114.16C72.1747 114.16 71.524 113.973 70.948 113.6C70.372 113.216 69.9133 112.699 69.572 112.048C69.2413 111.397 69.076 110.656 69.076 109.824C69.076 108.981 69.2413 108.24 69.572 107.6C69.9133 106.949 70.372 106.443 70.948 106.08C71.524 105.707 72.164 105.52 72.868 105.52C73.3267 105.52 73.7533 105.595 74.148 105.744C74.5427 105.893 74.884 106.096 75.172 106.352C75.4707 106.608 75.7 106.891 75.86 107.2C76.0307 107.509 76.116 107.819 76.116 108.128L75.7 108.032V106.288C75.7 106.107 75.7587 105.957 75.876 105.84C75.9933 105.712 76.148 105.648 76.34 105.648ZM73.044 112.976C73.5773 112.976 74.0467 112.837 74.452 112.56C74.868 112.283 75.188 111.909 75.412 111.44C75.6467 110.96 75.764 110.421 75.764 109.824C75.764 109.237 75.6467 108.709 75.412 108.24C75.188 107.76 74.868 107.387 74.452 107.12C74.0467 106.843 73.5773 106.704 73.044 106.704C72.5213 106.704 72.052 106.837 71.636 107.104C71.2307 107.371 70.9107 107.739 70.676 108.208C70.4413 108.677 70.324 109.216 70.324 109.824C70.324 110.421 70.436 110.96 70.66 111.44C70.8947 111.909 71.2147 112.283 71.62 112.56C72.036 112.837 72.5107 112.976 73.044 112.976ZM79.8321 114C79.6508 114 79.4961 113.936 79.3681 113.808C79.2508 113.68 79.1921 113.525 79.1921 113.344V106.368C79.1921 106.187 79.2508 106.037 79.3681 105.92C79.4961 105.792 79.6508 105.728 79.8321 105.728C80.0241 105.728 80.1788 105.792 80.2961 105.92C80.4135 106.037 80.4721 106.187 80.4721 106.368V108.48L80.2801 108.144C80.3441 107.813 80.4561 107.493 80.6161 107.184C80.7868 106.864 81.0001 106.581 81.2561 106.336C81.5121 106.08 81.8055 105.883 82.1361 105.744C82.4668 105.595 82.8295 105.52 83.2241 105.52C83.4588 105.52 83.6721 105.579 83.8641 105.696C84.0668 105.803 84.1681 105.957 84.1681 106.16C84.1681 106.384 84.1095 106.549 83.9921 106.656C83.8748 106.763 83.7415 106.816 83.5921 106.816C83.4535 106.816 83.3201 106.789 83.1921 106.736C83.0641 106.672 82.9041 106.64 82.7121 106.64C82.4455 106.64 82.1788 106.715 81.9121 106.864C81.6561 107.003 81.4161 107.205 81.1921 107.472C80.9788 107.739 80.8028 108.043 80.6641 108.384C80.5361 108.715 80.4721 109.072 80.4721 109.456V113.344C80.4721 113.525 80.4081 113.68 80.2801 113.808C80.1628 113.936 80.0135 114 79.8321 114ZM92.0825 105.648C92.2638 105.648 92.4132 105.712 92.5305 105.84C92.6585 105.957 92.7225 106.107 92.7225 106.288V113.344C92.7225 113.525 92.6585 113.68 92.5305 113.808C92.4132 113.936 92.2638 114 92.0825 114C91.8905 114 91.7358 113.936 91.6185 113.808C91.5012 113.68 91.4425 113.525 91.4425 113.344V111.824L91.7465 111.792C91.7465 112.027 91.6665 112.283 91.5065 112.56C91.3465 112.837 91.1278 113.099 90.8505 113.344C90.5732 113.579 90.2425 113.776 89.8585 113.936C89.4852 114.085 89.0798 114.16 88.6425 114.16C87.9172 114.16 87.2665 113.973 86.6905 113.6C86.1145 113.216 85.6558 112.699 85.3145 112.048C84.9838 111.397 84.8185 110.656 84.8185 109.824C84.8185 108.981 84.9838 108.24 85.3145 107.6C85.6558 106.949 86.1145 106.443 86.6905 106.08C87.2665 105.707 87.9065 105.52 88.6105 105.52C89.0692 105.52 89.4958 105.595 89.8905 105.744C90.2852 105.893 90.6265 106.096 90.9145 106.352C91.2132 106.608 91.4425 106.891 91.6025 107.2C91.7732 107.509 91.8585 107.819 91.8585 108.128L91.4425 108.032V106.288C91.4425 106.107 91.5012 105.957 91.6185 105.84C91.7358 105.712 91.8905 105.648 92.0825 105.648ZM88.7865 112.976C89.3198 112.976 89.7892 112.837 90.1945 112.56C90.6105 112.283 90.9305 111.909 91.1545 111.44C91.3892 110.96 91.5065 110.421 91.5065 109.824C91.5065 109.237 91.3892 108.709 91.1545 108.24C90.9305 107.76 90.6105 107.387 90.1945 107.12C89.7892 106.843 89.3198 106.704 88.7865 106.704C88.2638 106.704 87.7945 106.837 87.3785 107.104C86.9732 107.371 86.6532 107.739 86.4185 108.208C86.1838 108.677 86.0665 109.216 86.0665 109.824C86.0665 110.421 86.1785 110.96 86.4025 111.44C86.6372 111.909 86.9572 112.283 87.3625 112.56C87.7785 112.837 88.2532 112.976 88.7865 112.976ZM98.4066 105.52C98.8653 105.52 99.292 105.6 99.6866 105.76C100.081 105.909 100.423 106.107 100.711 106.352C101.009 106.597 101.239 106.853 101.399 107.12C101.569 107.387 101.655 107.637 101.655 107.872L101.351 107.68V106.288C101.351 106.107 101.409 105.957 101.527 105.84C101.644 105.712 101.799 105.648 101.991 105.648C102.172 105.648 102.321 105.712 102.439 105.84C102.567 105.957 102.631 106.107 102.631 106.288V113.296C102.631 114.171 102.444 114.896 102.071 115.472C101.708 116.048 101.217 116.48 100.599 116.768C99.98 117.056 99.2866 117.2 98.5186 117.2C98.1986 117.2 97.8466 117.157 97.4626 117.072C97.0786 116.987 96.7373 116.88 96.4386 116.752C96.14 116.635 95.948 116.512 95.8626 116.384C95.7026 116.277 95.6013 116.155 95.5586 116.016C95.5266 115.888 95.5533 115.765 95.6386 115.648C95.7346 115.499 95.8573 115.424 96.0066 115.424C96.1666 115.424 96.364 115.472 96.5986 115.568C96.6946 115.6 96.844 115.653 97.0466 115.728C97.26 115.803 97.4946 115.867 97.7506 115.92C98.0173 115.984 98.2786 116.016 98.5346 116.016C99.4413 116.016 100.135 115.776 100.615 115.296C101.105 114.827 101.351 114.203 101.351 113.424V111.936L101.527 112.016C101.463 112.315 101.329 112.592 101.127 112.848C100.935 113.104 100.695 113.333 100.407 113.536C100.129 113.728 99.82 113.883 99.4786 114C99.1373 114.107 98.7906 114.16 98.4386 114.16C97.692 114.16 97.02 113.973 96.4226 113.6C95.8253 113.227 95.3506 112.715 94.9986 112.064C94.6573 111.413 94.4866 110.672 94.4866 109.84C94.4866 108.997 94.6573 108.251 94.9986 107.6C95.3506 106.949 95.82 106.443 96.4066 106.08C97.004 105.707 97.6706 105.52 98.4066 105.52ZM98.5666 106.704C98.0226 106.704 97.532 106.843 97.0946 107.12C96.668 107.387 96.332 107.755 96.0866 108.224C95.852 108.693 95.7346 109.232 95.7346 109.84C95.7346 110.427 95.852 110.96 96.0866 111.44C96.332 111.909 96.668 112.283 97.0946 112.56C97.532 112.837 98.0226 112.976 98.5666 112.976C99.1213 112.976 99.612 112.843 100.039 112.576C100.465 112.299 100.801 111.925 101.047 111.456C101.292 110.987 101.415 110.448 101.415 109.84C101.415 109.221 101.292 108.677 101.047 108.208C100.801 107.739 100.465 107.371 100.039 107.104C99.612 106.837 99.1213 106.704 98.5666 106.704ZM105.477 114C105.296 114 105.141 113.936 105.013 113.808C104.896 113.68 104.837 113.525 104.837 113.344V106.368C104.837 106.187 104.896 106.037 105.013 105.92C105.141 105.792 105.296 105.728 105.477 105.728C105.669 105.728 105.824 105.792 105.941 105.92C106.058 106.037 106.117 106.187 106.117 106.368V108.48L105.925 108.144C105.989 107.813 106.101 107.493 106.261 107.184C106.432 106.864 106.645 106.581 106.901 106.336C107.157 106.08 107.45 105.883 107.781 105.744C108.112 105.595 108.474 105.52 108.869 105.52C109.104 105.52 109.317 105.579 109.509 105.696C109.712 105.803 109.813 105.957 109.813 106.16C109.813 106.384 109.754 106.549 109.637 106.656C109.52 106.763 109.386 106.816 109.237 106.816C109.098 106.816 108.965 106.789 108.837 106.736C108.709 106.672 108.549 106.64 108.357 106.64C108.09 106.64 107.824 106.715 107.557 106.864C107.301 107.003 107.061 107.205 106.837 107.472C106.624 107.739 106.448 108.043 106.309 108.384C106.181 108.715 106.117 109.072 106.117 109.456V113.344C106.117 113.525 106.053 113.68 105.925 113.808C105.808 113.936 105.658 114 105.477 114ZM117.728 105.648C117.909 105.648 118.058 105.712 118.176 105.84C118.304 105.957 118.368 106.107 118.368 106.288V113.344C118.368 113.525 118.304 113.68 118.176 113.808C118.058 113.936 117.909 114 117.728 114C117.536 114 117.381 113.936 117.264 113.808C117.146 113.68 117.088 113.525 117.088 113.344V111.824L117.392 111.792C117.392 112.027 117.312 112.283 117.152 112.56C116.992 112.837 116.773 113.099 116.496 113.344C116.218 113.579 115.888 113.776 115.504 113.936C115.13 114.085 114.725 114.16 114.288 114.16C113.562 114.16 112.912 113.973 112.336 113.6C111.76 113.216 111.301 112.699 110.96 112.048C110.629 111.397 110.464 110.656 110.464 109.824C110.464 108.981 110.629 108.24 110.96 107.6C111.301 106.949 111.76 106.443 112.336 106.08C112.912 105.707 113.552 105.52 114.256 105.52C114.714 105.52 115.141 105.595 115.536 105.744C115.93 105.893 116.272 106.096 116.56 106.352C116.858 106.608 117.088 106.891 117.248 107.2C117.418 107.509 117.504 107.819 117.504 108.128L117.088 108.032V106.288C117.088 106.107 117.146 105.957 117.264 105.84C117.381 105.712 117.536 105.648 117.728 105.648ZM114.432 112.976C114.965 112.976 115.434 112.837 115.84 112.56C116.256 112.283 116.576 111.909 116.8 111.44C117.034 110.96 117.152 110.421 117.152 109.824C117.152 109.237 117.034 108.709 116.8 108.24C116.576 107.76 116.256 107.387 115.84 107.12C115.434 106.843 114.965 106.704 114.432 106.704C113.909 106.704 113.44 106.837 113.024 107.104C112.618 107.371 112.298 107.739 112.064 108.208C111.829 108.677 111.712 109.216 111.712 109.824C111.712 110.421 111.824 110.96 112.048 111.44C112.282 111.909 112.602 112.283 113.008 112.56C113.424 112.837 113.898 112.976 114.432 112.976ZM124.66 105.6C125.385 105.6 126.036 105.781 126.612 106.144C127.188 106.507 127.641 107.008 127.972 107.648C128.313 108.288 128.484 109.024 128.484 109.856C128.484 110.677 128.313 111.413 127.972 112.064C127.641 112.704 127.188 113.211 126.612 113.584C126.046 113.947 125.406 114.128 124.692 114.128C124.297 114.128 123.924 114.069 123.572 113.952C123.23 113.824 122.916 113.664 122.628 113.472C122.35 113.269 122.116 113.045 121.924 112.8C121.732 112.544 121.593 112.293 121.508 112.048L121.86 111.824V116.544C121.86 116.725 121.801 116.88 121.684 117.008C121.566 117.136 121.412 117.2 121.22 117.2C121.038 117.2 120.884 117.136 120.756 117.008C120.638 116.891 120.58 116.736 120.58 116.544V106.32C120.58 106.139 120.638 105.989 120.756 105.872C120.884 105.744 121.038 105.68 121.22 105.68C121.412 105.68 121.566 105.744 121.684 105.872C121.801 105.989 121.86 106.139 121.86 106.32V107.744L121.62 107.616C121.694 107.349 121.822 107.093 122.004 106.848C122.196 106.603 122.425 106.389 122.692 106.208C122.969 106.016 123.273 105.867 123.604 105.76C123.945 105.653 124.297 105.6 124.66 105.6ZM124.516 106.784C123.982 106.784 123.508 106.917 123.092 107.184C122.686 107.451 122.366 107.813 122.132 108.272C121.908 108.731 121.796 109.259 121.796 109.856C121.796 110.443 121.908 110.971 122.132 111.44C122.366 111.909 122.686 112.277 123.092 112.544C123.508 112.811 123.982 112.944 124.516 112.944C125.049 112.944 125.518 112.811 125.924 112.544C126.329 112.277 126.649 111.909 126.884 111.44C127.118 110.971 127.236 110.443 127.236 109.856C127.236 109.259 127.118 108.731 126.884 108.272C126.649 107.813 126.329 107.451 125.924 107.184C125.518 106.917 125.049 106.784 124.516 106.784ZM134.248 105.6C134.952 105.6 135.506 105.755 135.912 106.064C136.328 106.363 136.621 106.768 136.792 107.28C136.973 107.781 137.064 108.341 137.064 108.96V113.344C137.064 113.525 137 113.68 136.872 113.808C136.754 113.936 136.605 114 136.424 114C136.242 114 136.088 113.936 135.96 113.808C135.842 113.68 135.784 113.525 135.784 113.344V108.96C135.784 108.555 135.725 108.192 135.608 107.872C135.49 107.541 135.293 107.28 135.016 107.088C134.749 106.885 134.381 106.784 133.912 106.784C133.474 106.784 133.074 106.885 132.712 107.088C132.349 107.28 132.061 107.541 131.848 107.872C131.634 108.192 131.528 108.555 131.528 108.96V113.344C131.528 113.525 131.464 113.68 131.336 113.808C131.218 113.936 131.069 114 130.888 114C130.706 114 130.552 113.936 130.424 113.808C130.306 113.68 130.248 113.525 130.248 113.344V102.8C130.248 102.619 130.306 102.469 130.424 102.352C130.552 102.224 130.706 102.16 130.888 102.16C131.08 102.16 131.234 102.224 131.352 102.352C131.469 102.469 131.528 102.619 131.528 102.8V107.584L131.208 107.936C131.261 107.659 131.378 107.381 131.56 107.104C131.741 106.816 131.97 106.56 132.248 106.336C132.525 106.112 132.834 105.936 133.176 105.808C133.517 105.669 133.874 105.6 134.248 105.6ZM143.099 114.16C142.246 114.16 141.499 113.979 140.859 113.616C140.219 113.253 139.718 112.757 139.355 112.128C139.003 111.488 138.827 110.752 138.827 109.92C138.827 108.992 139.009 108.203 139.371 107.552C139.745 106.891 140.225 106.389 140.811 106.048C141.409 105.696 142.038 105.52 142.699 105.52C143.19 105.52 143.665 105.611 144.123 105.792C144.582 105.973 144.987 106.24 145.339 106.592C145.691 106.933 145.974 107.349 146.187 107.84C146.401 108.32 146.513 108.859 146.523 109.456C146.523 109.627 146.459 109.771 146.331 109.888C146.203 110.005 146.054 110.064 145.883 110.064H139.563L139.275 108.96H145.435L145.179 109.184V108.832C145.137 108.395 144.987 108.021 144.731 107.712C144.486 107.392 144.182 107.147 143.819 106.976C143.467 106.805 143.094 106.72 142.699 106.72C142.379 106.72 142.059 106.779 141.739 106.896C141.43 107.003 141.147 107.184 140.891 107.44C140.646 107.685 140.443 108.005 140.283 108.4C140.134 108.795 140.059 109.269 140.059 109.824C140.059 110.443 140.182 110.987 140.427 111.456C140.683 111.925 141.035 112.299 141.483 112.576C141.931 112.843 142.454 112.976 143.051 112.976C143.425 112.976 143.75 112.928 144.027 112.832C144.305 112.736 144.545 112.619 144.747 112.48C144.95 112.331 145.121 112.181 145.259 112.032C145.398 111.936 145.531 111.888 145.659 111.888C145.819 111.888 145.947 111.941 146.043 112.048C146.15 112.155 146.203 112.283 146.203 112.432C146.203 112.613 146.118 112.773 145.947 112.912C145.649 113.243 145.243 113.536 144.731 113.792C144.219 114.037 143.675 114.16 143.099 114.16Z" fill="#4B4A47"/>
<rect x="19.5" y="132.5" width="31" height="31" rx="3.5" fill="#FFFBF1"/>
<rect x="19.5" y="132.5" width="31" height="31" rx="3.5" stroke="#76746F"/>
<g clip-path="url(#clip2_3319_9401)">
<path d="M44.99 142C44.99 140.9 44.1 140 43 140H27C25.9 140 25 140.9 25 142V154C25 155.1 25.9 156 27 156H43C44 156 44.99 155 44.99 154V142Z" fill="#4B4A47"/>
</g>
<path d="M61.048 142.8H66.744C66.9253 142.8 67.08 142.859 67.208 142.976C67.336 143.093 67.4 143.243 67.4 143.424C67.4 143.605 67.336 143.755 67.208 143.872C67.08 143.979 66.9253 144.032 66.744 144.032H61.592L61.736 143.76V147.808L61.576 147.632H66.024C66.2053 147.632 66.36 147.691 66.488 147.808C66.616 147.925 66.68 148.075 66.68 148.256C66.68 148.437 66.616 148.587 66.488 148.704C66.36 148.811 66.2053 148.864 66.024 148.864H61.624L61.736 148.72V152.864L61.64 152.752H66.744C66.9253 152.752 67.08 152.816 67.208 152.944C67.336 153.072 67.4 153.216 67.4 153.376C67.4 153.557 67.336 153.707 67.208 153.824C67.08 153.941 66.9253 154 66.744 154H61.048C60.8667 154 60.712 153.936 60.584 153.808C60.4667 153.68 60.408 153.525 60.408 153.344V143.44C60.408 143.259 60.4667 143.109 60.584 142.992C60.712 142.864 60.8667 142.8 61.048 142.8ZM73.261 145.52C73.9863 145.52 74.557 145.669 74.973 145.968C75.389 146.267 75.6823 146.667 75.853 147.168C76.0343 147.669 76.125 148.229 76.125 148.848V153.344C76.125 153.525 76.061 153.68 75.933 153.808C75.8157 153.936 75.6663 154 75.485 154C75.3037 154 75.149 153.936 75.021 153.808C74.9037 153.68 74.845 153.525 74.845 153.344V148.88C74.845 148.475 74.781 148.112 74.653 147.792C74.5357 147.461 74.333 147.2 74.045 147.008C73.7677 146.805 73.3837 146.704 72.893 146.704C72.445 146.704 72.0343 146.805 71.661 147.008C71.2877 147.2 70.989 147.461 70.765 147.792C70.541 148.112 70.429 148.475 70.429 148.88V153.344C70.429 153.525 70.365 153.68 70.237 153.808C70.1197 153.936 69.9703 154 69.789 154C69.6077 154 69.453 153.936 69.325 153.808C69.2077 153.68 69.149 153.525 69.149 153.344V146.368C69.149 146.187 69.2077 146.037 69.325 145.92C69.453 145.792 69.6077 145.728 69.789 145.728C69.981 145.728 70.1357 145.792 70.253 145.92C70.3703 146.037 70.429 146.187 70.429 146.368V147.504L70.109 147.856C70.1623 147.579 70.285 147.301 70.477 147.024C70.669 146.736 70.909 146.48 71.197 146.256C71.485 146.032 71.805 145.856 72.157 145.728C72.509 145.589 72.877 145.52 73.261 145.52ZM82.0128 145.52C82.5568 145.52 83.0474 145.579 83.4848 145.696C83.9221 145.813 84.2688 145.973 84.5248 146.176C84.7808 146.379 84.9088 146.608 84.9088 146.864C84.9088 147.003 84.8608 147.136 84.7648 147.264C84.6688 147.392 84.5408 147.456 84.3808 147.456C84.2314 147.456 84.1088 147.429 84.0128 147.376C83.9274 147.323 83.8421 147.253 83.7568 147.168C83.6821 147.083 83.5754 147.008 83.4368 146.944C83.3088 146.869 83.1221 146.811 82.8768 146.768C82.6314 146.725 82.3861 146.704 82.1408 146.704C81.5541 146.704 81.0368 146.843 80.5888 147.12C80.1514 147.397 79.8048 147.771 79.5488 148.24C79.2928 148.709 79.1648 149.243 79.1648 149.84C79.1648 150.437 79.2874 150.971 79.5328 151.44C79.7781 151.909 80.1194 152.283 80.5568 152.56C80.9941 152.837 81.5008 152.976 82.0768 152.976C82.4501 152.976 82.7488 152.944 82.9728 152.88C83.1968 152.816 83.3834 152.741 83.5328 152.656C83.7248 152.549 83.8688 152.443 83.9648 152.336C84.0714 152.229 84.2101 152.176 84.3808 152.176C84.5621 152.176 84.7008 152.235 84.7968 152.352C84.9034 152.469 84.9568 152.613 84.9568 152.784C84.9568 152.976 84.8234 153.179 84.5568 153.392C84.2901 153.605 83.9274 153.787 83.4688 153.936C83.0208 154.085 82.5088 154.16 81.9328 154.16C81.1221 154.16 80.4128 153.973 79.8048 153.6C79.1968 153.216 78.7221 152.699 78.3808 152.048C78.0501 151.387 77.8848 150.651 77.8848 149.84C77.8848 149.029 78.0554 148.299 78.3968 147.648C78.7488 146.997 79.2341 146.48 79.8528 146.096C80.4714 145.712 81.1914 145.52 82.0128 145.52ZM93.2856 145.648C93.467 145.648 93.6163 145.712 93.7336 145.84C93.8616 145.957 93.9256 146.107 93.9256 146.288V153.344C93.9256 153.525 93.8616 153.68 93.7336 153.808C93.6163 153.936 93.467 154 93.2856 154C93.0936 154 92.939 153.936 92.8216 153.808C92.7043 153.68 92.6456 153.525 92.6456 153.344V151.824L92.9496 151.792C92.9496 152.027 92.8696 152.283 92.7096 152.56C92.5496 152.837 92.331 153.099 92.0536 153.344C91.7763 153.579 91.4456 153.776 91.0616 153.936C90.6883 154.085 90.283 154.16 89.8456 154.16C89.1203 154.16 88.4696 153.973 87.8936 153.6C87.3176 153.216 86.859 152.699 86.5176 152.048C86.187 151.397 86.0216 150.656 86.0216 149.824C86.0216 148.981 86.187 148.24 86.5176 147.6C86.859 146.949 87.3176 146.443 87.8936 146.08C88.4696 145.707 89.1096 145.52 89.8136 145.52C90.2723 145.52 90.699 145.595 91.0936 145.744C91.4883 145.893 91.8296 146.096 92.1176 146.352C92.4163 146.608 92.6456 146.891 92.8056 147.2C92.9763 147.509 93.0616 147.819 93.0616 148.128L92.6456 148.032V146.288C92.6456 146.107 92.7043 145.957 92.8216 145.84C92.939 145.712 93.0936 145.648 93.2856 145.648ZM89.9896 152.976C90.523 152.976 90.9923 152.837 91.3976 152.56C91.8136 152.283 92.1336 151.909 92.3576 151.44C92.5923 150.96 92.7096 150.421 92.7096 149.824C92.7096 149.237 92.5923 148.709 92.3576 148.24C92.1336 147.76 91.8136 147.387 91.3976 147.12C90.9923 146.843 90.523 146.704 89.9896 146.704C89.467 146.704 88.9976 146.837 88.5816 147.104C88.1763 147.371 87.8563 147.739 87.6216 148.208C87.387 148.677 87.2696 149.216 87.2696 149.824C87.2696 150.421 87.3816 150.96 87.6056 151.44C87.8403 151.909 88.1603 152.283 88.5656 152.56C88.9816 152.837 89.4563 152.976 89.9896 152.976ZM102.954 142.16C103.135 142.16 103.284 142.224 103.402 142.352C103.53 142.469 103.594 142.619 103.594 142.8V153.344C103.594 153.525 103.53 153.68 103.402 153.808C103.284 153.936 103.135 154 102.954 154C102.762 154 102.607 153.936 102.49 153.808C102.372 153.68 102.314 153.525 102.314 153.344V151.824L102.618 151.712C102.618 151.968 102.538 152.24 102.378 152.528C102.218 152.805 101.999 153.067 101.722 153.312C101.444 153.557 101.114 153.76 100.73 153.92C100.356 154.08 99.9511 154.16 99.5138 154.16C98.7991 154.16 98.1484 153.973 97.5618 153.6C96.9858 153.227 96.5271 152.715 96.1858 152.064C95.8551 151.413 95.6898 150.672 95.6898 149.84C95.6898 148.997 95.8551 148.251 96.1858 147.6C96.5271 146.949 96.9858 146.443 97.5618 146.08C98.1378 145.707 98.7778 145.52 99.4818 145.52C99.9298 145.52 100.351 145.595 100.746 145.744C101.14 145.893 101.482 146.096 101.77 146.352C102.068 146.608 102.303 146.891 102.474 147.2C102.644 147.509 102.73 147.819 102.73 148.128L102.314 148.032V142.8C102.314 142.619 102.372 142.469 102.49 142.352C102.607 142.224 102.762 142.16 102.954 142.16ZM99.6578 152.976C100.191 152.976 100.66 152.843 101.066 152.576C101.482 152.299 101.802 151.925 102.026 151.456C102.26 150.976 102.378 150.437 102.378 149.84C102.378 149.232 102.26 148.693 102.026 148.224C101.802 147.755 101.482 147.387 101.066 147.12C100.66 146.843 100.191 146.704 99.6578 146.704C99.1351 146.704 98.6658 146.843 98.2498 147.12C97.8444 147.387 97.5244 147.755 97.2898 148.224C97.0551 148.693 96.9378 149.232 96.9378 149.84C96.9378 150.427 97.0551 150.96 97.2898 151.44C97.5244 151.909 97.8444 152.283 98.2498 152.56C98.6658 152.837 99.1351 152.976 99.6578 152.976ZM106.446 154C106.265 154 106.11 153.936 105.982 153.808C105.865 153.68 105.806 153.525 105.806 153.344V146.368C105.806 146.187 105.865 146.037 105.982 145.92C106.11 145.792 106.265 145.728 106.446 145.728C106.638 145.728 106.793 145.792 106.91 145.92C107.027 146.037 107.086 146.187 107.086 146.368V148.48L106.894 148.144C106.958 147.813 107.07 147.493 107.23 147.184C107.401 146.864 107.614 146.581 107.87 146.336C108.126 146.08 108.419 145.883 108.75 145.744C109.081 145.595 109.443 145.52 109.838 145.52C110.073 145.52 110.286 145.579 110.478 145.696C110.681 145.803 110.782 145.957 110.782 146.16C110.782 146.384 110.723 146.549 110.606 146.656C110.489 146.763 110.355 146.816 110.206 146.816C110.067 146.816 109.934 146.789 109.806 146.736C109.678 146.672 109.518 146.64 109.326 146.64C109.059 146.64 108.793 146.715 108.526 146.864C108.27 147.003 108.03 147.205 107.806 147.472C107.593 147.739 107.417 148.043 107.278 148.384C107.15 148.715 107.086 149.072 107.086 149.456V153.344C107.086 153.525 107.022 153.68 106.894 153.808C106.777 153.936 106.627 154 106.446 154ZM115.532 154.16C114.679 154.16 113.932 153.979 113.292 153.616C112.652 153.253 112.151 152.757 111.788 152.128C111.436 151.488 111.26 150.752 111.26 149.92C111.26 148.992 111.442 148.203 111.804 147.552C112.178 146.891 112.658 146.389 113.244 146.048C113.842 145.696 114.471 145.52 115.132 145.52C115.623 145.52 116.098 145.611 116.556 145.792C117.015 145.973 117.42 146.24 117.772 146.592C118.124 146.933 118.407 147.349 118.62 147.84C118.834 148.32 118.946 148.859 118.956 149.456C118.956 149.627 118.892 149.771 118.764 149.888C118.636 150.005 118.487 150.064 118.316 150.064H111.996L111.708 148.96H117.868L117.612 149.184V148.832C117.57 148.395 117.42 148.021 117.164 147.712C116.919 147.392 116.615 147.147 116.252 146.976C115.9 146.805 115.527 146.72 115.132 146.72C114.812 146.72 114.492 146.779 114.172 146.896C113.863 147.003 113.58 147.184 113.324 147.44C113.079 147.685 112.876 148.005 112.716 148.4C112.567 148.795 112.492 149.269 112.492 149.824C112.492 150.443 112.615 150.987 112.86 151.456C113.116 151.925 113.468 152.299 113.916 152.576C114.364 152.843 114.887 152.976 115.484 152.976C115.858 152.976 116.183 152.928 116.46 152.832C116.738 152.736 116.978 152.619 117.18 152.48C117.383 152.331 117.554 152.181 117.692 152.032C117.831 151.936 117.964 151.888 118.092 151.888C118.252 151.888 118.38 151.941 118.476 152.048C118.583 152.155 118.636 152.283 118.636 152.432C118.636 152.613 118.551 152.773 118.38 152.912C118.082 153.243 117.676 153.536 117.164 153.792C116.652 154.037 116.108 154.16 115.532 154.16ZM115.052 145.072C114.978 145.072 114.898 145.04 114.812 144.976C114.738 144.912 114.7 144.827 114.7 144.72C114.7 144.645 114.732 144.56 114.796 144.464L115.756 142.896C115.82 142.789 115.906 142.688 116.012 142.592C116.119 142.496 116.247 142.448 116.396 142.448C116.61 142.448 116.77 142.507 116.876 142.624C116.983 142.731 117.036 142.875 117.036 143.056C117.026 143.141 117.004 143.221 116.972 143.296C116.94 143.371 116.892 143.451 116.828 143.536L115.612 144.816C115.538 144.901 115.447 144.965 115.34 145.008C115.244 145.051 115.148 145.072 115.052 145.072Z" fill="#4B4A47"/>
<rect x="19.5" y="172.5" width="31" height="31" rx="3.5" fill="#FFFBF1"/>
<rect x="19.5" y="172.5" width="31" height="31" rx="3.5" stroke="#76746F"/>
<g clip-path="url(#clip3_3319_9401)">
<path d="M45 192V180C45 178.9 44.1 178 43 178H31C29.9 178 29 178.9 29 180V192C29 193.1 29.9 194 31 194H43C44.1 194 45 193.1 45 192ZM34 188L36.03 190.71L39 187L43 192H31L34 188ZM25 182V196C25 197.1 25.9 198 27 198H41V196H27V182H25Z" fill="#4B4A47"/>
</g>
<path d="M61.736 193.344C61.736 193.525 61.6667 193.68 61.528 193.808C61.4 193.936 61.2453 194 61.064 194C60.8613 194 60.7013 193.936 60.584 193.808C60.4667 193.68 60.408 193.525 60.408 193.344V183.456C60.408 183.264 60.472 183.109 60.6 182.992C60.728 182.864 60.888 182.8 61.08 182.8C61.2613 182.8 61.416 182.864 61.544 182.992C61.672 183.109 61.736 183.264 61.736 183.456V193.344ZM68.1166 185.6C68.842 185.6 69.4286 185.787 69.8766 186.16C70.3353 186.523 70.6393 187.04 70.7886 187.712H70.5486L70.6606 187.424C70.7886 187.125 71.0073 186.837 71.3166 186.56C71.626 186.283 71.9833 186.053 72.3886 185.872C72.794 185.691 73.2153 185.6 73.6526 185.6C74.3566 185.6 74.9113 185.755 75.3166 186.064C75.722 186.363 76.01 186.768 76.1806 187.28C76.362 187.781 76.4526 188.347 76.4526 188.976V193.344C76.4526 193.525 76.3886 193.68 76.2606 193.808C76.1433 193.936 75.994 194 75.8126 194C75.6206 194 75.466 193.936 75.3486 193.808C75.2313 193.68 75.1726 193.525 75.1726 193.344V189.008C75.1726 188.592 75.1086 188.219 74.9806 187.888C74.8633 187.547 74.666 187.28 74.3886 187.088C74.122 186.885 73.754 186.784 73.2846 186.784C72.8473 186.784 72.4473 186.885 72.0846 187.088C71.722 187.28 71.434 187.547 71.2206 187.888C71.0073 188.219 70.9006 188.592 70.9006 189.008V193.344C70.9006 193.525 70.842 193.68 70.7246 193.808C70.6073 193.936 70.4526 194 70.2606 194C70.0793 194 69.9246 193.936 69.7966 193.808C69.6793 193.68 69.6206 193.525 69.6206 193.344V188.96C69.6206 188.555 69.562 188.192 69.4446 187.872C69.338 187.541 69.1513 187.28 68.8846 187.088C68.618 186.885 68.25 186.784 67.7806 186.784C67.354 186.784 66.9646 186.885 66.6126 187.088C66.2606 187.28 65.978 187.541 65.7646 187.872C65.5513 188.192 65.4446 188.555 65.4446 188.96V193.344C65.4446 193.525 65.3806 193.68 65.2526 193.808C65.1353 193.936 64.986 194 64.8046 194C64.6233 194 64.4686 193.936 64.3406 193.808C64.2233 193.68 64.1646 193.525 64.1646 193.344V186.368C64.1646 186.187 64.2233 186.037 64.3406 185.92C64.4686 185.792 64.6233 185.728 64.8046 185.728C64.9966 185.728 65.1513 185.792 65.2686 185.92C65.386 186.037 65.4446 186.187 65.4446 186.368V187.584L65.0926 187.968C65.1353 187.691 65.242 187.413 65.4126 187.136C65.594 186.859 65.8233 186.603 66.1006 186.368C66.378 186.133 66.6873 185.947 67.0286 185.808C67.37 185.669 67.7326 185.6 68.1166 185.6ZM85.4769 185.648C85.6582 185.648 85.8075 185.712 85.9249 185.84C86.0529 185.957 86.1169 186.107 86.1169 186.288V193.344C86.1169 193.525 86.0529 193.68 85.9249 193.808C85.8075 193.936 85.6582 194 85.4769 194C85.2849 194 85.1302 193.936 85.0129 193.808C84.8955 193.68 84.8369 193.525 84.8369 193.344V191.824L85.1409 191.792C85.1409 192.027 85.0609 192.283 84.9009 192.56C84.7409 192.837 84.5222 193.099 84.2449 193.344C83.9675 193.579 83.6369 193.776 83.2529 193.936C82.8795 194.085 82.4742 194.16 82.0369 194.16C81.3115 194.16 80.6609 193.973 80.0849 193.6C79.5089 193.216 79.0502 192.699 78.7089 192.048C78.3782 191.397 78.2129 190.656 78.2129 189.824C78.2129 188.981 78.3782 188.24 78.7089 187.6C79.0502 186.949 79.5089 186.443 80.0849 186.08C80.6609 185.707 81.3009 185.52 82.0049 185.52C82.4635 185.52 82.8902 185.595 83.2849 185.744C83.6795 185.893 84.0209 186.096 84.3089 186.352C84.6075 186.608 84.8369 186.891 84.9969 187.2C85.1675 187.509 85.2529 187.819 85.2529 188.128L84.8369 188.032V186.288C84.8369 186.107 84.8955 185.957 85.0129 185.84C85.1302 185.712 85.2849 185.648 85.4769 185.648ZM82.1809 192.976C82.7142 192.976 83.1835 192.837 83.5889 192.56C84.0049 192.283 84.3249 191.909 84.5489 191.44C84.7835 190.96 84.9009 190.421 84.9009 189.824C84.9009 189.237 84.7835 188.709 84.5489 188.24C84.3249 187.76 84.0049 187.387 83.5889 187.12C83.1835 186.843 82.7142 186.704 82.1809 186.704C81.6582 186.704 81.1889 186.837 80.7729 187.104C80.3675 187.371 80.0475 187.739 79.8129 188.208C79.5782 188.677 79.4609 189.216 79.4609 189.824C79.4609 190.421 79.5729 190.96 79.7969 191.44C80.0315 191.909 80.3515 192.283 80.7569 192.56C81.1729 192.837 81.6475 192.976 82.1809 192.976ZM91.801 185.52C92.2597 185.52 92.6863 185.6 93.081 185.76C93.4757 185.909 93.817 186.107 94.105 186.352C94.4037 186.597 94.633 186.853 94.793 187.12C94.9637 187.387 95.049 187.637 95.049 187.872L94.745 187.68V186.288C94.745 186.107 94.8037 185.957 94.921 185.84C95.0383 185.712 95.193 185.648 95.385 185.648C95.5663 185.648 95.7157 185.712 95.833 185.84C95.961 185.957 96.025 186.107 96.025 186.288V193.296C96.025 194.171 95.8383 194.896 95.465 195.472C95.1023 196.048 94.6117 196.48 93.993 196.768C93.3743 197.056 92.681 197.2 91.913 197.2C91.593 197.2 91.241 197.157 90.857 197.072C90.473 196.987 90.1317 196.88 89.833 196.752C89.5343 196.635 89.3423 196.512 89.257 196.384C89.097 196.277 88.9957 196.155 88.953 196.016C88.921 195.888 88.9477 195.765 89.033 195.648C89.129 195.499 89.2517 195.424 89.401 195.424C89.561 195.424 89.7583 195.472 89.993 195.568C90.089 195.6 90.2383 195.653 90.441 195.728C90.6543 195.803 90.889 195.867 91.145 195.92C91.4117 195.984 91.673 196.016 91.929 196.016C92.8357 196.016 93.529 195.776 94.009 195.296C94.4997 194.827 94.745 194.203 94.745 193.424V191.936L94.921 192.016C94.857 192.315 94.7237 192.592 94.521 192.848C94.329 193.104 94.089 193.333 93.801 193.536C93.5237 193.728 93.2143 193.883 92.873 194C92.5317 194.107 92.185 194.16 91.833 194.16C91.0863 194.16 90.4143 193.973 89.817 193.6C89.2197 193.227 88.745 192.715 88.393 192.064C88.0517 191.413 87.881 190.672 87.881 189.84C87.881 188.997 88.0517 188.251 88.393 187.6C88.745 186.949 89.2143 186.443 89.801 186.08C90.3983 185.707 91.065 185.52 91.801 185.52ZM91.961 186.704C91.417 186.704 90.9263 186.843 90.489 187.12C90.0623 187.387 89.7263 187.755 89.481 188.224C89.2463 188.693 89.129 189.232 89.129 189.84C89.129 190.427 89.2463 190.96 89.481 191.44C89.7263 191.909 90.0623 192.283 90.489 192.56C90.9263 192.837 91.417 192.976 91.961 192.976C92.5157 192.976 93.0063 192.843 93.433 192.576C93.8597 192.299 94.1957 191.925 94.441 191.456C94.6863 190.987 94.809 190.448 94.809 189.84C94.809 189.221 94.6863 188.677 94.441 188.208C94.1957 187.739 93.8597 187.371 93.433 187.104C93.0063 186.837 92.5157 186.704 91.961 186.704ZM101.743 194.16C100.89 194.16 100.143 193.979 99.503 193.616C98.863 193.253 98.3617 192.757 97.999 192.128C97.647 191.488 97.471 190.752 97.471 189.92C97.471 188.992 97.6523 188.203 98.015 187.552C98.3883 186.891 98.8683 186.389 99.455 186.048C100.052 185.696 100.682 185.52 101.343 185.52C101.834 185.52 102.308 185.611 102.767 185.792C103.226 185.973 103.631 186.24 103.983 186.592C104.335 186.933 104.618 187.349 104.831 187.84C105.044 188.32 105.156 188.859 105.167 189.456C105.167 189.627 105.103 189.771 104.975 189.888C104.847 190.005 104.698 190.064 104.527 190.064H98.207L97.919 188.96H104.079L103.823 189.184V188.832C103.78 188.395 103.631 188.021 103.375 187.712C103.13 187.392 102.826 187.147 102.463 186.976C102.111 186.805 101.738 186.72 101.343 186.72C101.023 186.72 100.703 186.779 100.383 186.896C100.074 187.003 99.791 187.184 99.535 187.44C99.2897 187.685 99.087 188.005 98.927 188.4C98.7777 188.795 98.703 189.269 98.703 189.824C98.703 190.443 98.8257 190.987 99.071 191.456C99.327 191.925 99.679 192.299 100.127 192.576C100.575 192.843 101.098 192.976 101.695 192.976C102.068 192.976 102.394 192.928 102.671 192.832C102.948 192.736 103.188 192.619 103.391 192.48C103.594 192.331 103.764 192.181 103.903 192.032C104.042 191.936 104.175 191.888 104.303 191.888C104.463 191.888 104.591 191.941 104.687 192.048C104.794 192.155 104.847 192.283 104.847 192.432C104.847 192.613 104.762 192.773 104.591 192.912C104.292 193.243 103.887 193.536 103.375 193.792C102.863 194.037 102.319 194.16 101.743 194.16ZM106.467 192.688C106.371 192.549 106.328 192.405 106.339 192.256C106.35 192.096 106.44 191.957 106.611 191.84C106.718 191.765 106.84 191.733 106.979 191.744C107.128 191.755 107.262 191.824 107.379 191.952C107.678 192.304 108.019 192.587 108.403 192.8C108.787 193.003 109.256 193.104 109.811 193.104C110.067 193.093 110.323 193.051 110.579 192.976C110.835 192.901 111.048 192.773 111.219 192.592C111.4 192.4 111.491 192.149 111.491 191.84C111.491 191.541 111.4 191.307 111.219 191.136C111.038 190.955 110.803 190.811 110.515 190.704C110.227 190.587 109.912 190.485 109.571 190.4C109.219 190.304 108.872 190.197 108.531 190.08C108.19 189.952 107.88 189.797 107.603 189.616C107.336 189.424 107.118 189.189 106.947 188.912C106.787 188.624 106.707 188.277 106.707 187.872C106.707 187.392 106.835 186.976 107.091 186.624C107.358 186.272 107.71 186 108.147 185.808C108.595 185.616 109.08 185.52 109.603 185.52C109.902 185.52 110.211 185.557 110.531 185.632C110.862 185.696 111.182 185.813 111.491 185.984C111.8 186.144 112.072 186.368 112.307 186.656C112.403 186.763 112.456 186.896 112.467 187.056C112.478 187.216 112.408 187.36 112.259 187.488C112.142 187.573 112.008 187.611 111.859 187.6C111.72 187.589 111.603 187.536 111.507 187.44C111.283 187.173 111 186.971 110.659 186.832C110.328 186.683 109.96 186.608 109.555 186.608C109.299 186.608 109.048 186.645 108.803 186.72C108.558 186.795 108.35 186.923 108.179 187.104C108.019 187.275 107.939 187.515 107.939 187.824C107.95 188.112 108.046 188.347 108.227 188.528C108.408 188.709 108.654 188.859 108.963 188.976C109.272 189.083 109.614 189.189 109.987 189.296C110.328 189.381 110.654 189.483 110.963 189.6C111.283 189.707 111.571 189.851 111.827 190.032C112.083 190.213 112.286 190.448 112.435 190.736C112.584 191.013 112.659 191.365 112.659 191.792C112.659 192.283 112.52 192.709 112.243 193.072C111.966 193.424 111.598 193.696 111.139 193.888C110.691 194.069 110.206 194.16 109.683 194.16C109.096 194.16 108.515 194.048 107.939 193.824C107.374 193.6 106.883 193.221 106.467 192.688Z" fill="#4B4A47"/>
</g>
<defs>
<filter id="filter0_d_3319_9401" x="0" y="0" width="181" height="228" filterUnits="userSpaceOnUse" color-interpolation-filters="sRGB">
<feFlood flood-opacity="0" result="BackgroundImageFix"/>
<feColorMatrix in="SourceAlpha" type="matrix" values="0 0 0 0 0 0 0 0 0 0 0 0 0 0 0 0 0 0 127 0" result="hardAlpha"/>
<feOffset dx="1" dy="4"/>
<feGaussianBlur stdDeviation="2"/>
<feComposite in2="hardAlpha" operator="out"/>
<feColorMatrix type="matrix" values="0 0 0 0 0 0 0 0 0 0 0 0 0 0 0 0 0 0 0.31 0"/>
<feBlend mode="normal" in2="BackgroundImageFix" result="effect1_dropShadow_3319_9401"/>
<feBlend mode="normal" in="SourceGraphic" in2="effect1_dropShadow_3319_9401" result="shape"/>
</filter>
<clipPath id="clip0_3319_9401">
<rect width="24" height="24" fill="white" transform="translate(23 56)"/>
</clipPath>
<clipPath id="clip1_3319_9401">
<rect width="24" height="24" fill="white" transform="translate(23 96)"/>
</clipPath>
<clipPath id="clip2_3319_9401">
<rect width="24" height="24" fill="white" transform="translate(23 136)"/>
</clipPath>
<clipPath id="clip3_3319_9401">
<rect width="24" height="24" fill="white" transform="translate(23 176)"/>
</clipPath>
</defs>
</svg>
