<svg width="20" height="20" viewBox="0 0 20 20" fill="none" xmlns="http://www.w3.org/2000/svg">
<path d="M2.82811 17.2915C2.43759 16.901 2.43759 16.2678 2.82811 15.8773L8.58579 10.1196L2.82742 4.36124L2.75975 4.28529C2.43931 3.89258 2.46144 3.31321 2.82742 2.94703C3.1936 2.58085 3.77359 2.55814 4.16637 2.87867L4.24164 2.94703L10 8.70539L15.7584 2.94703C16.1489 2.5568 16.7822 2.55661 17.1726 2.94703C17.5628 3.33747 17.5627 3.97076 17.1726 4.36124L11.4142 10.1196L17.1719 15.8773C17.5624 16.2678 17.5624 16.901 17.1719 17.2915C16.7813 17.6818 16.1481 17.682 15.7577 17.2915L10 11.5338L4.24233 17.2915C3.85187 17.682 3.21865 17.6818 2.82811 17.2915Z" fill="black"/>
</svg>
