<svg width="328" height="54" viewBox="0 0 328 54" fill="none" xmlns="http://www.w3.org/2000/svg">
<g clip-path="url(#clip0_3319_9354)">
<circle cx="4" cy="9.5" r="4" fill="#7B677A"/>
<path d="M22.9572 13.605C23.1572 13.605 23.3222 13.675 23.4522 13.815C23.5922 13.945 23.6622 14.11 23.6622 14.31C23.6622 14.51 23.5922 14.675 23.4522 14.805C23.3222 14.935 23.1572 15 22.9572 15H17.6922C17.4722 15 17.2972 14.935 17.1672 14.805C17.0372 14.675 16.9722 14.5 16.9722 14.28C16.9722 14.08 17.0422 13.9 17.1822 13.74L20.5272 10.125C20.9572 9.665 21.2872 9.21 21.5172 8.76C21.7572 8.31 21.8772 7.915 21.8772 7.575C21.8772 7.025 21.7122 6.58 21.3822 6.24C21.0522 5.9 20.6172 5.73 20.0772 5.73C19.8472 5.73 19.6122 5.785 19.3722 5.895C19.1422 5.995 18.9222 6.135 18.7122 6.315C18.5122 6.485 18.3372 6.685 18.1872 6.915C18.0872 7.055 17.9872 7.145 17.8872 7.185C17.7872 7.225 17.6922 7.245 17.6022 7.245C17.4122 7.245 17.2372 7.18 17.0772 7.05C16.9272 6.91 16.8522 6.75 16.8522 6.57C16.8522 6.43 16.8972 6.295 16.9872 6.165C17.0772 6.035 17.1922 5.9 17.3322 5.76C17.5522 5.49 17.8172 5.25 18.1272 5.04C18.4472 4.82 18.7822 4.65 19.1322 4.53C19.4822 4.41 19.8272 4.35 20.1672 4.35C20.8272 4.35 21.3972 4.48 21.8772 4.74C22.3672 5 22.7422 5.365 23.0022 5.835C23.2722 6.305 23.4072 6.86 23.4072 7.5C23.4072 8.04 23.2422 8.64 22.9122 9.3C22.5922 9.95 22.1422 10.59 21.5622 11.22L19.2372 13.755L19.0722 13.605H22.9572ZM30.1358 15C29.9258 15 29.7508 14.93 29.6108 14.79C29.4708 14.64 29.4008 14.455 29.4008 14.235V6.6L29.6708 6.69L26.4308 10.83L26.3558 10.635H31.8158C32.0158 10.635 32.1808 10.705 32.3108 10.845C32.4508 10.975 32.5208 11.14 32.5208 11.34C32.5208 11.53 32.4508 11.69 32.3108 11.82C32.1808 11.95 32.0158 12.015 31.8158 12.015H25.3208C25.1408 12.015 24.9708 11.945 24.8108 11.805C24.6508 11.655 24.5708 11.48 24.5708 11.28C24.5708 11.09 24.6358 10.92 24.7658 10.77L29.5358 4.8C29.6058 4.7 29.6958 4.625 29.8058 4.575C29.9158 4.525 30.0308 4.5 30.1508 4.5C30.3708 4.5 30.5508 4.575 30.6908 4.725C30.8308 4.865 30.9008 5.045 30.9008 5.265V14.235C30.9008 14.455 30.8258 14.64 30.6758 14.79C30.5258 14.93 30.3458 15 30.1358 15ZM39.866 15.33C39.866 15.87 39.756 16.335 39.536 16.725C39.316 17.115 39.026 17.415 38.666 17.625C38.306 17.835 37.921 17.94 37.511 17.94C37.301 17.94 37.131 17.87 37.001 17.73C36.871 17.6 36.806 17.44 36.806 17.25V17.115C36.806 16.935 36.871 16.79 37.001 16.68C37.121 16.57 37.271 16.485 37.451 16.425C37.681 16.355 37.861 16.25 37.991 16.11C38.131 15.98 38.226 15.81 38.276 15.6C38.336 15.4 38.366 15.18 38.366 14.94V7.86C38.366 7.65 38.436 7.475 38.576 7.335C38.716 7.185 38.896 7.11 39.116 7.11C39.336 7.11 39.516 7.185 39.656 7.335C39.796 7.475 39.866 7.65 39.866 7.86V15.33ZM39.086 6.06C38.796 6.06 38.586 6.01 38.456 5.91C38.326 5.8 38.261 5.62 38.261 5.37V5.13C38.261 4.88 38.331 4.705 38.471 4.605C38.611 4.505 38.821 4.455 39.101 4.455C39.401 4.455 39.616 4.51 39.746 4.62C39.876 4.72 39.941 4.89 39.941 5.13V5.37C39.941 5.63 39.871 5.81 39.731 5.91C39.601 6.01 39.386 6.06 39.086 6.06ZM48.7225 6.99C48.9425 6.99 49.1225 7.065 49.2625 7.215C49.4025 7.355 49.4725 7.535 49.4725 7.755V14.235C49.4725 14.455 49.4025 14.64 49.2625 14.79C49.1225 14.93 48.9425 15 48.7225 15C48.5125 15 48.3325 14.93 48.1825 14.79C48.0425 14.64 47.9725 14.455 47.9725 14.235V13.155L48.2875 13.2C48.2875 13.38 48.2125 13.58 48.0625 13.8C47.9225 14.02 47.7275 14.235 47.4775 14.445C47.2275 14.645 46.9325 14.815 46.5925 14.955C46.2525 15.085 45.8875 15.15 45.4975 15.15C44.8075 15.15 44.1875 14.975 43.6375 14.625C43.0875 14.265 42.6525 13.775 42.3325 13.155C42.0125 12.535 41.8525 11.83 41.8525 11.04C41.8525 10.23 42.0125 9.52 42.3325 8.91C42.6525 8.29 43.0825 7.805 43.6225 7.455C44.1725 7.105 44.7825 6.93 45.4525 6.93C45.8825 6.93 46.2775 7 46.6375 7.14C47.0075 7.28 47.3275 7.46 47.5975 7.68C47.8675 7.9 48.0725 8.135 48.2125 8.385C48.3625 8.625 48.4375 8.855 48.4375 9.075L47.9725 9.12V7.755C47.9725 7.545 48.0425 7.365 48.1825 7.215C48.3325 7.065 48.5125 6.99 48.7225 6.99ZM45.6625 13.77C46.1325 13.77 46.5475 13.65 46.9075 13.41C47.2675 13.17 47.5475 12.845 47.7475 12.435C47.9475 12.015 48.0475 11.55 48.0475 11.04C48.0475 10.52 47.9475 10.055 47.7475 9.645C47.5475 9.235 47.2675 8.91 46.9075 8.67C46.5475 8.43 46.1325 8.31 45.6625 8.31C45.2025 8.31 44.7925 8.43 44.4325 8.67C44.0825 8.91 43.8025 9.235 43.5925 9.645C43.3925 10.055 43.2925 10.52 43.2925 11.04C43.2925 11.55 43.3925 12.015 43.5925 12.435C43.8025 12.845 44.0825 13.17 44.4325 13.41C44.7925 13.65 45.2025 13.77 45.6625 13.77ZM55.6389 6.93C56.3489 6.93 56.8989 7.08 57.2889 7.38C57.6789 7.67 57.9489 8.065 58.0989 8.565C58.2589 9.055 58.3389 9.605 58.3389 10.215V14.235C58.3389 14.455 58.2639 14.64 58.1139 14.79C57.9739 14.93 57.7989 15 57.5889 15C57.3689 15 57.1889 14.93 57.0489 14.79C56.9089 14.64 56.8389 14.455 56.8389 14.235V10.23C56.8389 9.87 56.7889 9.55 56.6889 9.27C56.5889 8.98 56.4139 8.75 56.1639 8.58C55.9239 8.4 55.5839 8.31 55.1439 8.31C54.7339 8.31 54.3739 8.4 54.0639 8.58C53.7539 8.75 53.5089 8.98 53.3289 9.27C53.1589 9.55 53.0739 9.87 53.0739 10.23V14.235C53.0739 14.455 52.9989 14.64 52.8489 14.79C52.7089 14.93 52.5339 15 52.3239 15C52.1039 15 51.9239 14.93 51.7839 14.79C51.6439 14.64 51.5739 14.455 51.5739 14.235V7.875C51.5739 7.655 51.6439 7.475 51.7839 7.335C51.9239 7.185 52.1039 7.11 52.3239 7.11C52.5339 7.11 52.7089 7.185 52.8489 7.335C52.9989 7.475 53.0739 7.655 53.0739 7.875V8.715L52.8039 8.865C52.8739 8.645 52.9939 8.425 53.1639 8.205C53.3439 7.975 53.5589 7.765 53.8089 7.575C54.0589 7.375 54.3389 7.22 54.6489 7.11C54.9589 6.99 55.2889 6.93 55.6389 6.93ZM60.5283 7.035C60.6783 7.035 60.8183 7.075 60.9483 7.155C61.0883 7.235 61.1883 7.355 61.2483 7.515L63.6033 12.96L63.3183 13.095L65.7033 7.53C65.8433 7.2 66.0683 7.04 66.3783 7.05C66.5783 7.05 66.7433 7.115 66.8733 7.245C67.0133 7.365 67.0833 7.525 67.0833 7.725C67.0833 7.785 67.0733 7.85 67.0533 7.92C67.0333 7.98 67.0083 8.04 66.9783 8.1L64.1283 14.52C63.9983 14.82 63.7833 14.98 63.4833 15C63.3333 15.02 63.1833 14.99 63.0333 14.91C62.8933 14.82 62.7833 14.69 62.7033 14.52L59.8683 8.1C59.8483 8.06 59.8283 8.01 59.8083 7.95C59.7883 7.88 59.7783 7.8 59.7783 7.71C59.7783 7.56 59.8433 7.41 59.9733 7.26C60.1133 7.11 60.2983 7.035 60.5283 7.035ZM70.0201 14.235C70.0201 14.455 69.9501 14.64 69.8101 14.79C69.6701 14.93 69.4901 15 69.2701 15C69.0601 15 68.8801 14.93 68.7301 14.79C68.5901 14.64 68.5201 14.455 68.5201 14.235V7.815C68.5201 7.595 68.5901 7.415 68.7301 7.275C68.8801 7.125 69.0601 7.05 69.2701 7.05C69.4901 7.05 69.6701 7.125 69.8101 7.275C69.9501 7.415 70.0201 7.595 70.0201 7.815V14.235ZM69.2551 6.06C68.9651 6.06 68.7551 6.01 68.6251 5.91C68.4951 5.8 68.4301 5.62 68.4301 5.37V5.13C68.4301 4.88 68.5001 4.705 68.6401 4.605C68.7801 4.505 68.9901 4.455 69.2701 4.455C69.5701 4.455 69.7851 4.51 69.9151 4.62C70.0451 4.72 70.1101 4.89 70.1101 5.13V5.37C70.1101 5.63 70.0401 5.81 69.9001 5.91C69.7701 6.01 69.5551 6.06 69.2551 6.06ZM75.7128 15.15C74.8828 15.15 74.1628 14.98 73.5528 14.64C72.9428 14.29 72.4678 13.815 72.1278 13.215C71.7978 12.605 71.6328 11.91 71.6328 11.13C71.6328 10.25 71.8078 9.5 72.1578 8.88C72.5178 8.25 72.9828 7.77 73.5528 7.44C74.1228 7.1 74.7278 6.93 75.3678 6.93C75.8578 6.93 76.3228 7.03 76.7628 7.23C77.2028 7.42 77.5928 7.69 77.9328 8.04C78.2828 8.38 78.5578 8.785 78.7578 9.255C78.9578 9.715 79.0628 10.22 79.0728 10.77C79.0628 10.97 78.9828 11.135 78.8328 11.265C78.6828 11.395 78.5078 11.46 78.3078 11.46H72.4728L72.1128 10.185H77.7528L77.4678 10.455V10.08C77.4478 9.73 77.3328 9.425 77.1228 9.165C76.9128 8.895 76.6528 8.69 76.3428 8.55C76.0328 8.4 75.7078 8.325 75.3678 8.325C75.0678 8.325 74.7778 8.375 74.4978 8.475C74.2278 8.565 73.9828 8.715 73.7628 8.925C73.5528 9.135 73.3828 9.415 73.2528 9.765C73.1328 10.105 73.0728 10.53 73.0728 11.04C73.0728 11.59 73.1878 12.07 73.4178 12.48C73.6478 12.89 73.9578 13.21 74.3478 13.44C74.7378 13.66 75.1678 13.77 75.6378 13.77C76.0078 13.77 76.3128 13.735 76.5528 13.665C76.7928 13.585 76.9928 13.49 77.1528 13.38C77.3128 13.27 77.4528 13.165 77.5728 13.065C77.7228 12.975 77.8728 12.93 78.0228 12.93C78.2028 12.93 78.3528 12.995 78.4728 13.125C78.5928 13.245 78.6528 13.39 78.6528 13.56C78.6528 13.78 78.5428 13.98 78.3228 14.16C78.0528 14.42 77.6778 14.65 77.1978 14.85C76.7278 15.05 76.2328 15.15 75.7128 15.15ZM81.5183 15C81.2983 15 81.1183 14.93 80.9783 14.79C80.8383 14.64 80.7683 14.455 80.7683 14.235V7.875C80.7683 7.655 80.8383 7.475 80.9783 7.335C81.1183 7.185 81.2983 7.11 81.5183 7.11C81.7283 7.11 81.9033 7.185 82.0433 7.335C82.1933 7.475 82.2683 7.655 82.2683 7.875V9.555L82.1183 8.91C82.1983 8.63 82.3183 8.37 82.4783 8.13C82.6483 7.89 82.8483 7.68 83.0783 7.5C83.3083 7.32 83.5633 7.18 83.8433 7.08C84.1333 6.98 84.4333 6.93 84.7433 6.93C85.0033 6.93 85.2283 7 85.4183 7.14C85.6083 7.28 85.7033 7.455 85.7033 7.665C85.7033 7.935 85.6333 8.135 85.4933 8.265C85.3533 8.385 85.1983 8.445 85.0283 8.445C84.8783 8.445 84.7333 8.415 84.5933 8.355C84.4533 8.285 84.2883 8.25 84.0983 8.25C83.8883 8.25 83.6733 8.305 83.4533 8.415C83.2333 8.525 83.0333 8.69 82.8533 8.91C82.6733 9.12 82.5283 9.37 82.4183 9.66C82.3183 9.95 82.2683 10.275 82.2683 10.635V14.235C82.2683 14.455 82.1933 14.64 82.0433 14.79C81.9033 14.93 81.7283 15 81.5183 15Z" fill="#7B677A"/>
<path d="M97.7932 15C97.5632 15 97.3732 14.93 97.2232 14.79C97.0732 14.64 96.9982 14.455 96.9982 14.235V6.195L97.1932 6.465L95.7982 7.44C95.6782 7.54 95.5332 7.59 95.3632 7.59C95.1632 7.59 94.9832 7.515 94.8232 7.365C94.6732 7.205 94.5982 7.02 94.5982 6.81C94.5982 6.55 94.7282 6.335 94.9882 6.165L97.2682 4.65C97.3582 4.59 97.4532 4.55 97.5532 4.53C97.6632 4.51 97.7632 4.5 97.8532 4.5C98.0832 4.5 98.2682 4.575 98.4082 4.725C98.5482 4.865 98.6182 5.045 98.6182 5.265V14.235C98.6182 14.455 98.5382 14.64 98.3782 14.79C98.2282 14.93 98.0332 15 97.7932 15ZM104.585 15.15C103.745 15.15 103.035 14.92 102.455 14.46C101.875 13.99 101.435 13.35 101.135 12.54C100.845 11.72 100.7 10.79 100.7 9.75C100.7 8.7 100.845 7.77 101.135 6.96C101.435 6.14 101.875 5.5 102.455 5.04C103.035 4.58 103.745 4.35 104.585 4.35C105.425 4.35 106.13 4.58 106.7 5.04C107.28 5.5 107.72 6.14 108.02 6.96C108.32 7.77 108.47 8.7 108.47 9.75C108.47 10.79 108.32 11.72 108.02 12.54C107.72 13.35 107.28 13.99 106.7 14.46C106.13 14.92 105.425 15.15 104.585 15.15ZM104.585 13.635C105.055 13.635 105.455 13.485 105.785 13.185C106.125 12.885 106.385 12.445 106.565 11.865C106.755 11.285 106.85 10.58 106.85 9.75C106.85 8.91 106.755 8.2 106.565 7.62C106.385 7.04 106.125 6.6 105.785 6.3C105.455 6 105.055 5.85 104.585 5.85C104.115 5.85 103.71 6 103.37 6.3C103.03 6.6 102.77 7.04 102.59 7.62C102.41 8.2 102.32 8.91 102.32 9.75C102.32 10.58 102.41 11.285 102.59 11.865C102.77 12.445 103.03 12.885 103.37 13.185C103.71 13.485 104.115 13.635 104.585 13.635ZM110.906 9C110.656 9 110.461 8.935 110.321 8.805C110.191 8.665 110.126 8.47 110.126 8.22V7.935C110.126 7.685 110.191 7.49 110.321 7.35C110.461 7.21 110.656 7.14 110.906 7.14H111.071C111.321 7.14 111.511 7.21 111.641 7.35C111.771 7.49 111.836 7.685 111.836 7.935V8.22C111.836 8.47 111.771 8.665 111.641 8.805C111.511 8.935 111.321 9 111.071 9H110.906ZM110.906 15C110.656 15 110.461 14.93 110.321 14.79C110.191 14.65 110.126 14.455 110.126 14.205V13.935C110.126 13.675 110.191 13.48 110.321 13.35C110.461 13.21 110.656 13.14 110.906 13.14H111.071C111.321 13.14 111.511 13.21 111.641 13.35C111.771 13.48 111.836 13.675 111.836 13.935V14.205C111.836 14.455 111.771 14.65 111.641 14.79C111.511 14.93 111.321 15 111.071 15H110.906ZM117.373 15.15C116.533 15.15 115.823 14.92 115.243 14.46C114.663 13.99 114.223 13.35 113.923 12.54C113.633 11.72 113.488 10.79 113.488 9.75C113.488 8.7 113.633 7.77 113.923 6.96C114.223 6.14 114.663 5.5 115.243 5.04C115.823 4.58 116.533 4.35 117.373 4.35C118.213 4.35 118.918 4.58 119.488 5.04C120.068 5.5 120.508 6.14 120.808 6.96C121.108 7.77 121.258 8.7 121.258 9.75C121.258 10.79 121.108 11.72 120.808 12.54C120.508 13.35 120.068 13.99 119.488 14.46C118.918 14.92 118.213 15.15 117.373 15.15ZM117.373 13.635C117.843 13.635 118.243 13.485 118.573 13.185C118.913 12.885 119.173 12.445 119.353 11.865C119.543 11.285 119.638 10.58 119.638 9.75C119.638 8.91 119.543 8.2 119.353 7.62C119.173 7.04 118.913 6.6 118.573 6.3C118.243 6 117.843 5.85 117.373 5.85C116.903 5.85 116.498 6 116.158 6.3C115.818 6.6 115.558 7.04 115.378 7.62C115.198 8.2 115.108 8.91 115.108 9.75C115.108 10.58 115.198 11.285 115.378 11.865C115.558 12.445 115.818 12.885 116.158 13.185C116.498 13.485 116.903 13.635 117.373 13.635ZM126.499 15.15C125.659 15.15 124.949 14.92 124.369 14.46C123.789 13.99 123.349 13.35 123.049 12.54C122.759 11.72 122.614 10.79 122.614 9.75C122.614 8.7 122.759 7.77 123.049 6.96C123.349 6.14 123.789 5.5 124.369 5.04C124.949 4.58 125.659 4.35 126.499 4.35C127.339 4.35 128.044 4.58 128.614 5.04C129.194 5.5 129.634 6.14 129.934 6.96C130.234 7.77 130.384 8.7 130.384 9.75C130.384 10.79 130.234 11.72 129.934 12.54C129.634 13.35 129.194 13.99 128.614 14.46C128.044 14.92 127.339 15.15 126.499 15.15ZM126.499 13.635C126.969 13.635 127.369 13.485 127.699 13.185C128.039 12.885 128.299 12.445 128.479 11.865C128.669 11.285 128.764 10.58 128.764 9.75C128.764 8.91 128.669 8.2 128.479 7.62C128.299 7.04 128.039 6.6 127.699 6.3C127.369 6 126.969 5.85 126.499 5.85C126.029 5.85 125.624 6 125.284 6.3C124.944 6.6 124.684 7.04 124.504 7.62C124.324 8.2 124.234 8.91 124.234 9.75C124.234 10.58 124.324 11.285 124.504 11.865C124.684 12.445 124.944 12.885 125.284 13.185C125.624 13.485 126.029 13.635 126.499 13.635ZM136.785 11.115C136.575 11.115 136.395 11.045 136.245 10.905C136.105 10.755 136.035 10.575 136.035 10.365C136.035 10.145 136.105 9.97 136.245 9.84C136.395 9.7 136.575 9.63 136.785 9.63H139.605C139.815 9.63 139.995 9.705 140.145 9.855C140.295 9.995 140.37 10.175 140.37 10.395C140.37 10.595 140.295 10.765 140.145 10.905C139.995 11.045 139.815 11.115 139.605 11.115H136.785ZM148.828 15C148.598 15 148.408 14.93 148.258 14.79C148.108 14.64 148.033 14.455 148.033 14.235V6.195L148.228 6.465L146.833 7.44C146.713 7.54 146.568 7.59 146.398 7.59C146.198 7.59 146.018 7.515 145.858 7.365C145.708 7.205 145.633 7.02 145.633 6.81C145.633 6.55 145.763 6.335 146.023 6.165L148.303 4.65C148.393 4.59 148.488 4.55 148.588 4.53C148.698 4.51 148.798 4.5 148.888 4.5C149.118 4.5 149.303 4.575 149.443 4.725C149.583 4.865 149.653 5.045 149.653 5.265V14.235C149.653 14.455 149.573 14.64 149.413 14.79C149.263 14.93 149.068 15 148.828 15ZM154.571 15C154.341 15 154.151 14.93 154.001 14.79C153.851 14.64 153.776 14.455 153.776 14.235V6.195L153.971 6.465L152.576 7.44C152.456 7.54 152.311 7.59 152.141 7.59C151.941 7.59 151.761 7.515 151.601 7.365C151.451 7.205 151.376 7.02 151.376 6.81C151.376 6.55 151.506 6.335 151.766 6.165L154.046 4.65C154.136 4.59 154.231 4.55 154.331 4.53C154.441 4.51 154.541 4.5 154.631 4.5C154.861 4.5 155.046 4.575 155.186 4.725C155.326 4.865 155.396 5.045 155.396 5.265V14.235C155.396 14.455 155.316 14.64 155.156 14.79C155.006 14.93 154.811 15 154.571 15ZM158.558 9C158.308 9 158.113 8.935 157.973 8.805C157.843 8.665 157.778 8.47 157.778 8.22V7.935C157.778 7.685 157.843 7.49 157.973 7.35C158.113 7.21 158.308 7.14 158.558 7.14H158.723C158.973 7.14 159.163 7.21 159.293 7.35C159.423 7.49 159.488 7.685 159.488 7.935V8.22C159.488 8.47 159.423 8.665 159.293 8.805C159.163 8.935 158.973 9 158.723 9H158.558ZM158.558 15C158.308 15 158.113 14.93 157.973 14.79C157.843 14.65 157.778 14.455 157.778 14.205V13.935C157.778 13.675 157.843 13.48 157.973 13.35C158.113 13.21 158.308 13.14 158.558 13.14H158.723C158.973 13.14 159.163 13.21 159.293 13.35C159.423 13.48 159.488 13.675 159.488 13.935V14.205C159.488 14.455 159.423 14.65 159.293 14.79C159.163 14.93 158.973 15 158.723 15H158.558ZM165.025 15.15C164.185 15.15 163.475 14.92 162.895 14.46C162.315 13.99 161.875 13.35 161.575 12.54C161.285 11.72 161.14 10.79 161.14 9.75C161.14 8.7 161.285 7.77 161.575 6.96C161.875 6.14 162.315 5.5 162.895 5.04C163.475 4.58 164.185 4.35 165.025 4.35C165.865 4.35 166.57 4.58 167.14 5.04C167.72 5.5 168.16 6.14 168.46 6.96C168.76 7.77 168.91 8.7 168.91 9.75C168.91 10.79 168.76 11.72 168.46 12.54C168.16 13.35 167.72 13.99 167.14 14.46C166.57 14.92 165.865 15.15 165.025 15.15ZM165.025 13.635C165.495 13.635 165.895 13.485 166.225 13.185C166.565 12.885 166.825 12.445 167.005 11.865C167.195 11.285 167.29 10.58 167.29 9.75C167.29 8.91 167.195 8.2 167.005 7.62C166.825 7.04 166.565 6.6 166.225 6.3C165.895 6 165.495 5.85 165.025 5.85C164.555 5.85 164.15 6 163.81 6.3C163.47 6.6 163.21 7.04 163.03 7.62C162.85 8.2 162.76 8.91 162.76 9.75C162.76 10.58 162.85 11.285 163.03 11.865C163.21 12.445 163.47 12.885 163.81 13.185C164.15 13.485 164.555 13.635 165.025 13.635ZM174.151 15.15C173.311 15.15 172.601 14.92 172.021 14.46C171.441 13.99 171.001 13.35 170.701 12.54C170.411 11.72 170.266 10.79 170.266 9.75C170.266 8.7 170.411 7.77 170.701 6.96C171.001 6.14 171.441 5.5 172.021 5.04C172.601 4.58 173.311 4.35 174.151 4.35C174.991 4.35 175.696 4.58 176.266 5.04C176.846 5.5 177.286 6.14 177.586 6.96C177.886 7.77 178.036 8.7 178.036 9.75C178.036 10.79 177.886 11.72 177.586 12.54C177.286 13.35 176.846 13.99 176.266 14.46C175.696 14.92 174.991 15.15 174.151 15.15ZM174.151 13.635C174.621 13.635 175.021 13.485 175.351 13.185C175.691 12.885 175.951 12.445 176.131 11.865C176.321 11.285 176.416 10.58 176.416 9.75C176.416 8.91 176.321 8.2 176.131 7.62C175.951 7.04 175.691 6.6 175.351 6.3C175.021 6 174.621 5.85 174.151 5.85C173.681 5.85 173.276 6 172.936 6.3C172.596 6.6 172.336 7.04 172.156 7.62C171.976 8.2 171.886 8.91 171.886 9.75C171.886 10.58 171.976 11.285 172.156 11.865C172.336 12.445 172.596 12.885 172.936 13.185C173.276 13.485 173.681 13.635 174.151 13.635Z" fill="#7B677A"/>
<path d="M5.56477 23.5C6.11477 23.5 6.60977 23.635 7.04977 23.905C7.48977 24.175 7.83477 24.545 8.08477 25.015C8.34477 25.485 8.47477 26.02 8.47477 26.62C8.47477 27.21 8.34477 27.745 8.08477 28.225C7.83477 28.705 7.48977 29.085 7.04977 29.365C6.60977 29.645 6.11477 29.785 5.56477 29.785H2.51977L2.62477 29.605V33.385C2.62477 33.555 2.56977 33.7 2.45977 33.82C2.34977 33.94 2.20977 34 2.03977 34C1.85977 34 1.71477 33.94 1.60477 33.82C1.50477 33.7 1.45477 33.555 1.45477 33.385V24.1C1.45477 23.93 1.50977 23.79 1.61977 23.68C1.73977 23.56 1.88477 23.5 2.05477 23.5H5.56477ZM5.56477 28.63C5.89477 28.63 6.18477 28.54 6.43477 28.36C6.68477 28.18 6.88477 27.935 7.03477 27.625C7.18477 27.315 7.25977 26.98 7.25977 26.62C7.25977 26.24 7.18477 25.905 7.03477 25.615C6.88477 25.325 6.68477 25.095 6.43477 24.925C6.18477 24.745 5.89477 24.655 5.56477 24.655H2.51977L2.62477 24.49V28.78L2.51977 28.63H5.56477ZM17.4428 30.1C17.4428 30.88 17.2678 31.575 16.9178 32.185C16.5778 32.795 16.1128 33.275 15.5228 33.625C14.9428 33.975 14.2878 34.15 13.5578 34.15C12.8278 34.15 12.1678 33.975 11.5778 33.625C10.9878 33.275 10.5178 32.795 10.1678 32.185C9.82777 31.575 9.65777 30.88 9.65777 30.1C9.65777 29.32 9.82777 28.625 10.1678 28.015C10.5178 27.405 10.9878 26.925 11.5778 26.575C12.1678 26.225 12.8278 26.05 13.5578 26.05C14.2878 26.05 14.9428 26.225 15.5228 26.575C16.1128 26.925 16.5778 27.405 16.9178 28.015C17.2678 28.625 17.4428 29.32 17.4428 30.1ZM16.2428 30.1C16.2428 29.52 16.1228 29.01 15.8828 28.57C15.6528 28.13 15.3328 27.785 14.9228 27.535C14.5228 27.285 14.0678 27.16 13.5578 27.16C13.0478 27.16 12.5878 27.285 12.1778 27.535C11.7778 27.785 11.4578 28.13 11.2178 28.57C10.9778 29.01 10.8578 29.52 10.8578 30.1C10.8578 30.67 10.9778 31.175 11.2178 31.615C11.4578 32.055 11.7778 32.405 12.1778 32.665C12.5878 32.915 13.0478 33.04 13.5578 33.04C14.0678 33.04 14.5228 32.915 14.9228 32.665C15.3328 32.405 15.6528 32.055 15.8828 31.615C16.1228 31.175 16.2428 30.67 16.2428 30.1ZM20.4027 33.385C20.4027 33.555 20.3427 33.7 20.2227 33.82C20.1127 33.94 19.9727 34 19.8027 34C19.6227 34 19.4777 33.94 19.3677 33.82C19.2577 33.7 19.2027 33.555 19.2027 33.385V26.725C19.2027 26.555 19.2577 26.415 19.3677 26.305C19.4877 26.185 19.6327 26.125 19.8027 26.125C19.9727 26.125 20.1127 26.185 20.2227 26.305C20.3427 26.415 20.4027 26.555 20.4027 26.725V33.385ZM19.8027 25.12C19.5527 25.12 19.3677 25.07 19.2477 24.97C19.1277 24.87 19.0677 24.715 19.0677 24.505V24.295C19.0677 24.085 19.1327 23.93 19.2627 23.83C19.3927 23.73 19.5777 23.68 19.8177 23.68C20.0577 23.68 20.2377 23.73 20.3577 23.83C20.4777 23.93 20.5377 24.085 20.5377 24.295V24.505C20.5377 24.715 20.4727 24.87 20.3427 24.97C20.2227 25.07 20.0427 25.12 19.8027 25.12ZM26.4132 26.05C27.0932 26.05 27.6282 26.19 28.0182 26.47C28.4082 26.75 28.6832 27.125 28.8432 27.595C29.0132 28.065 29.0982 28.59 29.0982 29.17V33.385C29.0982 33.555 29.0382 33.7 28.9182 33.82C28.8082 33.94 28.6682 34 28.4982 34C28.3282 34 28.1832 33.94 28.0632 33.82C27.9532 33.7 27.8982 33.555 27.8982 33.385V29.2C27.8982 28.82 27.8382 28.48 27.7182 28.18C27.6082 27.87 27.4182 27.625 27.1482 27.445C26.8882 27.255 26.5282 27.16 26.0682 27.16C25.6482 27.16 25.2632 27.255 24.9132 27.445C24.5632 27.625 24.2832 27.87 24.0732 28.18C23.8632 28.48 23.7582 28.82 23.7582 29.2V33.385C23.7582 33.555 23.6982 33.7 23.5782 33.82C23.4682 33.94 23.3282 34 23.1582 34C22.9882 34 22.8432 33.94 22.7232 33.82C22.6132 33.7 22.5582 33.555 22.5582 33.385V26.845C22.5582 26.675 22.6132 26.535 22.7232 26.425C22.8432 26.305 22.9882 26.245 23.1582 26.245C23.3382 26.245 23.4832 26.305 23.5932 26.425C23.7032 26.535 23.7582 26.675 23.7582 26.845V27.91L23.4582 28.24C23.5082 27.98 23.6232 27.72 23.8032 27.46C23.9832 27.19 24.2082 26.95 24.4782 26.74C24.7482 26.53 25.0482 26.365 25.3782 26.245C25.7082 26.115 26.0532 26.05 26.4132 26.05ZM31.018 26.29H34.543C34.703 26.29 34.833 26.345 34.933 26.455C35.043 26.565 35.098 26.695 35.098 26.845C35.098 27.005 35.043 27.14 34.933 27.25C34.833 27.35 34.703 27.4 34.543 27.4H31.018C30.868 27.4 30.738 27.345 30.628 27.235C30.518 27.125 30.463 26.99 30.463 26.83C30.463 26.68 30.518 26.555 30.628 26.455C30.738 26.345 30.868 26.29 31.018 26.29ZM32.593 24.25C32.763 24.25 32.903 24.31 33.013 24.43C33.123 24.54 33.178 24.68 33.178 24.85V32.095C33.178 32.335 33.213 32.515 33.283 32.635C33.353 32.755 33.443 32.84 33.553 32.89C33.673 32.93 33.788 32.95 33.898 32.95C33.998 32.95 34.083 32.935 34.153 32.905C34.233 32.865 34.323 32.845 34.423 32.845C34.523 32.845 34.613 32.895 34.693 32.995C34.783 33.085 34.828 33.205 34.828 33.355C34.828 33.535 34.723 33.69 34.513 33.82C34.303 33.94 34.068 34 33.808 34C33.668 34 33.493 33.99 33.283 33.97C33.083 33.95 32.883 33.885 32.683 33.775C32.483 33.665 32.313 33.485 32.173 33.235C32.043 32.975 31.978 32.615 31.978 32.155V24.85C31.978 24.68 32.038 24.54 32.158 24.43C32.278 24.31 32.423 24.25 32.593 24.25ZM44.6031 26.125C45.2831 26.125 45.8331 26.3 46.2531 26.65C46.6831 26.99 46.9681 27.475 47.1081 28.105H46.8831L46.9881 27.835C47.1081 27.555 47.3131 27.285 47.6031 27.025C47.8931 26.765 48.2281 26.55 48.6081 26.38C48.9881 26.21 49.3831 26.125 49.7931 26.125C50.4531 26.125 50.9731 26.27 51.3531 26.56C51.7331 26.84 52.0031 27.22 52.1631 27.7C52.3331 28.17 52.4181 28.7 52.4181 29.29V33.385C52.4181 33.555 52.3581 33.7 52.2381 33.82C52.1281 33.94 51.9881 34 51.8181 34C51.6381 34 51.4931 33.94 51.3831 33.82C51.2731 33.7 51.2181 33.555 51.2181 33.385V29.32C51.2181 28.93 51.1581 28.58 51.0381 28.27C50.9281 27.95 50.7431 27.7 50.4831 27.52C50.2331 27.33 49.8881 27.235 49.4481 27.235C49.0381 27.235 48.6631 27.33 48.3231 27.52C47.9831 27.7 47.7131 27.95 47.5131 28.27C47.3131 28.58 47.2131 28.93 47.2131 29.32V33.385C47.2131 33.555 47.1581 33.7 47.0481 33.82C46.9381 33.94 46.7931 34 46.6131 34C46.4431 34 46.2981 33.94 46.1781 33.82C46.0681 33.7 46.0131 33.555 46.0131 33.385V29.275C46.0131 28.895 45.9581 28.555 45.8481 28.255C45.7481 27.945 45.5731 27.7 45.3231 27.52C45.0731 27.33 44.7281 27.235 44.2881 27.235C43.8881 27.235 43.5231 27.33 43.1931 27.52C42.8631 27.7 42.5981 27.945 42.3981 28.255C42.1981 28.555 42.0981 28.895 42.0981 29.275V33.385C42.0981 33.555 42.0381 33.7 41.9181 33.82C41.8081 33.94 41.6681 34 41.4981 34C41.3281 34 41.1831 33.94 41.0631 33.82C40.9531 33.7 40.8981 33.555 40.8981 33.385V26.845C40.8981 26.675 40.9531 26.535 41.0631 26.425C41.1831 26.305 41.3281 26.245 41.4981 26.245C41.6781 26.245 41.8231 26.305 41.9331 26.425C42.0431 26.535 42.0981 26.675 42.0981 26.845V27.985L41.7681 28.345C41.8081 28.085 41.9081 27.825 42.0681 27.565C42.2381 27.305 42.4531 27.065 42.7131 26.845C42.9731 26.625 43.2631 26.45 43.5831 26.32C43.9031 26.19 44.2431 26.125 44.6031 26.125ZM58.2233 34.15C57.4233 34.15 56.7233 33.98 56.1233 33.64C55.5233 33.3 55.0533 32.835 54.7133 32.245C54.3833 31.645 54.2183 30.955 54.2183 30.175C54.2183 29.305 54.3883 28.565 54.7283 27.955C55.0783 27.335 55.5283 26.865 56.0783 26.545C56.6383 26.215 57.2283 26.05 57.8483 26.05C58.3083 26.05 58.7533 26.135 59.1833 26.305C59.6133 26.475 59.9933 26.725 60.3233 27.055C60.6533 27.375 60.9183 27.765 61.1183 28.225C61.3183 28.675 61.4233 29.18 61.4333 29.74C61.4333 29.9 61.3733 30.035 61.2533 30.145C61.1333 30.255 60.9933 30.31 60.8333 30.31H54.9083L54.6383 29.275H60.4133L60.1733 29.485V29.155C60.1333 28.745 59.9933 28.395 59.7533 28.105C59.5233 27.805 59.2383 27.575 58.8983 27.415C58.5683 27.255 58.2183 27.175 57.8483 27.175C57.5483 27.175 57.2483 27.23 56.9483 27.34C56.6583 27.44 56.3933 27.61 56.1533 27.85C55.9233 28.08 55.7333 28.38 55.5833 28.75C55.4433 29.12 55.3733 29.565 55.3733 30.085C55.3733 30.665 55.4883 31.175 55.7183 31.615C55.9583 32.055 56.2883 32.405 56.7083 32.665C57.1283 32.915 57.6183 33.04 58.1783 33.04C58.5283 33.04 58.8333 32.995 59.0933 32.905C59.3533 32.815 59.5783 32.705 59.7683 32.575C59.9583 32.435 60.1183 32.295 60.2483 32.155C60.3783 32.065 60.5033 32.02 60.6233 32.02C60.7733 32.02 60.8933 32.07 60.9833 32.17C61.0833 32.27 61.1333 32.39 61.1333 32.53C61.1333 32.7 61.0533 32.85 60.8933 32.98C60.6133 33.29 60.2333 33.565 59.7533 33.805C59.2733 34.035 58.7633 34.15 58.2233 34.15ZM67.092 26.05C67.772 26.05 68.307 26.19 68.697 26.47C69.087 26.75 69.362 27.125 69.522 27.595C69.692 28.065 69.777 28.59 69.777 29.17V33.385C69.777 33.555 69.717 33.7 69.597 33.82C69.487 33.94 69.347 34 69.177 34C69.007 34 68.862 33.94 68.742 33.82C68.632 33.7 68.577 33.555 68.577 33.385V29.2C68.577 28.82 68.517 28.48 68.397 28.18C68.287 27.87 68.097 27.625 67.827 27.445C67.567 27.255 67.207 27.16 66.747 27.16C66.327 27.16 65.942 27.255 65.592 27.445C65.242 27.625 64.962 27.87 64.752 28.18C64.542 28.48 64.437 28.82 64.437 29.2V33.385C64.437 33.555 64.377 33.7 64.257 33.82C64.147 33.94 64.007 34 63.837 34C63.667 34 63.522 33.94 63.402 33.82C63.292 33.7 63.237 33.555 63.237 33.385V26.845C63.237 26.675 63.292 26.535 63.402 26.425C63.522 26.305 63.667 26.245 63.837 26.245C64.017 26.245 64.162 26.305 64.272 26.425C64.382 26.535 64.437 26.675 64.437 26.845V27.91L64.137 28.24C64.187 27.98 64.302 27.72 64.482 27.46C64.662 27.19 64.887 26.95 65.157 26.74C65.427 26.53 65.727 26.365 66.057 26.245C66.387 26.115 66.732 26.05 67.092 26.05ZM71.5617 32.77C71.4717 32.64 71.4317 32.505 71.4417 32.365C71.4517 32.215 71.5367 32.085 71.6967 31.975C71.7967 31.905 71.9117 31.875 72.0417 31.885C72.1817 31.895 72.3067 31.96 72.4167 32.08C72.6967 32.41 73.0167 32.675 73.3767 32.875C73.7367 33.065 74.1767 33.16 74.6967 33.16C74.9367 33.15 75.1767 33.11 75.4167 33.04C75.6567 32.97 75.8567 32.85 76.0167 32.68C76.1867 32.5 76.2717 32.265 76.2717 31.975C76.2717 31.695 76.1867 31.475 76.0167 31.315C75.8467 31.145 75.6267 31.01 75.3567 30.91C75.0867 30.8 74.7917 30.705 74.4717 30.625C74.1417 30.535 73.8167 30.435 73.4967 30.325C73.1767 30.205 72.8867 30.06 72.6267 29.89C72.3767 29.71 72.1717 29.49 72.0117 29.23C71.8617 28.96 71.7867 28.635 71.7867 28.255C71.7867 27.805 71.9067 27.415 72.1467 27.085C72.3967 26.755 72.7267 26.5 73.1367 26.32C73.5567 26.14 74.0117 26.05 74.5017 26.05C74.7817 26.05 75.0717 26.085 75.3717 26.155C75.6817 26.215 75.9817 26.325 76.2717 26.485C76.5617 26.635 76.8167 26.845 77.0367 27.115C77.1267 27.215 77.1767 27.34 77.1867 27.49C77.1967 27.64 77.1317 27.775 76.9917 27.895C76.8817 27.975 76.7567 28.01 76.6167 28C76.4867 27.99 76.3767 27.94 76.2867 27.85C76.0767 27.6 75.8117 27.41 75.4917 27.28C75.1817 27.14 74.8367 27.07 74.4567 27.07C74.2167 27.07 73.9817 27.105 73.7517 27.175C73.5217 27.245 73.3267 27.365 73.1667 27.535C73.0167 27.695 72.9417 27.92 72.9417 28.21C72.9517 28.48 73.0417 28.7 73.2117 28.87C73.3817 29.04 73.6117 29.18 73.9017 29.29C74.1917 29.39 74.5117 29.49 74.8617 29.59C75.1817 29.67 75.4867 29.765 75.7767 29.875C76.0767 29.975 76.3467 30.11 76.5867 30.28C76.8267 30.45 77.0167 30.67 77.1567 30.94C77.2967 31.2 77.3667 31.53 77.3667 31.93C77.3667 32.39 77.2367 32.79 76.9767 33.13C76.7167 33.46 76.3717 33.715 75.9417 33.895C75.5217 34.065 75.0667 34.15 74.5767 34.15C74.0267 34.15 73.4817 34.045 72.9417 33.835C72.4117 33.625 71.9517 33.27 71.5617 32.77ZM84.9062 26.245C85.0862 26.245 85.2312 26.305 85.3412 26.425C85.4512 26.535 85.5062 26.675 85.5062 26.845V30.94C85.5062 31.95 85.2212 32.735 84.6512 33.295C84.0912 33.845 83.3062 34.12 82.2962 34.12C81.2962 34.12 80.5112 33.845 79.9412 33.295C79.3812 32.735 79.1012 31.95 79.1012 30.94V26.845C79.1012 26.675 79.1562 26.535 79.2662 26.425C79.3862 26.305 79.5312 26.245 79.7012 26.245C79.8812 26.245 80.0262 26.305 80.1362 26.425C80.2462 26.535 80.3012 26.675 80.3012 26.845V30.94C80.3012 31.62 80.4762 32.135 80.8262 32.485C81.1762 32.835 81.6662 33.01 82.2962 33.01C82.9462 33.01 83.4412 32.835 83.7812 32.485C84.1312 32.135 84.3062 31.62 84.3062 30.94V26.845C84.3062 26.675 84.3612 26.535 84.4712 26.425C84.5912 26.305 84.7362 26.245 84.9062 26.245ZM91.3141 34.15C90.5141 34.15 89.8141 33.98 89.2141 33.64C88.6141 33.3 88.1441 32.835 87.8041 32.245C87.4741 31.645 87.3091 30.955 87.3091 30.175C87.3091 29.305 87.4791 28.565 87.8191 27.955C88.1691 27.335 88.6191 26.865 89.1691 26.545C89.7291 26.215 90.3191 26.05 90.9391 26.05C91.3991 26.05 91.8441 26.135 92.2741 26.305C92.7041 26.475 93.0841 26.725 93.4141 27.055C93.7441 27.375 94.0091 27.765 94.2091 28.225C94.4091 28.675 94.5141 29.18 94.5241 29.74C94.5241 29.9 94.4641 30.035 94.3441 30.145C94.2241 30.255 94.0841 30.31 93.9241 30.31H87.9991L87.7291 29.275H93.5041L93.2641 29.485V29.155C93.2241 28.745 93.0841 28.395 92.8441 28.105C92.6141 27.805 92.3291 27.575 91.9891 27.415C91.6591 27.255 91.3091 27.175 90.9391 27.175C90.6391 27.175 90.3391 27.23 90.0391 27.34C89.7491 27.44 89.4841 27.61 89.2441 27.85C89.0141 28.08 88.8241 28.38 88.6741 28.75C88.5341 29.12 88.4641 29.565 88.4641 30.085C88.4641 30.665 88.5791 31.175 88.8091 31.615C89.0491 32.055 89.3791 32.405 89.7991 32.665C90.2191 32.915 90.7091 33.04 91.2691 33.04C91.6191 33.04 91.9241 32.995 92.1841 32.905C92.4441 32.815 92.6691 32.705 92.8591 32.575C93.0491 32.435 93.2091 32.295 93.3391 32.155C93.4691 32.065 93.5941 32.02 93.7141 32.02C93.8641 32.02 93.9841 32.07 94.0741 32.17C94.1741 32.27 94.2241 32.39 94.2241 32.53C94.2241 32.7 94.1441 32.85 93.9841 32.98C93.7041 33.29 93.3241 33.565 92.8441 33.805C92.3641 34.035 91.8541 34.15 91.3141 34.15ZM97.6478 33.385C97.6478 33.555 97.5878 33.7 97.4678 33.82C97.3478 33.94 97.2028 34 97.0328 34C96.8628 34 96.7228 33.94 96.6128 33.82C96.5028 33.7 96.4478 33.555 96.4478 33.385V23.5C96.4478 23.33 96.5028 23.19 96.6128 23.08C96.7328 22.96 96.8778 22.9 97.0478 22.9C97.2278 22.9 97.3728 22.96 97.4828 23.08C97.5928 23.19 97.6478 23.33 97.6478 23.5V33.385Z" fill="black"/>
<path d="M1.536 51C1.416 51 1.316 50.964 1.236 50.892C1.164 50.82 1.128 50.736 1.128 50.64V42.96C1.128 42.864 1.164 42.78 1.236 42.708C1.308 42.636 1.392 42.6 1.488 42.6H4.728C5.184 42.6 5.592 42.7 5.952 42.9C6.312 43.092 6.592 43.36 6.792 43.704C7 44.048 7.104 44.436 7.104 44.868C7.104 45.22 7.04 45.544 6.912 45.84C6.784 46.136 6.604 46.388 6.372 46.596C6.14 46.796 5.88 46.944 5.592 47.04L5.172 46.908C5.468 46.932 5.744 47.028 6 47.196C6.256 47.356 6.46 47.58 6.612 47.868C6.772 48.148 6.856 48.488 6.864 48.888C6.872 49.232 6.888 49.5 6.912 49.692C6.944 49.884 6.988 50.028 7.044 50.124C7.1 50.22 7.172 50.296 7.26 50.352C7.34 50.4 7.392 50.468 7.416 50.556C7.448 50.644 7.44 50.728 7.392 50.808C7.36 50.872 7.312 50.92 7.248 50.952C7.192 50.976 7.132 50.988 7.068 50.988C7.004 50.988 6.94 50.972 6.876 50.94C6.764 50.876 6.648 50.776 6.528 50.64C6.416 50.504 6.32 50.304 6.24 50.04C6.168 49.776 6.132 49.408 6.132 48.936C6.132 48.624 6.08 48.368 5.976 48.168C5.88 47.968 5.752 47.816 5.592 47.712C5.44 47.6 5.268 47.524 5.076 47.484C4.892 47.436 4.716 47.412 4.548 47.412H1.752L1.884 47.244V50.64C1.884 50.736 1.852 50.82 1.788 50.892C1.724 50.964 1.64 51 1.536 51ZM1.752 46.752H4.764C5.036 46.728 5.292 46.64 5.532 46.488C5.772 46.328 5.964 46.112 6.108 45.84C6.26 45.568 6.336 45.252 6.336 44.892C6.336 44.436 6.18 44.06 5.868 43.764C5.564 43.46 5.164 43.308 4.668 43.308H1.8L1.884 43.14V46.92L1.752 46.752ZM11.7005 51.12C11.0845 51.12 10.5405 50.988 10.0685 50.724C9.59647 50.46 9.22847 50.092 8.96447 49.62C8.70047 49.148 8.56847 48.596 8.56847 47.964C8.56847 47.284 8.70047 46.704 8.96447 46.224C9.23647 45.744 9.58447 45.376 10.0085 45.12C10.4405 44.856 10.8965 44.724 11.3765 44.724C11.7285 44.724 12.0685 44.788 12.3965 44.916C12.7325 45.036 13.0285 45.22 13.2845 45.468C13.5485 45.708 13.7565 46.004 13.9085 46.356C14.0685 46.708 14.1565 47.116 14.1725 47.58C14.1645 47.676 14.1245 47.76 14.0525 47.832C13.9805 47.896 13.8965 47.928 13.8005 47.928H8.98847L8.84447 47.28H13.5725L13.4165 47.424V47.184C13.3845 46.808 13.2645 46.488 13.0565 46.224C12.8485 45.96 12.5965 45.76 12.3005 45.624C12.0045 45.488 11.6965 45.42 11.3765 45.42C11.1365 45.42 10.8885 45.468 10.6325 45.564C10.3845 45.66 10.1565 45.812 9.94847 46.02C9.74847 46.22 9.58447 46.48 9.45647 46.8C9.32847 47.112 9.26447 47.484 9.26447 47.916C9.26447 48.388 9.36047 48.816 9.55247 49.2C9.74447 49.584 10.0205 49.888 10.3805 50.112C10.7485 50.336 11.1845 50.448 11.6885 50.448C11.9685 50.448 12.2205 50.408 12.4445 50.328C12.6685 50.248 12.8645 50.144 13.0325 50.016C13.2005 49.88 13.3405 49.74 13.4525 49.596C13.5405 49.524 13.6285 49.488 13.7165 49.488C13.7965 49.488 13.8645 49.52 13.9205 49.584C13.9845 49.648 14.0165 49.72 14.0165 49.8C14.0165 49.896 13.9765 49.98 13.8965 50.052C13.6565 50.34 13.3445 50.592 12.9605 50.808C12.5765 51.016 12.1565 51.12 11.7005 51.12ZM15.511 44.736C15.575 44.736 15.639 44.756 15.703 44.796C15.767 44.836 15.815 44.896 15.847 44.976L17.947 49.968L17.791 50.064L19.939 44.976C20.003 44.816 20.119 44.74 20.287 44.748C20.367 44.748 20.443 44.776 20.515 44.832C20.587 44.88 20.623 44.952 20.623 45.048C20.623 45.096 20.615 45.136 20.599 45.168C20.591 45.192 20.583 45.22 20.575 45.252L18.223 50.772C18.159 50.916 18.051 50.992 17.899 51C17.827 51.008 17.755 50.992 17.683 50.952C17.619 50.904 17.571 50.844 17.539 50.772L15.175 45.252C15.167 45.236 15.159 45.212 15.151 45.18C15.143 45.148 15.139 45.116 15.139 45.084C15.139 44.996 15.171 44.916 15.235 44.844C15.299 44.772 15.391 44.736 15.511 44.736ZM27.66 47.928C27.66 48.536 27.528 49.084 27.264 49.572C27 50.052 26.64 50.432 26.184 50.712C25.728 50.984 25.208 51.12 24.624 51.12C24.056 51.12 23.54 50.984 23.076 50.712C22.62 50.432 22.256 50.052 21.984 49.572C21.72 49.084 21.588 48.536 21.588 47.928C21.588 47.312 21.72 46.764 21.984 46.284C22.256 45.804 22.62 45.424 23.076 45.144C23.54 44.864 24.056 44.724 24.624 44.724C25.208 44.724 25.728 44.864 26.184 45.144C26.64 45.424 27 45.804 27.264 46.284C27.528 46.764 27.66 47.312 27.66 47.928ZM26.94 47.928C26.94 47.44 26.84 47.008 26.64 46.632C26.44 46.248 26.164 45.948 25.812 45.732C25.468 45.508 25.072 45.396 24.624 45.396C24.192 45.396 23.8 45.508 23.448 45.732C23.096 45.948 22.816 46.248 22.608 46.632C22.408 47.008 22.308 47.44 22.308 47.928C22.308 48.416 22.408 48.848 22.608 49.224C22.816 49.6 23.096 49.9 23.448 50.124C23.8 50.34 24.192 50.448 24.624 50.448C25.072 50.448 25.468 50.34 25.812 50.124C26.164 49.9 26.44 49.6 26.64 49.224C26.84 48.848 26.94 48.416 26.94 47.928ZM29.8862 50.64C29.8862 50.736 29.8502 50.82 29.7782 50.892C29.7062 50.964 29.6222 51 29.5262 51C29.4222 51 29.3342 50.964 29.2622 50.892C29.1982 50.82 29.1662 50.736 29.1662 50.64V45.12C29.1662 45.024 29.1982 44.94 29.2622 44.868C29.3342 44.796 29.4222 44.76 29.5262 44.76C29.6302 44.76 29.7142 44.796 29.7782 44.868C29.8502 44.94 29.8862 45.024 29.8862 45.12V50.64ZM29.5262 43.956C29.3582 43.956 29.2302 43.92 29.1422 43.848C29.0622 43.768 29.0222 43.656 29.0222 43.512V43.392C29.0222 43.248 29.0662 43.14 29.1542 43.068C29.2502 42.988 29.3782 42.948 29.5382 42.948C29.6902 42.948 29.8062 42.988 29.8862 43.068C29.9742 43.14 30.0182 43.248 30.0182 43.392V43.512C30.0182 43.656 29.9742 43.768 29.8862 43.848C29.8062 43.92 29.6862 43.956 29.5262 43.956ZM32.1166 51C32.0046 51 31.9166 50.964 31.8526 50.892C31.7886 50.82 31.7566 50.736 31.7566 50.64V45.264C31.7566 45.168 31.7886 45.084 31.8526 45.012C31.9246 44.94 32.0126 44.904 32.1166 44.904C32.2206 44.904 32.3046 44.94 32.3686 45.012C32.4406 45.084 32.4766 45.168 32.4766 45.264V47.064L32.2966 47.1C32.3206 46.82 32.3886 46.544 32.5006 46.272C32.6206 45.992 32.7806 45.736 32.9806 45.504C33.1806 45.272 33.4166 45.084 33.6886 44.94C33.9686 44.796 34.2806 44.724 34.6246 44.724C34.7686 44.724 34.9086 44.756 35.0446 44.82C35.1806 44.876 35.2486 44.972 35.2486 45.108C35.2486 45.228 35.2166 45.32 35.1526 45.384C35.0886 45.448 35.0126 45.48 34.9246 45.48C34.8526 45.48 34.7726 45.46 34.6846 45.42C34.6046 45.38 34.4966 45.36 34.3606 45.36C34.1366 45.36 33.9126 45.428 33.6886 45.564C33.4646 45.692 33.2606 45.868 33.0766 46.092C32.8926 46.316 32.7446 46.568 32.6326 46.848C32.5286 47.12 32.4766 47.396 32.4766 47.676V50.64C32.4766 50.736 32.4406 50.82 32.3686 50.892C32.2966 50.964 32.2126 51 32.1166 51ZM44.683 44.868C44.787 44.868 44.871 44.904 44.935 44.976C45.007 45.048 45.043 45.136 45.043 45.24V50.64C45.043 50.736 45.007 50.82 44.935 50.892C44.863 50.964 44.779 51 44.683 51C44.579 51 44.491 50.964 44.419 50.892C44.355 50.82 44.323 50.736 44.323 50.64V49.212L44.527 49.116C44.527 49.34 44.463 49.568 44.335 49.8C44.215 50.032 44.047 50.248 43.831 50.448C43.615 50.648 43.359 50.812 43.063 50.94C42.775 51.06 42.463 51.12 42.127 51.12C41.583 51.12 41.095 50.98 40.663 50.7C40.239 50.42 39.903 50.036 39.655 49.548C39.415 49.06 39.295 48.512 39.295 47.904C39.295 47.28 39.419 46.732 39.667 46.26C39.915 45.78 40.251 45.404 40.675 45.132C41.099 44.86 41.579 44.724 42.115 44.724C42.459 44.724 42.779 44.784 43.075 44.904C43.379 45.024 43.643 45.188 43.867 45.396C44.091 45.604 44.263 45.844 44.383 46.116C44.511 46.38 44.575 46.656 44.575 46.944L44.323 46.764V45.24C44.323 45.136 44.355 45.048 44.419 44.976C44.491 44.904 44.579 44.868 44.683 44.868ZM42.187 50.448C42.611 50.448 42.987 50.34 43.315 50.124C43.643 49.9 43.899 49.596 44.083 49.212C44.275 48.82 44.371 48.384 44.371 47.904C44.371 47.432 44.275 47.008 44.083 46.632C43.899 46.256 43.643 45.956 43.315 45.732C42.987 45.508 42.611 45.396 42.187 45.396C41.771 45.396 41.395 45.504 41.059 45.72C40.731 45.936 40.471 46.232 40.279 46.608C40.095 46.984 40.003 47.416 40.003 47.904C40.003 48.384 40.095 48.82 40.279 49.212C40.471 49.596 40.731 49.9 41.059 50.124C41.387 50.34 41.763 50.448 42.187 50.448ZM46.6478 44.736C46.7118 44.736 46.7758 44.756 46.8398 44.796C46.9038 44.836 46.9518 44.896 46.9838 44.976L49.0838 49.968L48.9277 50.064L51.0758 44.976C51.1398 44.816 51.2558 44.74 51.4238 44.748C51.5038 44.748 51.5798 44.776 51.6518 44.832C51.7238 44.88 51.7598 44.952 51.7598 45.048C51.7598 45.096 51.7518 45.136 51.7358 45.168C51.7278 45.192 51.7198 45.22 51.7118 45.252L49.3598 50.772C49.2958 50.916 49.1878 50.992 49.0358 51C48.9638 51.008 48.8918 50.992 48.8198 50.952C48.7558 50.904 48.7078 50.844 48.6758 50.772L46.3118 45.252C46.3038 45.236 46.2958 45.212 46.2878 45.18C46.2798 45.148 46.2758 45.116 46.2758 45.084C46.2758 44.996 46.3078 44.916 46.3718 44.844C46.4358 44.772 46.5278 44.736 46.6478 44.736ZM55.8567 51.12C55.2407 51.12 54.6967 50.988 54.2247 50.724C53.7527 50.46 53.3847 50.092 53.1207 49.62C52.8567 49.148 52.7247 48.596 52.7247 47.964C52.7247 47.284 52.8567 46.704 53.1207 46.224C53.3927 45.744 53.7407 45.376 54.1647 45.12C54.5967 44.856 55.0527 44.724 55.5327 44.724C55.8847 44.724 56.2247 44.788 56.5527 44.916C56.8887 45.036 57.1847 45.22 57.4407 45.468C57.7047 45.708 57.9127 46.004 58.0647 46.356C58.2247 46.708 58.3127 47.116 58.3287 47.58C58.3207 47.676 58.2807 47.76 58.2087 47.832C58.1367 47.896 58.0527 47.928 57.9567 47.928H53.1447L53.0007 47.28H57.7287L57.5727 47.424V47.184C57.5407 46.808 57.4207 46.488 57.2127 46.224C57.0047 45.96 56.7527 45.76 56.4567 45.624C56.1607 45.488 55.8527 45.42 55.5327 45.42C55.2927 45.42 55.0447 45.468 54.7887 45.564C54.5407 45.66 54.3127 45.812 54.1047 46.02C53.9047 46.22 53.7407 46.48 53.6127 46.8C53.4847 47.112 53.4207 47.484 53.4207 47.916C53.4207 48.388 53.5167 48.816 53.7087 49.2C53.9007 49.584 54.1767 49.888 54.5367 50.112C54.9047 50.336 55.3407 50.448 55.8447 50.448C56.1247 50.448 56.3767 50.408 56.6007 50.328C56.8247 50.248 57.0207 50.144 57.1887 50.016C57.3567 49.88 57.4967 49.74 57.6087 49.596C57.6967 49.524 57.7847 49.488 57.8727 49.488C57.9527 49.488 58.0207 49.52 58.0767 49.584C58.1407 49.648 58.1727 49.72 58.1727 49.8C58.1727 49.896 58.1327 49.98 58.0527 50.052C57.8127 50.34 57.5007 50.592 57.1167 50.808C56.7327 51.016 56.3127 51.12 55.8567 51.12ZM62.5699 44.724C62.9539 44.724 63.3059 44.768 63.6259 44.856C63.9459 44.936 64.2019 45.048 64.3939 45.192C64.5939 45.336 64.6939 45.492 64.6939 45.66C64.6939 45.74 64.6659 45.82 64.6099 45.9C64.5539 45.972 64.4779 46.008 64.3819 46.008C64.2859 46.008 64.2059 45.984 64.1419 45.936C64.0859 45.888 64.0259 45.832 63.9619 45.768C63.9059 45.704 63.8219 45.644 63.7099 45.588C63.6059 45.54 63.4579 45.496 63.2659 45.456C63.0739 45.416 62.8539 45.396 62.6059 45.396C62.1579 45.396 61.7539 45.508 61.3939 45.732C61.0339 45.956 60.7499 46.26 60.5419 46.644C60.3339 47.02 60.2299 47.444 60.2299 47.916C60.2299 48.396 60.3299 48.828 60.5299 49.212C60.7299 49.596 61.0059 49.9 61.3579 50.124C61.7099 50.34 62.1219 50.448 62.5939 50.448C62.9139 50.448 63.1619 50.42 63.3379 50.364C63.5139 50.308 63.6659 50.244 63.7939 50.172C63.9459 50.084 64.0539 50 64.1179 49.92C64.1899 49.832 64.2819 49.788 64.3939 49.788C64.4979 49.788 64.5739 49.82 64.6219 49.884C64.6779 49.94 64.7059 50.016 64.7059 50.112C64.7059 50.24 64.6099 50.384 64.4179 50.544C64.2339 50.696 63.9779 50.832 63.6499 50.952C63.3219 51.064 62.9459 51.12 62.5219 51.12C61.9219 51.12 61.3939 50.98 60.9379 50.7C60.4899 50.42 60.1379 50.04 59.8819 49.56C59.6339 49.072 59.5099 48.524 59.5099 47.916C59.5099 47.332 59.6379 46.8 59.8939 46.32C60.1499 45.84 60.5059 45.456 60.9619 45.168C61.4259 44.872 61.9619 44.724 62.5699 44.724ZM74.1861 50.292C74.2821 50.292 74.3661 50.328 74.4381 50.4C74.5101 50.464 74.5461 50.544 74.5461 50.64C74.5461 50.744 74.5101 50.832 74.4381 50.904C74.3661 50.968 74.2821 51 74.1861 51H69.9021C69.7981 51 69.7101 50.964 69.6381 50.892C69.5741 50.82 69.5421 50.736 69.5421 50.64V42.96C69.5421 42.864 69.5781 42.78 69.6501 42.708C69.7221 42.636 69.8141 42.6 69.9261 42.6C70.0221 42.6 70.1061 42.636 70.1781 42.708C70.2581 42.78 70.2981 42.864 70.2981 42.96V50.496L70.0701 50.292H74.1861ZM80.7768 44.868C80.8808 44.868 80.9648 44.904 81.0288 44.976C81.1008 45.048 81.1368 45.136 81.1368 45.24V50.64C81.1368 50.736 81.1008 50.82 81.0288 50.892C80.9568 50.964 80.8728 51 80.7768 51C80.6728 51 80.5848 50.964 80.5128 50.892C80.4488 50.82 80.4168 50.736 80.4168 50.64V49.212L80.6208 49.116C80.6208 49.34 80.5568 49.568 80.4288 49.8C80.3088 50.032 80.1408 50.248 79.9248 50.448C79.7088 50.648 79.4528 50.812 79.1568 50.94C78.8688 51.06 78.5568 51.12 78.2208 51.12C77.6768 51.12 77.1888 50.98 76.7568 50.7C76.3328 50.42 75.9968 50.036 75.7488 49.548C75.5088 49.06 75.3888 48.512 75.3888 47.904C75.3888 47.28 75.5128 46.732 75.7608 46.26C76.0088 45.78 76.3448 45.404 76.7688 45.132C77.1928 44.86 77.6728 44.724 78.2088 44.724C78.5528 44.724 78.8728 44.784 79.1688 44.904C79.4728 45.024 79.7368 45.188 79.9608 45.396C80.1848 45.604 80.3568 45.844 80.4768 46.116C80.6048 46.38 80.6688 46.656 80.6688 46.944L80.4168 46.764V45.24C80.4168 45.136 80.4488 45.048 80.5128 44.976C80.5848 44.904 80.6728 44.868 80.7768 44.868ZM78.2808 50.448C78.7048 50.448 79.0808 50.34 79.4088 50.124C79.7368 49.9 79.9928 49.596 80.1768 49.212C80.3688 48.82 80.4648 48.384 80.4648 47.904C80.4648 47.432 80.3688 47.008 80.1768 46.632C79.9928 46.256 79.7368 45.956 79.4088 45.732C79.0808 45.508 78.7048 45.396 78.2808 45.396C77.8648 45.396 77.4888 45.504 77.1528 45.72C76.8248 45.936 76.5648 46.232 76.3728 46.608C76.1888 46.984 76.0968 47.416 76.0968 47.904C76.0968 48.384 76.1888 48.82 76.3728 49.212C76.5648 49.596 76.8248 49.9 77.1528 50.124C77.4808 50.34 77.8568 50.448 78.2808 50.448ZM87.4929 44.904C87.5969 44.904 87.6809 44.94 87.7449 45.012C87.8169 45.084 87.8529 45.168 87.8529 45.264V48.648C87.8529 49.44 87.6289 50.044 87.1809 50.46C86.7329 50.876 86.1289 51.084 85.3689 51.084C84.6169 51.084 84.0169 50.876 83.5689 50.46C83.1289 50.044 82.9089 49.44 82.9089 48.648V45.264C82.9089 45.168 82.9409 45.084 83.0049 45.012C83.0769 44.94 83.1649 44.904 83.2689 44.904C83.3729 44.904 83.4569 44.94 83.5209 45.012C83.5929 45.084 83.6289 45.168 83.6289 45.264V48.648C83.6289 49.224 83.7809 49.664 84.0849 49.968C84.3969 50.264 84.8249 50.412 85.3689 50.412C85.9209 50.412 86.3529 50.264 86.6649 49.968C86.9769 49.664 87.1329 49.224 87.1329 48.648V45.264C87.1329 45.168 87.1649 45.084 87.2289 45.012C87.2929 44.94 87.3809 44.904 87.4929 44.904ZM90.101 51C89.989 51 89.901 50.964 89.837 50.892C89.773 50.82 89.741 50.736 89.741 50.64V45.264C89.741 45.168 89.773 45.084 89.837 45.012C89.909 44.94 89.997 44.904 90.101 44.904C90.205 44.904 90.289 44.94 90.353 45.012C90.425 45.084 90.461 45.168 90.461 45.264V47.064L90.281 47.1C90.305 46.82 90.373 46.544 90.485 46.272C90.605 45.992 90.765 45.736 90.965 45.504C91.165 45.272 91.401 45.084 91.673 44.94C91.953 44.796 92.265 44.724 92.609 44.724C92.753 44.724 92.893 44.756 93.029 44.82C93.165 44.876 93.233 44.972 93.233 45.108C93.233 45.228 93.201 45.32 93.137 45.384C93.073 45.448 92.997 45.48 92.909 45.48C92.837 45.48 92.757 45.46 92.669 45.42C92.589 45.38 92.481 45.36 92.345 45.36C92.121 45.36 91.897 45.428 91.673 45.564C91.449 45.692 91.245 45.868 91.061 46.092C90.877 46.316 90.729 46.568 90.617 46.848C90.513 47.12 90.461 47.396 90.461 47.676V50.64C90.461 50.736 90.425 50.82 90.353 50.892C90.281 50.964 90.197 51 90.101 51ZM96.8606 51.12C96.2446 51.12 95.7006 50.988 95.2286 50.724C94.7566 50.46 94.3886 50.092 94.1246 49.62C93.8606 49.148 93.7286 48.596 93.7286 47.964C93.7286 47.284 93.8606 46.704 94.1246 46.224C94.3966 45.744 94.7446 45.376 95.1686 45.12C95.6006 44.856 96.0566 44.724 96.5366 44.724C96.8886 44.724 97.2286 44.788 97.5566 44.916C97.8926 45.036 98.1886 45.22 98.4446 45.468C98.7086 45.708 98.9166 46.004 99.0686 46.356C99.2286 46.708 99.3166 47.116 99.3326 47.58C99.3246 47.676 99.2846 47.76 99.2126 47.832C99.1406 47.896 99.0566 47.928 98.9606 47.928H94.1486L94.0046 47.28H98.7326L98.5766 47.424V47.184C98.5446 46.808 98.4246 46.488 98.2166 46.224C98.0086 45.96 97.7566 45.76 97.4606 45.624C97.1646 45.488 96.8566 45.42 96.5366 45.42C96.2966 45.42 96.0486 45.468 95.7926 45.564C95.5446 45.66 95.3166 45.812 95.1086 46.02C94.9086 46.22 94.7446 46.48 94.6166 46.8C94.4886 47.112 94.4246 47.484 94.4246 47.916C94.4246 48.388 94.5206 48.816 94.7126 49.2C94.9046 49.584 95.1806 49.888 95.5406 50.112C95.9086 50.336 96.3446 50.448 96.8486 50.448C97.1286 50.448 97.3806 50.408 97.6046 50.328C97.8286 50.248 98.0246 50.144 98.1926 50.016C98.3606 49.88 98.5006 49.74 98.6126 49.596C98.7006 49.524 98.7886 49.488 98.8766 49.488C98.9566 49.488 99.0246 49.52 99.0806 49.584C99.1446 49.648 99.1766 49.72 99.1766 49.8C99.1766 49.896 99.1366 49.98 99.0566 50.052C98.8166 50.34 98.5046 50.592 98.1206 50.808C97.7366 51.016 97.3166 51.12 96.8606 51.12ZM96.6086 44.304C96.5526 44.304 96.4966 44.288 96.4406 44.256C96.3926 44.224 96.3486 44.188 96.3086 44.148L95.3606 43.284C95.3126 43.236 95.2726 43.188 95.2406 43.14C95.2086 43.092 95.1926 43.036 95.1926 42.972C95.1926 42.86 95.2286 42.772 95.3006 42.708C95.3726 42.644 95.4566 42.612 95.5526 42.612C95.6406 42.612 95.7166 42.636 95.7806 42.684C95.8446 42.732 95.8926 42.78 95.9246 42.828L96.7406 43.884C96.8046 43.964 96.8366 44.032 96.8366 44.088C96.8366 44.144 96.8126 44.196 96.7646 44.244C96.7246 44.284 96.6726 44.304 96.6086 44.304ZM103.766 44.724C104.294 44.724 104.714 44.832 105.026 45.048C105.346 45.256 105.574 45.544 105.71 45.912C105.854 46.272 105.926 46.672 105.926 47.112V50.64C105.926 50.736 105.89 50.82 105.818 50.892C105.746 50.964 105.662 51 105.566 51C105.454 51 105.366 50.964 105.302 50.892C105.238 50.82 105.206 50.736 105.206 50.64V47.148C105.206 46.828 105.154 46.536 105.05 46.272C104.946 46.008 104.774 45.796 104.534 45.636C104.302 45.476 103.994 45.396 103.61 45.396C103.266 45.396 102.938 45.476 102.626 45.636C102.322 45.796 102.074 46.008 101.882 46.272C101.69 46.536 101.594 46.828 101.594 47.148V50.64C101.594 50.736 101.558 50.82 101.486 50.892C101.414 50.964 101.33 51 101.234 51C101.122 51 101.034 50.964 100.97 50.892C100.906 50.82 100.874 50.736 100.874 50.64V45.264C100.874 45.168 100.906 45.084 100.97 45.012C101.042 44.94 101.13 44.904 101.234 44.904C101.338 44.904 101.422 44.94 101.486 45.012C101.558 45.084 101.594 45.168 101.594 45.264V46.272L101.318 46.704C101.334 46.448 101.414 46.204 101.558 45.972C101.71 45.732 101.902 45.52 102.134 45.336C102.366 45.144 102.622 44.996 102.902 44.892C103.19 44.78 103.478 44.724 103.766 44.724ZM110.583 51.12C109.967 51.12 109.423 50.988 108.951 50.724C108.479 50.46 108.111 50.092 107.847 49.62C107.583 49.148 107.451 48.596 107.451 47.964C107.451 47.284 107.583 46.704 107.847 46.224C108.119 45.744 108.467 45.376 108.891 45.12C109.323 44.856 109.779 44.724 110.259 44.724C110.611 44.724 110.951 44.788 111.279 44.916C111.615 45.036 111.911 45.22 112.167 45.468C112.431 45.708 112.639 46.004 112.791 46.356C112.951 46.708 113.039 47.116 113.055 47.58C113.047 47.676 113.007 47.76 112.935 47.832C112.863 47.896 112.779 47.928 112.683 47.928H107.871L107.727 47.28H112.455L112.299 47.424V47.184C112.267 46.808 112.147 46.488 111.939 46.224C111.731 45.96 111.479 45.76 111.183 45.624C110.887 45.488 110.579 45.42 110.259 45.42C110.019 45.42 109.771 45.468 109.515 45.564C109.267 45.66 109.039 45.812 108.831 46.02C108.631 46.22 108.467 46.48 108.339 46.8C108.211 47.112 108.147 47.484 108.147 47.916C108.147 48.388 108.243 48.816 108.435 49.2C108.627 49.584 108.903 49.888 109.263 50.112C109.631 50.336 110.067 50.448 110.571 50.448C110.851 50.448 111.103 50.408 111.327 50.328C111.551 50.248 111.747 50.144 111.915 50.016C112.083 49.88 112.223 49.74 112.335 49.596C112.423 49.524 112.511 49.488 112.599 49.488C112.679 49.488 112.747 49.52 112.803 49.584C112.867 49.648 112.899 49.72 112.899 49.8C112.899 49.896 112.859 49.98 112.779 50.052C112.539 50.34 112.227 50.592 111.843 50.808C111.459 51.016 111.039 51.12 110.583 51.12ZM118.67 50.64C118.67 50.736 118.634 50.82 118.562 50.892C118.49 50.964 118.406 51 118.31 51C118.206 51 118.118 50.964 118.046 50.892C117.982 50.82 117.95 50.736 117.95 50.64V42.48C117.95 42.384 117.986 42.3 118.058 42.228C118.13 42.156 118.214 42.12 118.31 42.12C118.414 42.12 118.498 42.156 118.562 42.228C118.634 42.3 118.67 42.384 118.67 42.48V50.64ZM123.298 51.12C122.682 51.12 122.138 50.988 121.666 50.724C121.194 50.46 120.826 50.092 120.562 49.62C120.298 49.148 120.166 48.596 120.166 47.964C120.166 47.284 120.298 46.704 120.562 46.224C120.834 45.744 121.182 45.376 121.606 45.12C122.038 44.856 122.494 44.724 122.974 44.724C123.326 44.724 123.666 44.788 123.994 44.916C124.33 45.036 124.626 45.22 124.882 45.468C125.146 45.708 125.354 46.004 125.506 46.356C125.666 46.708 125.754 47.116 125.77 47.58C125.762 47.676 125.722 47.76 125.65 47.832C125.578 47.896 125.494 47.928 125.398 47.928H120.586L120.442 47.28H125.17L125.014 47.424V47.184C124.982 46.808 124.862 46.488 124.654 46.224C124.446 45.96 124.194 45.76 123.898 45.624C123.602 45.488 123.294 45.42 122.974 45.42C122.734 45.42 122.486 45.468 122.23 45.564C121.982 45.66 121.754 45.812 121.546 46.02C121.346 46.22 121.182 46.48 121.054 46.8C120.926 47.112 120.862 47.484 120.862 47.916C120.862 48.388 120.958 48.816 121.15 49.2C121.342 49.584 121.618 49.888 121.978 50.112C122.346 50.336 122.782 50.448 123.286 50.448C123.566 50.448 123.818 50.408 124.042 50.328C124.266 50.248 124.462 50.144 124.63 50.016C124.798 49.88 124.938 49.74 125.05 49.596C125.138 49.524 125.226 49.488 125.314 49.488C125.394 49.488 125.462 49.52 125.518 49.584C125.582 49.648 125.614 49.72 125.614 49.8C125.614 49.896 125.574 49.98 125.494 50.052C125.254 50.34 124.942 50.592 124.558 50.808C124.174 51.016 123.754 51.12 123.298 51.12ZM126.963 50.028C126.899 49.932 126.867 49.84 126.867 49.752C126.875 49.656 126.927 49.58 127.023 49.524C127.087 49.468 127.159 49.444 127.239 49.452C127.327 49.46 127.407 49.5 127.479 49.572C127.695 49.852 127.955 50.08 128.259 50.256C128.571 50.424 128.939 50.508 129.363 50.508C129.587 50.508 129.807 50.472 130.023 50.4C130.247 50.32 130.431 50.204 130.575 50.052C130.719 49.892 130.791 49.692 130.791 49.452C130.791 49.204 130.719 49.004 130.575 48.852C130.431 48.7 130.243 48.58 130.011 48.492C129.787 48.404 129.547 48.328 129.291 48.264C129.019 48.192 128.755 48.112 128.499 48.024C128.243 47.928 128.015 47.812 127.815 47.676C127.623 47.532 127.467 47.36 127.347 47.16C127.227 46.96 127.167 46.716 127.167 46.428C127.167 46.092 127.259 45.796 127.443 45.54C127.627 45.284 127.875 45.084 128.187 44.94C128.507 44.796 128.867 44.724 129.267 44.724C129.467 44.724 129.683 44.752 129.915 44.808C130.147 44.856 130.375 44.94 130.599 45.06C130.823 45.18 131.023 45.344 131.199 45.552C131.271 45.624 131.307 45.708 131.307 45.804C131.307 45.892 131.267 45.972 131.187 46.044C131.123 46.092 131.047 46.116 130.959 46.116C130.879 46.116 130.811 46.084 130.755 46.02C130.563 45.804 130.335 45.64 130.071 45.528C129.807 45.416 129.523 45.36 129.219 45.36C128.987 45.36 128.767 45.4 128.559 45.48C128.359 45.552 128.191 45.664 128.055 45.816C127.919 45.968 127.851 46.168 127.851 46.416C127.867 46.648 127.947 46.836 128.091 46.98C128.243 47.124 128.439 47.244 128.679 47.34C128.927 47.436 129.203 47.524 129.507 47.604C129.763 47.668 130.007 47.744 130.239 47.832C130.479 47.92 130.687 48.032 130.863 48.168C131.047 48.296 131.191 48.46 131.295 48.66C131.407 48.86 131.463 49.112 131.463 49.416C131.463 49.768 131.363 50.072 131.163 50.328C130.971 50.584 130.711 50.78 130.383 50.916C130.055 51.052 129.691 51.12 129.291 51.12C128.859 51.12 128.439 51.036 128.031 50.868C127.631 50.7 127.275 50.42 126.963 50.028ZM141.246 42.12C141.35 42.12 141.434 42.156 141.498 42.228C141.57 42.292 141.606 42.376 141.606 42.48V50.64C141.606 50.736 141.57 50.82 141.498 50.892C141.426 50.964 141.342 51 141.246 51C141.142 51 141.054 50.964 140.982 50.892C140.918 50.82 140.886 50.736 140.886 50.64V49.212L141.09 49.044C141.09 49.268 141.03 49.504 140.91 49.752C140.79 49.992 140.618 50.216 140.394 50.424C140.178 50.632 139.922 50.8 139.626 50.928C139.338 51.056 139.026 51.12 138.69 51.12C138.154 51.12 137.67 50.98 137.238 50.7C136.814 50.42 136.478 50.04 136.23 49.56C135.982 49.08 135.858 48.532 135.858 47.916C135.858 47.308 135.982 46.764 136.23 46.284C136.478 45.796 136.814 45.416 137.238 45.144C137.662 44.864 138.142 44.724 138.678 44.724C139.006 44.724 139.318 44.784 139.614 44.904C139.91 45.024 140.17 45.188 140.394 45.396C140.626 45.604 140.806 45.844 140.934 46.116C141.07 46.38 141.138 46.656 141.138 46.944L140.886 46.764V42.48C140.886 42.384 140.918 42.3 140.982 42.228C141.054 42.156 141.142 42.12 141.246 42.12ZM138.75 50.448C139.182 50.448 139.558 50.34 139.878 50.124C140.206 49.9 140.462 49.6 140.646 49.224C140.838 48.84 140.934 48.404 140.934 47.916C140.934 47.436 140.838 47.008 140.646 46.632C140.462 46.248 140.206 45.948 139.878 45.732C139.55 45.508 139.174 45.396 138.75 45.396C138.334 45.396 137.958 45.508 137.622 45.732C137.294 45.948 137.034 46.248 136.842 46.632C136.658 47.008 136.566 47.436 136.566 47.916C136.566 48.396 136.658 48.828 136.842 49.212C137.034 49.596 137.294 49.9 137.622 50.124C137.958 50.34 138.334 50.448 138.75 50.448ZM146.267 51.12C145.651 51.12 145.107 50.988 144.635 50.724C144.163 50.46 143.795 50.092 143.531 49.62C143.267 49.148 143.135 48.596 143.135 47.964C143.135 47.284 143.267 46.704 143.531 46.224C143.803 45.744 144.151 45.376 144.575 45.12C145.007 44.856 145.463 44.724 145.943 44.724C146.295 44.724 146.635 44.788 146.963 44.916C147.299 45.036 147.595 45.22 147.851 45.468C148.115 45.708 148.323 46.004 148.475 46.356C148.635 46.708 148.723 47.116 148.739 47.58C148.731 47.676 148.691 47.76 148.619 47.832C148.547 47.896 148.463 47.928 148.367 47.928H143.555L143.411 47.28H148.139L147.983 47.424V47.184C147.951 46.808 147.831 46.488 147.623 46.224C147.415 45.96 147.163 45.76 146.867 45.624C146.571 45.488 146.263 45.42 145.943 45.42C145.703 45.42 145.455 45.468 145.199 45.564C144.951 45.66 144.723 45.812 144.515 46.02C144.315 46.22 144.151 46.48 144.023 46.8C143.895 47.112 143.831 47.484 143.831 47.916C143.831 48.388 143.927 48.816 144.119 49.2C144.311 49.584 144.587 49.888 144.947 50.112C145.315 50.336 145.751 50.448 146.255 50.448C146.535 50.448 146.787 50.408 147.011 50.328C147.235 50.248 147.431 50.144 147.599 50.016C147.767 49.88 147.907 49.74 148.019 49.596C148.107 49.524 148.195 49.488 148.283 49.488C148.363 49.488 148.431 49.52 148.487 49.584C148.551 49.648 148.583 49.72 148.583 49.8C148.583 49.896 148.543 49.98 148.463 50.052C148.223 50.34 147.911 50.592 147.527 50.808C147.143 51.016 146.723 51.12 146.267 51.12ZM150.64 51C150.528 51 150.44 50.964 150.376 50.892C150.312 50.82 150.28 50.736 150.28 50.64V45.264C150.28 45.168 150.312 45.084 150.376 45.012C150.448 44.94 150.536 44.904 150.64 44.904C150.744 44.904 150.828 44.94 150.892 45.012C150.964 45.084 151 45.168 151 45.264V47.064L150.82 47.1C150.844 46.82 150.912 46.544 151.024 46.272C151.144 45.992 151.304 45.736 151.504 45.504C151.704 45.272 151.94 45.084 152.212 44.94C152.492 44.796 152.804 44.724 153.148 44.724C153.292 44.724 153.432 44.756 153.568 44.82C153.704 44.876 153.772 44.972 153.772 45.108C153.772 45.228 153.74 45.32 153.676 45.384C153.612 45.448 153.536 45.48 153.448 45.48C153.376 45.48 153.296 45.46 153.208 45.42C153.128 45.38 153.02 45.36 152.884 45.36C152.66 45.36 152.436 45.428 152.212 45.564C151.988 45.692 151.784 45.868 151.6 46.092C151.416 46.316 151.268 46.568 151.156 46.848C151.052 47.12 151 47.396 151 47.676V50.64C151 50.736 150.964 50.82 150.892 50.892C150.82 50.964 150.736 51 150.64 51ZM157.789 44.724C158.317 44.724 158.737 44.832 159.049 45.048C159.369 45.256 159.597 45.544 159.733 45.912C159.877 46.272 159.949 46.672 159.949 47.112V50.64C159.949 50.736 159.913 50.82 159.841 50.892C159.769 50.964 159.685 51 159.589 51C159.477 51 159.389 50.964 159.325 50.892C159.261 50.82 159.229 50.736 159.229 50.64V47.148C159.229 46.828 159.177 46.536 159.073 46.272C158.969 46.008 158.797 45.796 158.557 45.636C158.325 45.476 158.017 45.396 157.633 45.396C157.289 45.396 156.961 45.476 156.649 45.636C156.345 45.796 156.097 46.008 155.905 46.272C155.713 46.536 155.617 46.828 155.617 47.148V50.64C155.617 50.736 155.581 50.82 155.509 50.892C155.437 50.964 155.353 51 155.257 51C155.145 51 155.057 50.964 154.993 50.892C154.929 50.82 154.897 50.736 154.897 50.64V45.264C154.897 45.168 154.929 45.084 154.993 45.012C155.065 44.94 155.153 44.904 155.257 44.904C155.361 44.904 155.445 44.94 155.509 45.012C155.581 45.084 155.617 45.168 155.617 45.264V46.272L155.341 46.704C155.357 46.448 155.437 46.204 155.581 45.972C155.733 45.732 155.925 45.52 156.157 45.336C156.389 45.144 156.645 44.996 156.925 44.892C157.213 44.78 157.501 44.724 157.789 44.724ZM162.531 50.64C162.531 50.736 162.495 50.82 162.423 50.892C162.351 50.964 162.267 51 162.171 51C162.067 51 161.979 50.964 161.907 50.892C161.843 50.82 161.811 50.736 161.811 50.64V45.12C161.811 45.024 161.843 44.94 161.907 44.868C161.979 44.796 162.067 44.76 162.171 44.76C162.275 44.76 162.359 44.796 162.423 44.868C162.495 44.94 162.531 45.024 162.531 45.12V50.64ZM162.171 43.956C162.003 43.956 161.875 43.92 161.787 43.848C161.707 43.768 161.667 43.656 161.667 43.512V43.392C161.667 43.248 161.711 43.14 161.799 43.068C161.895 42.988 162.023 42.948 162.183 42.948C162.335 42.948 162.451 42.988 162.531 43.068C162.619 43.14 162.663 43.248 162.663 43.392V43.512C162.663 43.656 162.619 43.768 162.531 43.848C162.451 43.92 162.331 43.956 162.171 43.956ZM167.173 51.12C166.557 51.12 166.013 50.988 165.541 50.724C165.069 50.46 164.701 50.092 164.437 49.62C164.173 49.148 164.041 48.596 164.041 47.964C164.041 47.284 164.173 46.704 164.437 46.224C164.709 45.744 165.057 45.376 165.481 45.12C165.913 44.856 166.369 44.724 166.849 44.724C167.201 44.724 167.541 44.788 167.869 44.916C168.205 45.036 168.501 45.22 168.757 45.468C169.021 45.708 169.229 46.004 169.381 46.356C169.541 46.708 169.629 47.116 169.645 47.58C169.637 47.676 169.597 47.76 169.525 47.832C169.453 47.896 169.369 47.928 169.273 47.928H164.461L164.317 47.28H169.045L168.889 47.424V47.184C168.857 46.808 168.737 46.488 168.529 46.224C168.321 45.96 168.069 45.76 167.773 45.624C167.477 45.488 167.169 45.42 166.849 45.42C166.609 45.42 166.361 45.468 166.105 45.564C165.857 45.66 165.629 45.812 165.421 46.02C165.221 46.22 165.057 46.48 164.929 46.8C164.801 47.112 164.737 47.484 164.737 47.916C164.737 48.388 164.833 48.816 165.025 49.2C165.217 49.584 165.493 49.888 165.853 50.112C166.221 50.336 166.657 50.448 167.161 50.448C167.441 50.448 167.693 50.408 167.917 50.328C168.141 50.248 168.337 50.144 168.505 50.016C168.673 49.88 168.813 49.74 168.925 49.596C169.013 49.524 169.101 49.488 169.189 49.488C169.269 49.488 169.337 49.52 169.393 49.584C169.457 49.648 169.489 49.72 169.489 49.8C169.489 49.896 169.449 49.98 169.369 50.052C169.129 50.34 168.817 50.592 168.433 50.808C168.049 51.016 167.629 51.12 167.173 51.12ZM171.546 51C171.434 51 171.346 50.964 171.282 50.892C171.218 50.82 171.186 50.736 171.186 50.64V45.264C171.186 45.168 171.218 45.084 171.282 45.012C171.354 44.94 171.442 44.904 171.546 44.904C171.65 44.904 171.734 44.94 171.798 45.012C171.87 45.084 171.906 45.168 171.906 45.264V47.064L171.726 47.1C171.75 46.82 171.818 46.544 171.93 46.272C172.05 45.992 172.21 45.736 172.41 45.504C172.61 45.272 172.846 45.084 173.118 44.94C173.398 44.796 173.71 44.724 174.054 44.724C174.198 44.724 174.338 44.756 174.474 44.82C174.61 44.876 174.678 44.972 174.678 45.108C174.678 45.228 174.646 45.32 174.582 45.384C174.518 45.448 174.442 45.48 174.354 45.48C174.282 45.48 174.202 45.46 174.114 45.42C174.034 45.38 173.926 45.36 173.79 45.36C173.566 45.36 173.342 45.428 173.118 45.564C172.894 45.692 172.69 45.868 172.506 46.092C172.322 46.316 172.174 46.568 172.062 46.848C171.958 47.12 171.906 47.396 171.906 47.676V50.64C171.906 50.736 171.87 50.82 171.798 50.892C171.726 50.964 171.642 51 171.546 51ZM175.455 50.028C175.391 49.932 175.359 49.84 175.359 49.752C175.367 49.656 175.419 49.58 175.515 49.524C175.579 49.468 175.651 49.444 175.731 49.452C175.819 49.46 175.899 49.5 175.971 49.572C176.187 49.852 176.447 50.08 176.751 50.256C177.063 50.424 177.431 50.508 177.855 50.508C178.079 50.508 178.299 50.472 178.515 50.4C178.739 50.32 178.923 50.204 179.067 50.052C179.211 49.892 179.283 49.692 179.283 49.452C179.283 49.204 179.211 49.004 179.067 48.852C178.923 48.7 178.735 48.58 178.503 48.492C178.279 48.404 178.039 48.328 177.783 48.264C177.511 48.192 177.247 48.112 176.991 48.024C176.735 47.928 176.507 47.812 176.307 47.676C176.115 47.532 175.959 47.36 175.839 47.16C175.719 46.96 175.659 46.716 175.659 46.428C175.659 46.092 175.751 45.796 175.935 45.54C176.119 45.284 176.367 45.084 176.679 44.94C176.999 44.796 177.359 44.724 177.759 44.724C177.959 44.724 178.175 44.752 178.407 44.808C178.639 44.856 178.867 44.94 179.091 45.06C179.315 45.18 179.515 45.344 179.691 45.552C179.763 45.624 179.799 45.708 179.799 45.804C179.799 45.892 179.759 45.972 179.679 46.044C179.615 46.092 179.539 46.116 179.451 46.116C179.371 46.116 179.303 46.084 179.247 46.02C179.055 45.804 178.827 45.64 178.563 45.528C178.299 45.416 178.015 45.36 177.711 45.36C177.479 45.36 177.259 45.4 177.051 45.48C176.851 45.552 176.683 45.664 176.547 45.816C176.411 45.968 176.343 46.168 176.343 46.416C176.359 46.648 176.439 46.836 176.583 46.98C176.735 47.124 176.931 47.244 177.171 47.34C177.419 47.436 177.695 47.524 177.999 47.604C178.255 47.668 178.499 47.744 178.731 47.832C178.971 47.92 179.179 48.032 179.355 48.168C179.539 48.296 179.683 48.46 179.787 48.66C179.899 48.86 179.955 49.112 179.955 49.416C179.955 49.768 179.855 50.072 179.655 50.328C179.463 50.584 179.203 50.78 178.875 50.916C178.547 51.052 178.183 51.12 177.783 51.12C177.351 51.12 176.931 51.036 176.523 50.868C176.123 50.7 175.767 50.42 175.455 50.028ZM187.47 44.82C187.966 44.82 188.39 44.952 188.742 45.216C189.094 45.472 189.334 45.856 189.462 46.368L189.294 46.416L189.366 46.2C189.47 45.96 189.642 45.736 189.882 45.528C190.13 45.312 190.41 45.14 190.722 45.012C191.034 44.884 191.35 44.82 191.67 44.82C192.174 44.82 192.578 44.928 192.882 45.144C193.194 45.36 193.418 45.652 193.554 46.02C193.698 46.38 193.77 46.788 193.77 47.244V50.64C193.77 50.736 193.734 50.82 193.662 50.892C193.598 50.964 193.514 51 193.41 51C193.306 51 193.218 50.964 193.146 50.892C193.082 50.82 193.05 50.736 193.05 50.64V47.28C193.05 46.952 192.998 46.652 192.894 46.38C192.79 46.108 192.626 45.892 192.402 45.732C192.178 45.572 191.878 45.492 191.502 45.492C191.174 45.492 190.858 45.572 190.554 45.732C190.258 45.892 190.014 46.108 189.822 46.38C189.638 46.652 189.546 46.952 189.546 47.28V50.64C189.546 50.736 189.51 50.82 189.438 50.892C189.374 50.964 189.29 51 189.186 51C189.082 51 188.994 50.964 188.922 50.892C188.858 50.82 188.826 50.736 188.826 50.64V47.244C188.826 46.916 188.778 46.62 188.682 46.356C188.586 46.092 188.43 45.884 188.214 45.732C187.998 45.572 187.706 45.492 187.338 45.492C187.01 45.492 186.698 45.572 186.402 45.732C186.114 45.884 185.878 46.092 185.694 46.356C185.518 46.62 185.43 46.916 185.43 47.244V50.64C185.43 50.736 185.394 50.82 185.322 50.892C185.25 50.964 185.166 51 185.07 51C184.958 51 184.87 50.964 184.806 50.892C184.742 50.82 184.71 50.736 184.71 50.64V45.264C184.71 45.168 184.742 45.084 184.806 45.012C184.878 44.94 184.966 44.904 185.07 44.904C185.174 44.904 185.258 44.94 185.322 45.012C185.394 45.084 185.43 45.168 185.43 45.264V46.38L185.106 46.824C185.13 46.584 185.206 46.344 185.334 46.104C185.47 45.864 185.646 45.648 185.862 45.456C186.078 45.264 186.322 45.112 186.594 45C186.874 44.88 187.166 44.82 187.47 44.82ZM201.367 47.928C201.367 48.536 201.235 49.084 200.971 49.572C200.707 50.052 200.347 50.432 199.891 50.712C199.435 50.984 198.915 51.12 198.331 51.12C197.763 51.12 197.247 50.984 196.783 50.712C196.327 50.432 195.963 50.052 195.691 49.572C195.427 49.084 195.295 48.536 195.295 47.928C195.295 47.312 195.427 46.764 195.691 46.284C195.963 45.804 196.327 45.424 196.783 45.144C197.247 44.864 197.763 44.724 198.331 44.724C198.915 44.724 199.435 44.864 199.891 45.144C200.347 45.424 200.707 45.804 200.971 46.284C201.235 46.764 201.367 47.312 201.367 47.928ZM200.647 47.928C200.647 47.44 200.547 47.008 200.347 46.632C200.147 46.248 199.871 45.948 199.519 45.732C199.175 45.508 198.779 45.396 198.331 45.396C197.899 45.396 197.507 45.508 197.155 45.732C196.803 45.948 196.523 46.248 196.315 46.632C196.115 47.008 196.015 47.44 196.015 47.928C196.015 48.416 196.115 48.848 196.315 49.224C196.523 49.6 196.803 49.9 197.155 50.124C197.507 50.34 197.899 50.448 198.331 50.448C198.779 50.448 199.175 50.34 199.519 50.124C199.871 49.9 200.147 49.6 200.347 49.224C200.547 48.848 200.647 48.416 200.647 47.928ZM207.925 42.12C208.029 42.12 208.113 42.156 208.177 42.228C208.249 42.292 208.285 42.376 208.285 42.48V50.64C208.285 50.736 208.249 50.82 208.177 50.892C208.105 50.964 208.021 51 207.925 51C207.821 51 207.733 50.964 207.661 50.892C207.597 50.82 207.565 50.736 207.565 50.64V49.212L207.769 49.044C207.769 49.268 207.709 49.504 207.589 49.752C207.469 49.992 207.297 50.216 207.073 50.424C206.857 50.632 206.601 50.8 206.305 50.928C206.017 51.056 205.705 51.12 205.369 51.12C204.833 51.12 204.349 50.98 203.917 50.7C203.493 50.42 203.157 50.04 202.909 49.56C202.661 49.08 202.537 48.532 202.537 47.916C202.537 47.308 202.661 46.764 202.909 46.284C203.157 45.796 203.493 45.416 203.917 45.144C204.341 44.864 204.821 44.724 205.357 44.724C205.685 44.724 205.997 44.784 206.293 44.904C206.589 45.024 206.849 45.188 207.073 45.396C207.305 45.604 207.485 45.844 207.613 46.116C207.749 46.38 207.817 46.656 207.817 46.944L207.565 46.764V42.48C207.565 42.384 207.597 42.3 207.661 42.228C207.733 42.156 207.821 42.12 207.925 42.12ZM205.429 50.448C205.861 50.448 206.237 50.34 206.557 50.124C206.885 49.9 207.141 49.6 207.325 49.224C207.517 48.84 207.613 48.404 207.613 47.916C207.613 47.436 207.517 47.008 207.325 46.632C207.141 46.248 206.885 45.948 206.557 45.732C206.229 45.508 205.853 45.396 205.429 45.396C205.013 45.396 204.637 45.508 204.301 45.732C203.973 45.948 203.713 46.248 203.521 46.632C203.337 47.008 203.245 47.436 203.245 47.916C203.245 48.396 203.337 48.828 203.521 49.212C203.713 49.596 203.973 49.9 204.301 50.124C204.637 50.34 205.013 50.448 205.429 50.448ZM214.946 44.904C215.05 44.904 215.134 44.94 215.198 45.012C215.27 45.084 215.306 45.168 215.306 45.264V48.648C215.306 49.44 215.082 50.044 214.634 50.46C214.186 50.876 213.582 51.084 212.822 51.084C212.07 51.084 211.47 50.876 211.022 50.46C210.582 50.044 210.362 49.44 210.362 48.648V45.264C210.362 45.168 210.394 45.084 210.458 45.012C210.53 44.94 210.618 44.904 210.722 44.904C210.826 44.904 210.91 44.94 210.974 45.012C211.046 45.084 211.082 45.168 211.082 45.264V48.648C211.082 49.224 211.234 49.664 211.538 49.968C211.85 50.264 212.278 50.412 212.822 50.412C213.374 50.412 213.806 50.264 214.118 49.968C214.43 49.664 214.586 49.224 214.586 48.648V45.264C214.586 45.168 214.618 45.084 214.682 45.012C214.746 44.94 214.834 44.904 214.946 44.904ZM217.986 50.64C217.986 50.736 217.95 50.82 217.878 50.892C217.806 50.964 217.722 51 217.626 51C217.522 51 217.434 50.964 217.362 50.892C217.298 50.82 217.266 50.736 217.266 50.64V42.48C217.266 42.384 217.302 42.3 217.374 42.228C217.446 42.156 217.53 42.12 217.626 42.12C217.73 42.12 217.814 42.156 217.878 42.228C217.95 42.3 217.986 42.384 217.986 42.48V50.64ZM222.615 51.12C221.999 51.12 221.455 50.988 220.983 50.724C220.511 50.46 220.143 50.092 219.879 49.62C219.615 49.148 219.483 48.596 219.483 47.964C219.483 47.284 219.615 46.704 219.879 46.224C220.151 45.744 220.499 45.376 220.923 45.12C221.355 44.856 221.811 44.724 222.291 44.724C222.643 44.724 222.983 44.788 223.311 44.916C223.647 45.036 223.943 45.22 224.199 45.468C224.463 45.708 224.671 46.004 224.823 46.356C224.983 46.708 225.071 47.116 225.087 47.58C225.079 47.676 225.039 47.76 224.967 47.832C224.895 47.896 224.811 47.928 224.715 47.928H219.903L219.759 47.28H224.487L224.331 47.424V47.184C224.299 46.808 224.179 46.488 223.971 46.224C223.763 45.96 223.511 45.76 223.215 45.624C222.919 45.488 222.611 45.42 222.291 45.42C222.051 45.42 221.803 45.468 221.547 45.564C221.299 45.66 221.071 45.812 220.863 46.02C220.663 46.22 220.499 46.48 220.371 46.8C220.243 47.112 220.179 47.484 220.179 47.916C220.179 48.388 220.275 48.816 220.467 49.2C220.659 49.584 220.935 49.888 221.295 50.112C221.663 50.336 222.099 50.448 222.603 50.448C222.883 50.448 223.135 50.408 223.359 50.328C223.583 50.248 223.779 50.144 223.947 50.016C224.115 49.88 224.255 49.74 224.367 49.596C224.455 49.524 224.543 49.488 224.631 49.488C224.711 49.488 224.779 49.52 224.835 49.584C224.899 49.648 224.931 49.72 224.931 49.8C224.931 49.896 224.891 49.98 224.811 50.052C224.571 50.34 224.259 50.592 223.875 50.808C223.491 51.016 223.071 51.12 222.615 51.12ZM226.28 50.028C226.216 49.932 226.184 49.84 226.184 49.752C226.192 49.656 226.244 49.58 226.34 49.524C226.404 49.468 226.476 49.444 226.556 49.452C226.644 49.46 226.724 49.5 226.796 49.572C227.012 49.852 227.272 50.08 227.576 50.256C227.888 50.424 228.256 50.508 228.68 50.508C228.904 50.508 229.124 50.472 229.34 50.4C229.564 50.32 229.748 50.204 229.892 50.052C230.036 49.892 230.108 49.692 230.108 49.452C230.108 49.204 230.036 49.004 229.892 48.852C229.748 48.7 229.56 48.58 229.328 48.492C229.104 48.404 228.864 48.328 228.608 48.264C228.336 48.192 228.072 48.112 227.816 48.024C227.56 47.928 227.332 47.812 227.132 47.676C226.94 47.532 226.784 47.36 226.664 47.16C226.544 46.96 226.484 46.716 226.484 46.428C226.484 46.092 226.576 45.796 226.76 45.54C226.944 45.284 227.192 45.084 227.504 44.94C227.824 44.796 228.184 44.724 228.584 44.724C228.784 44.724 229 44.752 229.232 44.808C229.464 44.856 229.692 44.94 229.916 45.06C230.14 45.18 230.34 45.344 230.516 45.552C230.588 45.624 230.624 45.708 230.624 45.804C230.624 45.892 230.584 45.972 230.504 46.044C230.44 46.092 230.364 46.116 230.276 46.116C230.196 46.116 230.128 46.084 230.072 46.02C229.88 45.804 229.652 45.64 229.388 45.528C229.124 45.416 228.84 45.36 228.536 45.36C228.304 45.36 228.084 45.4 227.876 45.48C227.676 45.552 227.508 45.664 227.372 45.816C227.236 45.968 227.168 46.168 227.168 46.416C227.184 46.648 227.264 46.836 227.408 46.98C227.56 47.124 227.756 47.244 227.996 47.34C228.244 47.436 228.52 47.524 228.824 47.604C229.08 47.668 229.324 47.744 229.556 47.832C229.796 47.92 230.004 48.032 230.18 48.168C230.364 48.296 230.508 48.46 230.612 48.66C230.724 48.86 230.78 49.112 230.78 49.416C230.78 49.768 230.68 50.072 230.48 50.328C230.288 50.584 230.028 50.78 229.7 50.916C229.372 51.052 229.008 51.12 228.608 51.12C228.176 51.12 227.756 51.036 227.348 50.868C226.948 50.7 226.592 50.42 226.28 50.028ZM235.51 47.352C235.414 47.352 235.33 47.32 235.258 47.256C235.194 47.184 235.162 47.096 235.162 46.992C235.162 46.896 235.194 46.82 235.258 46.764C235.33 46.7 235.414 46.668 235.51 46.668H240.466C240.562 46.668 240.642 46.7 240.706 46.764C240.778 46.828 240.814 46.912 240.814 47.016C240.814 47.104 240.778 47.184 240.706 47.256C240.642 47.32 240.562 47.352 240.466 47.352H235.51ZM237.982 49.944C237.87 49.944 237.778 49.908 237.706 49.836C237.634 49.764 237.598 49.672 237.598 49.56V44.484C237.598 44.364 237.634 44.268 237.706 44.196C237.786 44.124 237.878 44.088 237.982 44.088C238.102 44.088 238.194 44.124 238.258 44.196C238.33 44.268 238.366 44.36 238.366 44.472V49.56C238.366 49.672 238.33 49.764 238.258 49.836C238.186 49.908 238.094 49.944 237.982 49.944ZM248.253 44.724C248.637 44.724 248.989 44.768 249.309 44.856C249.629 44.936 249.885 45.048 250.077 45.192C250.277 45.336 250.377 45.492 250.377 45.66C250.377 45.74 250.349 45.82 250.293 45.9C250.237 45.972 250.161 46.008 250.065 46.008C249.969 46.008 249.889 45.984 249.825 45.936C249.769 45.888 249.709 45.832 249.645 45.768C249.589 45.704 249.505 45.644 249.393 45.588C249.289 45.54 249.141 45.496 248.949 45.456C248.757 45.416 248.537 45.396 248.289 45.396C247.841 45.396 247.437 45.508 247.077 45.732C246.717 45.956 246.433 46.26 246.225 46.644C246.017 47.02 245.913 47.444 245.913 47.916C245.913 48.396 246.013 48.828 246.213 49.212C246.413 49.596 246.689 49.9 247.041 50.124C247.393 50.34 247.805 50.448 248.277 50.448C248.597 50.448 248.845 50.42 249.021 50.364C249.197 50.308 249.349 50.244 249.477 50.172C249.629 50.084 249.737 50 249.801 49.92C249.873 49.832 249.965 49.788 250.077 49.788C250.181 49.788 250.257 49.82 250.305 49.884C250.361 49.94 250.389 50.016 250.389 50.112C250.389 50.24 250.293 50.384 250.101 50.544C249.917 50.696 249.661 50.832 249.333 50.952C249.005 51.064 248.629 51.12 248.205 51.12C247.605 51.12 247.077 50.98 246.621 50.7C246.173 50.42 245.821 50.04 245.565 49.56C245.317 49.072 245.193 48.524 245.193 47.916C245.193 47.332 245.321 46.8 245.577 46.32C245.833 45.84 246.189 45.456 246.645 45.168C247.109 44.872 247.645 44.724 248.253 44.724ZM257.476 47.928C257.476 48.536 257.344 49.084 257.08 49.572C256.816 50.052 256.456 50.432 256 50.712C255.544 50.984 255.024 51.12 254.44 51.12C253.872 51.12 253.356 50.984 252.892 50.712C252.436 50.432 252.072 50.052 251.8 49.572C251.536 49.084 251.404 48.536 251.404 47.928C251.404 47.312 251.536 46.764 251.8 46.284C252.072 45.804 252.436 45.424 252.892 45.144C253.356 44.864 253.872 44.724 254.44 44.724C255.024 44.724 255.544 44.864 256 45.144C256.456 45.424 256.816 45.804 257.08 46.284C257.344 46.764 257.476 47.312 257.476 47.928ZM256.756 47.928C256.756 47.44 256.656 47.008 256.456 46.632C256.256 46.248 255.98 45.948 255.628 45.732C255.284 45.508 254.888 45.396 254.44 45.396C254.008 45.396 253.616 45.508 253.264 45.732C252.912 45.948 252.632 46.248 252.424 46.632C252.224 47.008 252.124 47.44 252.124 47.928C252.124 48.416 252.224 48.848 252.424 49.224C252.632 49.6 252.912 49.9 253.264 50.124C253.616 50.34 254.008 50.448 254.44 50.448C254.888 50.448 255.284 50.34 255.628 50.124C255.98 49.9 256.256 49.6 256.456 49.224C256.656 48.848 256.756 48.416 256.756 47.928ZM261.767 44.82C262.263 44.82 262.687 44.952 263.039 45.216C263.391 45.472 263.631 45.856 263.759 46.368L263.591 46.416L263.663 46.2C263.767 45.96 263.939 45.736 264.179 45.528C264.427 45.312 264.707 45.14 265.019 45.012C265.331 44.884 265.647 44.82 265.967 44.82C266.471 44.82 266.875 44.928 267.179 45.144C267.491 45.36 267.715 45.652 267.851 46.02C267.995 46.38 268.067 46.788 268.067 47.244V50.64C268.067 50.736 268.031 50.82 267.959 50.892C267.895 50.964 267.811 51 267.707 51C267.603 51 267.515 50.964 267.443 50.892C267.379 50.82 267.347 50.736 267.347 50.64V47.28C267.347 46.952 267.295 46.652 267.191 46.38C267.087 46.108 266.923 45.892 266.699 45.732C266.475 45.572 266.175 45.492 265.799 45.492C265.471 45.492 265.155 45.572 264.851 45.732C264.555 45.892 264.311 46.108 264.119 46.38C263.935 46.652 263.843 46.952 263.843 47.28V50.64C263.843 50.736 263.807 50.82 263.735 50.892C263.671 50.964 263.587 51 263.483 51C263.379 51 263.291 50.964 263.219 50.892C263.155 50.82 263.123 50.736 263.123 50.64V47.244C263.123 46.916 263.075 46.62 262.979 46.356C262.883 46.092 262.727 45.884 262.511 45.732C262.295 45.572 262.003 45.492 261.635 45.492C261.307 45.492 260.995 45.572 260.699 45.732C260.411 45.884 260.175 46.092 259.991 46.356C259.815 46.62 259.727 46.916 259.727 47.244V50.64C259.727 50.736 259.691 50.82 259.619 50.892C259.547 50.964 259.463 51 259.367 51C259.255 51 259.167 50.964 259.103 50.892C259.039 50.82 259.007 50.736 259.007 50.64V45.264C259.007 45.168 259.039 45.084 259.103 45.012C259.175 44.94 259.263 44.904 259.367 44.904C259.471 44.904 259.555 44.94 259.619 45.012C259.691 45.084 259.727 45.168 259.727 45.264V46.38L259.403 46.824C259.427 46.584 259.503 46.344 259.631 46.104C259.767 45.864 259.943 45.648 260.159 45.456C260.375 45.264 260.619 45.112 260.891 45C261.171 44.88 261.463 44.82 261.767 44.82ZM272.868 44.82C273.412 44.82 273.892 44.956 274.308 45.228C274.732 45.492 275.068 45.86 275.316 46.332C275.564 46.796 275.688 47.332 275.688 47.94C275.688 48.548 275.564 49.088 275.316 49.56C275.068 50.032 274.732 50.404 274.308 50.676C273.884 50.948 273.408 51.084 272.88 51.084C272.6 51.084 272.332 51.044 272.076 50.964C271.828 50.876 271.6 50.76 271.392 50.616C271.184 50.472 271 50.304 270.84 50.112C270.68 49.912 270.552 49.696 270.456 49.464L270.672 49.308V53.04C270.672 53.136 270.636 53.22 270.564 53.292C270.5 53.364 270.416 53.4 270.312 53.4C270.208 53.4 270.12 53.364 270.048 53.292C269.984 53.22 269.952 53.136 269.952 53.04V45.216C269.952 45.112 269.984 45.024 270.048 44.952C270.112 44.88 270.2 44.844 270.312 44.844C270.416 44.844 270.5 44.88 270.564 44.952C270.636 45.024 270.672 45.112 270.672 45.216V46.512L270.504 46.416C270.584 46.168 270.7 45.948 270.852 45.756C271.012 45.556 271.196 45.388 271.404 45.252C271.612 45.108 271.84 45 272.088 44.928C272.336 44.856 272.596 44.82 272.868 44.82ZM272.808 45.492C272.376 45.492 271.996 45.6 271.668 45.816C271.34 46.024 271.08 46.312 270.888 46.68C270.704 47.04 270.612 47.46 270.612 47.94C270.612 48.412 270.704 48.836 270.888 49.212C271.08 49.588 271.34 49.884 271.668 50.1C271.996 50.308 272.376 50.412 272.808 50.412C273.232 50.412 273.604 50.308 273.924 50.1C274.252 49.884 274.512 49.588 274.704 49.212C274.896 48.836 274.992 48.412 274.992 47.94C274.992 47.468 274.896 47.048 274.704 46.68C274.512 46.312 274.252 46.024 273.924 45.816C273.604 45.6 273.232 45.492 272.808 45.492ZM278.021 50.64C278.021 50.736 277.985 50.82 277.913 50.892C277.841 50.964 277.757 51 277.661 51C277.557 51 277.469 50.964 277.397 50.892C277.333 50.82 277.301 50.736 277.301 50.64V42.48C277.301 42.384 277.337 42.3 277.409 42.228C277.481 42.156 277.565 42.12 277.661 42.12C277.765 42.12 277.849 42.156 277.913 42.228C277.985 42.3 278.021 42.384 278.021 42.48V50.64ZM282.65 51.12C282.034 51.12 281.49 50.988 281.018 50.724C280.546 50.46 280.178 50.092 279.914 49.62C279.65 49.148 279.518 48.596 279.518 47.964C279.518 47.284 279.65 46.704 279.914 46.224C280.186 45.744 280.534 45.376 280.958 45.12C281.39 44.856 281.846 44.724 282.326 44.724C282.678 44.724 283.018 44.788 283.346 44.916C283.682 45.036 283.978 45.22 284.234 45.468C284.498 45.708 284.706 46.004 284.858 46.356C285.018 46.708 285.106 47.116 285.122 47.58C285.114 47.676 285.074 47.76 285.002 47.832C284.93 47.896 284.846 47.928 284.75 47.928H279.938L279.794 47.28H284.522L284.366 47.424V47.184C284.334 46.808 284.214 46.488 284.006 46.224C283.798 45.96 283.546 45.76 283.25 45.624C282.954 45.488 282.646 45.42 282.326 45.42C282.086 45.42 281.838 45.468 281.582 45.564C281.334 45.66 281.106 45.812 280.898 46.02C280.698 46.22 280.534 46.48 280.406 46.8C280.278 47.112 280.214 47.484 280.214 47.916C280.214 48.388 280.31 48.816 280.502 49.2C280.694 49.584 280.97 49.888 281.33 50.112C281.698 50.336 282.134 50.448 282.638 50.448C282.918 50.448 283.17 50.408 283.394 50.328C283.618 50.248 283.814 50.144 283.982 50.016C284.15 49.88 284.29 49.74 284.402 49.596C284.49 49.524 284.578 49.488 284.666 49.488C284.746 49.488 284.814 49.52 284.87 49.584C284.934 49.648 284.966 49.72 284.966 49.8C284.966 49.896 284.926 49.98 284.846 50.052C284.606 50.34 284.294 50.592 283.91 50.808C283.526 51.016 283.106 51.12 282.65 51.12ZM282.23 44.376C282.19 44.376 282.146 44.356 282.098 44.316C282.058 44.268 282.038 44.216 282.038 44.16C282.038 44.112 282.058 44.056 282.098 43.992L282.83 42.852C282.87 42.788 282.922 42.728 282.986 42.672C283.058 42.616 283.142 42.588 283.238 42.588C283.358 42.588 283.454 42.62 283.526 42.684C283.598 42.748 283.63 42.84 283.622 42.96C283.622 43.016 283.61 43.068 283.586 43.116C283.57 43.156 283.542 43.196 283.502 43.236L282.602 44.184C282.554 44.24 282.498 44.288 282.434 44.328C282.37 44.36 282.302 44.376 282.23 44.376ZM286.267 44.892H289.063C289.159 44.892 289.239 44.928 289.303 45C289.367 45.064 289.399 45.144 289.399 45.24C289.399 45.328 289.367 45.404 289.303 45.468C289.239 45.532 289.159 45.564 289.063 45.564H286.267C286.171 45.564 286.087 45.532 286.015 45.468C285.951 45.396 285.919 45.316 285.919 45.228C285.919 45.132 285.951 45.052 286.015 44.988C286.087 44.924 286.171 44.892 286.267 44.892ZM287.503 43.2C287.607 43.2 287.691 43.236 287.755 43.308C287.827 43.38 287.863 43.464 287.863 43.56V49.584C287.863 49.808 287.891 49.976 287.947 50.088C288.011 50.2 288.091 50.276 288.187 50.316C288.283 50.348 288.379 50.364 288.475 50.364C288.539 50.364 288.595 50.356 288.643 50.34C288.699 50.316 288.759 50.304 288.823 50.304C288.895 50.304 288.955 50.332 289.003 50.388C289.059 50.444 289.087 50.516 289.087 50.604C289.087 50.716 289.023 50.812 288.895 50.892C288.767 50.964 288.615 51 288.439 51C288.367 51 288.259 50.996 288.115 50.988C287.971 50.972 287.823 50.928 287.671 50.856C287.519 50.776 287.391 50.64 287.287 50.448C287.191 50.256 287.143 49.98 287.143 49.62V43.56C287.143 43.464 287.175 43.38 287.239 43.308C287.311 43.236 287.399 43.2 287.503 43.2ZM293.443 51.12C292.827 51.12 292.283 50.988 291.811 50.724C291.339 50.46 290.971 50.092 290.707 49.62C290.443 49.148 290.311 48.596 290.311 47.964C290.311 47.284 290.443 46.704 290.707 46.224C290.979 45.744 291.327 45.376 291.751 45.12C292.183 44.856 292.639 44.724 293.119 44.724C293.471 44.724 293.811 44.788 294.139 44.916C294.475 45.036 294.771 45.22 295.027 45.468C295.291 45.708 295.499 46.004 295.651 46.356C295.811 46.708 295.899 47.116 295.915 47.58C295.907 47.676 295.867 47.76 295.795 47.832C295.723 47.896 295.639 47.928 295.543 47.928H290.731L290.587 47.28H295.315L295.159 47.424V47.184C295.127 46.808 295.007 46.488 294.799 46.224C294.591 45.96 294.339 45.76 294.043 45.624C293.747 45.488 293.439 45.42 293.119 45.42C292.879 45.42 292.631 45.468 292.375 45.564C292.127 45.66 291.899 45.812 291.691 46.02C291.491 46.22 291.327 46.48 291.199 46.8C291.071 47.112 291.007 47.484 291.007 47.916C291.007 48.388 291.103 48.816 291.295 49.2C291.487 49.584 291.763 49.888 292.123 50.112C292.491 50.336 292.927 50.448 293.431 50.448C293.711 50.448 293.963 50.408 294.187 50.328C294.411 50.248 294.607 50.144 294.775 50.016C294.943 49.88 295.083 49.74 295.195 49.596C295.283 49.524 295.371 49.488 295.459 49.488C295.539 49.488 295.607 49.52 295.663 49.584C295.727 49.648 295.759 49.72 295.759 49.8C295.759 49.896 295.719 49.98 295.639 50.052C295.399 50.34 295.087 50.592 294.703 50.808C294.319 51.016 293.899 51.12 293.443 51.12ZM297.816 51C297.704 51 297.616 50.964 297.552 50.892C297.488 50.82 297.456 50.736 297.456 50.64V45.264C297.456 45.168 297.488 45.084 297.552 45.012C297.624 44.94 297.712 44.904 297.816 44.904C297.92 44.904 298.004 44.94 298.068 45.012C298.14 45.084 298.176 45.168 298.176 45.264V47.064L297.996 47.1C298.02 46.82 298.088 46.544 298.2 46.272C298.32 45.992 298.48 45.736 298.68 45.504C298.88 45.272 299.116 45.084 299.388 44.94C299.668 44.796 299.98 44.724 300.324 44.724C300.468 44.724 300.608 44.756 300.744 44.82C300.88 44.876 300.948 44.972 300.948 45.108C300.948 45.228 300.916 45.32 300.852 45.384C300.788 45.448 300.712 45.48 300.624 45.48C300.552 45.48 300.472 45.46 300.384 45.42C300.304 45.38 300.196 45.36 300.06 45.36C299.836 45.36 299.612 45.428 299.388 45.564C299.164 45.692 298.96 45.868 298.776 46.092C298.592 46.316 298.444 46.568 298.332 46.848C298.228 47.12 298.176 47.396 298.176 47.676V50.64C298.176 50.736 298.14 50.82 298.068 50.892C297.996 50.964 297.912 51 297.816 51ZM307.574 42.168C307.694 42.168 307.822 42.18 307.958 42.204C308.102 42.228 308.226 42.272 308.33 42.336C308.434 42.392 308.486 42.48 308.486 42.6C308.486 42.688 308.454 42.768 308.39 42.84C308.326 42.904 308.254 42.936 308.174 42.936C308.094 42.936 307.994 42.916 307.874 42.876C307.754 42.828 307.626 42.804 307.49 42.804C307.322 42.804 307.178 42.844 307.058 42.924C306.938 42.996 306.846 43.104 306.782 43.248C306.718 43.384 306.686 43.552 306.686 43.752V50.64C306.686 50.736 306.65 50.82 306.578 50.892C306.514 50.964 306.43 51 306.326 51C306.222 51 306.134 50.964 306.062 50.892C305.998 50.82 305.966 50.736 305.966 50.64V43.752C305.966 43.24 306.114 42.848 306.41 42.576C306.714 42.304 307.102 42.168 307.574 42.168ZM308.03 44.988C308.126 44.988 308.206 45.02 308.27 45.084C308.334 45.148 308.366 45.228 308.366 45.324C308.366 45.42 308.334 45.5 308.27 45.564C308.206 45.628 308.126 45.66 308.03 45.66H305.09C305.002 45.66 304.922 45.628 304.85 45.564C304.786 45.492 304.754 45.412 304.754 45.324C304.754 45.22 304.786 45.14 304.85 45.084C304.922 45.02 305.002 44.988 305.09 44.988H308.03ZM310.37 50.64C310.37 50.736 310.334 50.82 310.262 50.892C310.19 50.964 310.106 51 310.01 51C309.906 51 309.818 50.964 309.746 50.892C309.682 50.82 309.65 50.736 309.65 50.64V45.12C309.65 45.024 309.682 44.94 309.746 44.868C309.818 44.796 309.906 44.76 310.01 44.76C310.114 44.76 310.198 44.796 310.262 44.868C310.334 44.94 310.37 45.024 310.37 45.12V50.64ZM310.01 43.956C309.842 43.956 309.714 43.92 309.626 43.848C309.546 43.768 309.506 43.656 309.506 43.512V43.392C309.506 43.248 309.55 43.14 309.638 43.068C309.734 42.988 309.862 42.948 310.022 42.948C310.174 42.948 310.29 42.988 310.37 43.068C310.458 43.14 310.502 43.248 310.502 43.392V43.512C310.502 43.656 310.458 43.768 310.37 43.848C310.29 43.92 310.17 43.956 310.01 43.956ZM314.933 44.724C315.317 44.724 315.669 44.768 315.989 44.856C316.309 44.936 316.565 45.048 316.757 45.192C316.957 45.336 317.057 45.492 317.057 45.66C317.057 45.74 317.029 45.82 316.973 45.9C316.917 45.972 316.841 46.008 316.745 46.008C316.649 46.008 316.569 45.984 316.505 45.936C316.449 45.888 316.389 45.832 316.325 45.768C316.269 45.704 316.185 45.644 316.073 45.588C315.969 45.54 315.821 45.496 315.629 45.456C315.437 45.416 315.217 45.396 314.969 45.396C314.521 45.396 314.117 45.508 313.757 45.732C313.397 45.956 313.113 46.26 312.905 46.644C312.697 47.02 312.593 47.444 312.593 47.916C312.593 48.396 312.693 48.828 312.893 49.212C313.093 49.596 313.369 49.9 313.721 50.124C314.073 50.34 314.485 50.448 314.957 50.448C315.277 50.448 315.525 50.42 315.701 50.364C315.877 50.308 316.029 50.244 316.157 50.172C316.309 50.084 316.417 50 316.481 49.92C316.553 49.832 316.645 49.788 316.757 49.788C316.861 49.788 316.937 49.82 316.985 49.884C317.041 49.94 317.069 50.016 317.069 50.112C317.069 50.24 316.973 50.384 316.781 50.544C316.597 50.696 316.341 50.832 316.013 50.952C315.685 51.064 315.309 51.12 314.885 51.12C314.285 51.12 313.757 50.98 313.301 50.7C312.853 50.42 312.501 50.04 312.245 49.56C311.997 49.072 311.873 48.524 311.873 47.916C311.873 47.332 312.001 46.8 312.257 46.32C312.513 45.84 312.869 45.456 313.325 45.168C313.789 44.872 314.325 44.724 314.933 44.724ZM318.54 51C318.404 51 318.3 50.956 318.228 50.868C318.156 50.78 318.12 50.668 318.12 50.532V50.28C318.12 50.136 318.156 50.024 318.228 49.944C318.3 49.864 318.404 49.824 318.54 49.824H318.624C318.76 49.824 318.864 49.864 318.936 49.944C319.008 50.024 319.044 50.136 319.044 50.28V50.532C319.044 50.668 319.008 50.78 318.936 50.868C318.864 50.956 318.76 51 318.624 51H318.54ZM320.772 51C320.636 51 320.532 50.956 320.46 50.868C320.388 50.78 320.352 50.668 320.352 50.532V50.28C320.352 50.136 320.388 50.024 320.46 49.944C320.532 49.864 320.636 49.824 320.772 49.824H320.856C320.992 49.824 321.096 49.864 321.168 49.944C321.24 50.024 321.276 50.136 321.276 50.28V50.532C321.276 50.668 321.24 50.78 321.168 50.868C321.096 50.956 320.992 51 320.856 51H320.772ZM323.076 51C322.94 51 322.836 50.956 322.764 50.868C322.692 50.78 322.656 50.668 322.656 50.532V50.28C322.656 50.136 322.692 50.024 322.764 49.944C322.836 49.864 322.94 49.824 323.076 49.824H323.16C323.296 49.824 323.4 49.864 323.472 49.944C323.544 50.024 323.58 50.136 323.58 50.28V50.532C323.58 50.668 323.544 50.78 323.472 50.868C323.4 50.956 323.296 51 323.16 51H323.076Z" fill="#76746F"/>
</g>
<defs>
<clipPath id="clip0_3319_9354">
<rect width="328" height="54" fill="white"/>
</clipPath>
</defs>
</svg>
