<svg width="595" height="33" viewBox="0 0 595 33" fill="none" xmlns="http://www.w3.org/2000/svg">
<rect width="595" height="33" rx="8" fill="white"/>
<path d="M15.2466 8.11816C15.7988 8.11825 16.2466 8.56593 16.2466 9.11816L16.2466 15.4326L22.561 15.4326L22.6626 15.4375C23.167 15.4885 23.561 15.9147 23.561 16.4326C23.561 16.9504 23.167 17.3767 22.6626 17.4277L22.561 17.4326L16.2466 17.4326L16.2466 23.7471C16.2464 24.2991 15.7987 24.747 15.2466 24.7471C14.6944 24.7471 14.2468 24.2992 14.2466 23.7471L14.2466 17.4326L7.93213 17.4326C7.3799 17.4326 6.93222 16.9848 6.93213 16.4326C6.93213 15.8803 7.37984 15.4326 7.93213 15.4326L14.2466 15.4326L14.2466 9.11816C14.2466 8.56588 14.6943 8.11816 15.2466 8.11816Z" fill="#76746F" fill-opacity="0.4"/>
<g clip-path="url(#clip0_3319_9463)">
<path d="M36.6274 18.5H40.6274V14.5H36.6274V18.5ZM41.6274 18.5H45.6274V14.5H41.6274V18.5ZM36.6274 13.5H40.6274V9.5H36.6274V13.5ZM41.6274 9.5V13.5H45.6274V9.5H41.6274ZM46.6274 18.5H50.6274V14.5H46.6274V18.5ZM36.6274 23.5H40.6274V19.5H36.6274V23.5ZM41.6274 23.5H45.6274V19.5H41.6274V23.5ZM46.6274 23.5H50.6274V19.5H46.6274V23.5ZM46.6274 9.5V13.5H50.6274V9.5H46.6274Z" fill="#76746F" fill-opacity="0.4"/>
</g>
<path opacity="0.7" d="M78.1 24C77.86 24 77.66 23.92 77.5 23.76C77.34 23.6 77.26 23.4067 77.26 23.18V10.82H78.96V23.18C78.96 23.4067 78.88 23.6 78.72 23.76C78.56 23.92 78.3533 24 78.1 24ZM73.46 11.52C73.2333 11.52 73.04 11.4533 72.88 11.32C72.7333 11.1733 72.66 10.9867 72.66 10.76C72.66 10.5333 72.7333 10.3533 72.88 10.22C73.04 10.0733 73.2333 10 73.46 10H82.76C82.9867 10 83.18 10.0733 83.34 10.22C83.5 10.3533 83.58 10.5333 83.58 10.76C83.58 11 83.5 11.1867 83.34 11.32C83.18 11.4533 82.9867 11.52 82.76 11.52H73.46ZM92.2344 13.56C92.461 13.56 92.6477 13.64 92.7944 13.8C92.9544 13.9467 93.0344 14.1333 93.0344 14.36V23.18C93.0344 23.4067 92.9544 23.6 92.7944 23.76C92.6477 23.92 92.461 24 92.2344 24C91.9944 24 91.801 23.92 91.6544 23.76C91.5077 23.6 91.4344 23.4067 91.4344 23.18V21.28L91.8144 21.24C91.8144 21.5333 91.7144 21.8533 91.5144 22.2C91.3144 22.5467 91.041 22.8733 90.6944 23.18C90.3477 23.4733 89.9344 23.72 89.4544 23.92C88.9877 24.1067 88.481 24.2 87.9344 24.2C87.0277 24.2 86.2144 23.9667 85.4944 23.5C84.7744 23.02 84.201 22.3733 83.7744 21.56C83.361 20.7467 83.1544 19.82 83.1544 18.78C83.1544 17.7267 83.361 16.8 83.7744 16C84.201 15.1867 84.7744 14.5533 85.4944 14.1C86.2144 13.6333 87.0144 13.4 87.8944 13.4C88.4677 13.4 89.001 13.4933 89.4944 13.68C89.9877 13.8667 90.4144 14.12 90.7744 14.44C91.1477 14.76 91.4344 15.1133 91.6344 15.5C91.8477 15.8867 91.9544 16.2733 91.9544 16.66L91.4344 16.54V14.36C91.4344 14.1333 91.5077 13.9467 91.6544 13.8C91.801 13.64 91.9944 13.56 92.2344 13.56ZM88.1144 22.72C88.781 22.72 89.3677 22.5467 89.8744 22.2C90.3944 21.8533 90.7944 21.3867 91.0744 20.8C91.3677 20.2 91.5144 19.5267 91.5144 18.78C91.5144 18.0467 91.3677 17.3867 91.0744 16.8C90.7944 16.2 90.3944 15.7333 89.8744 15.4C89.3677 15.0533 88.781 14.88 88.1144 14.88C87.461 14.88 86.8744 15.0467 86.3544 15.38C85.8477 15.7133 85.4477 16.1733 85.1544 16.76C84.861 17.3467 84.7144 18.02 84.7144 18.78C84.7144 19.5267 84.8544 20.2 85.1344 20.8C85.4277 21.3867 85.8277 21.8533 86.3344 22.2C86.8544 22.5467 87.4477 22.72 88.1144 22.72ZM101.1 13.5C102.006 13.5 102.82 13.7267 103.54 14.18C104.26 14.6333 104.826 15.26 105.24 16.06C105.666 16.86 105.88 17.78 105.88 18.82C105.88 19.8467 105.666 20.7667 105.24 21.58C104.826 22.38 104.26 23.0133 103.54 23.48C102.833 23.9333 102.033 24.16 101.14 24.16C100.646 24.16 100.18 24.0867 99.7395 23.94C99.3129 23.78 98.9195 23.58 98.5595 23.34C98.2129 23.0867 97.9195 22.8067 97.6795 22.5C97.4395 22.18 97.2662 21.8667 97.1595 21.56L97.5995 21.28V27.18C97.5995 27.4067 97.5262 27.6 97.3795 27.76C97.2329 27.92 97.0395 28 96.7995 28C96.5729 28 96.3795 27.92 96.2195 27.76C96.0729 27.6133 95.9995 27.42 95.9995 27.18V14.4C95.9995 14.1733 96.0729 13.9867 96.2195 13.84C96.3795 13.68 96.5729 13.6 96.7995 13.6C97.0395 13.6 97.2329 13.68 97.3795 13.84C97.5262 13.9867 97.5995 14.1733 97.5995 14.4V16.18L97.2995 16.02C97.3929 15.6867 97.5529 15.3667 97.7795 15.06C98.0195 14.7533 98.3062 14.4867 98.6395 14.26C98.9862 14.02 99.3662 13.8333 99.7795 13.7C100.206 13.5667 100.646 13.5 101.1 13.5ZM100.92 14.98C100.253 14.98 99.6595 15.1467 99.1395 15.48C98.6329 15.8133 98.2329 16.2667 97.9395 16.84C97.6595 17.4133 97.5195 18.0733 97.5195 18.82C97.5195 19.5533 97.6595 20.2133 97.9395 20.8C98.2329 21.3867 98.6329 21.8467 99.1395 22.18C99.6595 22.5133 100.253 22.68 100.92 22.68C101.586 22.68 102.173 22.5133 102.68 22.18C103.186 21.8467 103.586 21.3867 103.88 20.8C104.173 20.2133 104.32 19.5533 104.32 18.82C104.32 18.0733 104.173 17.4133 103.88 16.84C103.586 16.2667 103.186 15.8133 102.68 15.48C102.173 15.1467 101.586 14.98 100.92 14.98ZM113.065 24.2C111.998 24.2 111.065 23.9733 110.265 23.52C109.465 23.0667 108.838 22.4467 108.385 21.66C107.945 20.86 107.725 19.94 107.725 18.9C107.725 17.74 107.951 16.7533 108.405 15.94C108.871 15.1133 109.471 14.4867 110.205 14.06C110.951 13.62 111.738 13.4 112.565 13.4C113.178 13.4 113.771 13.5133 114.345 13.74C114.918 13.9667 115.425 14.3 115.865 14.74C116.305 15.1667 116.658 15.6867 116.925 16.3C117.191 16.9 117.331 17.5733 117.345 18.32C117.345 18.5333 117.265 18.7133 117.105 18.86C116.945 19.0067 116.758 19.08 116.545 19.08H108.645L108.285 17.7H115.985L115.665 17.98V17.54C115.611 16.9933 115.425 16.5267 115.105 16.14C114.798 15.74 114.418 15.4333 113.965 15.22C113.525 15.0067 113.058 14.9 112.565 14.9C112.165 14.9 111.765 14.9733 111.365 15.12C110.978 15.2533 110.625 15.48 110.305 15.8C109.998 16.1067 109.745 16.5067 109.545 17C109.358 17.4933 109.265 18.0867 109.265 18.78C109.265 19.5533 109.418 20.2333 109.725 20.82C110.045 21.4067 110.485 21.8733 111.045 22.22C111.605 22.5533 112.258 22.72 113.005 22.72C113.471 22.72 113.878 22.66 114.225 22.54C114.571 22.42 114.871 22.2733 115.125 22.1C115.378 21.9133 115.591 21.7267 115.765 21.54C115.938 21.42 116.105 21.36 116.265 21.36C116.465 21.36 116.625 21.4267 116.745 21.56C116.878 21.6933 116.945 21.8533 116.945 22.04C116.945 22.2667 116.838 22.4667 116.625 22.64C116.251 23.0533 115.745 23.42 115.105 23.74C114.465 24.0467 113.785 24.2 113.065 24.2ZM126.31 22.52C126.523 22.52 126.703 22.5933 126.85 22.74C126.996 22.8733 127.07 23.0467 127.07 23.26C127.07 23.46 126.996 23.6333 126.85 23.78C126.703 23.9267 126.523 24 126.31 24H119.83C119.59 24 119.403 23.9133 119.27 23.74C119.136 23.5667 119.07 23.4067 119.07 23.26C119.083 23.1267 119.103 23.0133 119.13 22.92C119.156 22.8267 119.216 22.72 119.31 22.6L125.03 14.86L125.05 15.08H120.21C119.996 15.08 119.816 15.0067 119.67 14.86C119.523 14.7133 119.45 14.5333 119.45 14.32C119.45 14.12 119.523 13.9533 119.67 13.82C119.816 13.6733 119.996 13.6 120.21 13.6H126.35C126.563 13.6 126.736 13.68 126.87 13.84C127.016 13.9867 127.09 14.1733 127.09 14.4C127.076 14.4933 127.056 14.5867 127.03 14.68C127.003 14.76 126.95 14.86 126.87 14.98L121.21 22.62L121.07 22.52H126.31ZM136.646 23.18C136.646 23.4067 136.566 23.6 136.406 23.76C136.246 23.92 136.053 24 135.826 24C135.6 24 135.413 23.92 135.266 23.76C135.12 23.6 135.046 23.4067 135.046 23.18V10C135.046 9.77333 135.12 9.58667 135.266 9.44C135.426 9.28 135.62 9.2 135.846 9.2C136.086 9.2 136.28 9.28 136.426 9.44C136.573 9.58667 136.646 9.77333 136.646 10V23.18ZM144.334 24.2C143.268 24.2 142.334 23.9733 141.534 23.52C140.734 23.0667 140.108 22.4467 139.654 21.66C139.214 20.86 138.994 19.94 138.994 18.9C138.994 17.74 139.221 16.7533 139.674 15.94C140.141 15.1133 140.741 14.4867 141.474 14.06C142.221 13.62 143.008 13.4 143.834 13.4C144.448 13.4 145.041 13.5133 145.614 13.74C146.188 13.9667 146.694 14.3 147.134 14.74C147.574 15.1667 147.928 15.6867 148.194 16.3C148.461 16.9 148.601 17.5733 148.614 18.32C148.614 18.5333 148.534 18.7133 148.374 18.86C148.214 19.0067 148.028 19.08 147.814 19.08H139.914L139.554 17.7H147.254L146.934 17.98V17.54C146.881 16.9933 146.694 16.5267 146.374 16.14C146.068 15.74 145.688 15.4333 145.234 15.22C144.794 15.0067 144.328 14.9 143.834 14.9C143.434 14.9 143.034 14.9733 142.634 15.12C142.248 15.2533 141.894 15.48 141.574 15.8C141.268 16.1067 141.014 16.5067 140.814 17C140.628 17.4933 140.534 18.0867 140.534 18.78C140.534 19.5533 140.688 20.2333 140.994 20.82C141.314 21.4067 141.754 21.8733 142.314 22.22C142.874 22.5533 143.528 22.72 144.274 22.72C144.741 22.72 145.148 22.66 145.494 22.54C145.841 22.42 146.141 22.2733 146.394 22.1C146.648 21.9133 146.861 21.7267 147.034 21.54C147.208 21.42 147.374 21.36 147.534 21.36C147.734 21.36 147.894 21.4267 148.014 21.56C148.148 21.6933 148.214 21.8533 148.214 22.04C148.214 22.2667 148.108 22.4667 147.894 22.64C147.521 23.0533 147.014 23.42 146.374 23.74C145.734 24.0467 145.054 24.2 144.334 24.2ZM161.127 13.4C161.807 13.4 162.42 13.4733 162.967 13.62C163.514 13.7667 163.947 13.9667 164.267 14.22C164.587 14.4733 164.747 14.76 164.747 15.08C164.747 15.2533 164.687 15.42 164.567 15.58C164.447 15.74 164.287 15.82 164.087 15.82C163.9 15.82 163.747 15.7867 163.627 15.72C163.52 15.6533 163.414 15.5667 163.307 15.46C163.214 15.3533 163.08 15.26 162.907 15.18C162.747 15.0867 162.514 15.0133 162.207 14.96C161.9 14.9067 161.594 14.88 161.287 14.88C160.554 14.88 159.907 15.0533 159.347 15.4C158.8 15.7467 158.367 16.2133 158.047 16.8C157.727 17.3867 157.567 18.0533 157.567 18.8C157.567 19.5467 157.72 20.2133 158.027 20.8C158.334 21.3867 158.76 21.8533 159.307 22.2C159.854 22.5467 160.487 22.72 161.207 22.72C161.674 22.72 162.047 22.68 162.327 22.6C162.607 22.52 162.84 22.4267 163.027 22.32C163.267 22.1867 163.447 22.0533 163.567 21.92C163.7 21.7867 163.874 21.72 164.087 21.72C164.314 21.72 164.487 21.7933 164.607 21.94C164.74 22.0867 164.807 22.2667 164.807 22.48C164.807 22.72 164.64 22.9733 164.307 23.24C163.974 23.5067 163.52 23.7333 162.947 23.92C162.387 24.1067 161.747 24.2 161.027 24.2C160.014 24.2 159.127 23.9667 158.367 23.5C157.607 23.02 157.014 22.3733 156.587 21.56C156.174 20.7333 155.967 19.8133 155.967 18.8C155.967 17.7867 156.18 16.8733 156.607 16.06C157.047 15.2467 157.654 14.6 158.427 14.12C159.2 13.64 160.1 13.4 161.127 13.4ZM176.718 18.8C176.718 19.84 176.485 20.7667 176.018 21.58C175.565 22.3933 174.945 23.0333 174.158 23.5C173.385 23.9667 172.511 24.2 171.538 24.2C170.565 24.2 169.685 23.9667 168.898 23.5C168.111 23.0333 167.485 22.3933 167.018 21.58C166.565 20.7667 166.338 19.84 166.338 18.8C166.338 17.76 166.565 16.8333 167.018 16.02C167.485 15.2067 168.111 14.5667 168.898 14.1C169.685 13.6333 170.565 13.4 171.538 13.4C172.511 13.4 173.385 13.6333 174.158 14.1C174.945 14.5667 175.565 15.2067 176.018 16.02C176.485 16.8333 176.718 17.76 176.718 18.8ZM175.118 18.8C175.118 18.0267 174.958 17.3467 174.638 16.76C174.331 16.1733 173.905 15.7133 173.358 15.38C172.825 15.0467 172.218 14.88 171.538 14.88C170.858 14.88 170.245 15.0467 169.698 15.38C169.165 15.7133 168.738 16.1733 168.418 16.76C168.098 17.3467 167.938 18.0267 167.938 18.8C167.938 19.56 168.098 20.2333 168.418 20.82C168.738 21.4067 169.165 21.8733 169.698 22.22C170.245 22.5533 170.858 22.72 171.538 22.72C172.218 22.72 172.825 22.5533 173.358 22.22C173.905 21.8733 174.331 21.4067 174.638 20.82C174.958 20.2333 175.118 19.56 175.118 18.8ZM184.265 13.4C185.171 13.4 185.885 13.5867 186.405 13.96C186.925 14.3333 187.291 14.8333 187.505 15.46C187.731 16.0867 187.845 16.7867 187.845 17.56V23.18C187.845 23.4067 187.765 23.6 187.605 23.76C187.458 23.92 187.271 24 187.045 24C186.818 24 186.625 23.92 186.465 23.76C186.318 23.6 186.245 23.4067 186.245 23.18V17.6C186.245 17.0933 186.165 16.64 186.005 16.24C185.858 15.8267 185.605 15.5 185.245 15.26C184.898 15.0067 184.418 14.88 183.805 14.88C183.245 14.88 182.731 15.0067 182.265 15.26C181.798 15.5 181.425 15.8267 181.145 16.24C180.865 16.64 180.725 17.0933 180.725 17.6V23.18C180.725 23.4067 180.645 23.6 180.485 23.76C180.338 23.92 180.151 24 179.925 24C179.698 24 179.505 23.92 179.345 23.76C179.198 23.6 179.125 23.4067 179.125 23.18V14.46C179.125 14.2333 179.198 14.0467 179.345 13.9C179.505 13.74 179.698 13.66 179.925 13.66C180.165 13.66 180.358 13.74 180.505 13.9C180.651 14.0467 180.725 14.2333 180.725 14.46V15.88L180.325 16.32C180.391 15.9733 180.545 15.6267 180.785 15.28C181.025 14.92 181.325 14.6 181.685 14.32C182.045 14.04 182.445 13.82 182.885 13.66C183.325 13.4867 183.785 13.4 184.265 13.4ZM190.404 13.72H195.104C195.318 13.72 195.491 13.7933 195.624 13.94C195.771 14.0867 195.844 14.26 195.844 14.46C195.844 14.6733 195.771 14.8533 195.624 15C195.491 15.1333 195.318 15.2 195.104 15.2H190.404C190.204 15.2 190.031 15.1267 189.884 14.98C189.738 14.8333 189.664 14.6533 189.664 14.44C189.664 14.24 189.738 14.0733 189.884 13.94C190.031 13.7933 190.204 13.72 190.404 13.72ZM192.504 11C192.731 11 192.918 11.08 193.064 11.24C193.211 11.3867 193.284 11.5733 193.284 11.8V21.46C193.284 21.78 193.331 22.02 193.424 22.18C193.518 22.34 193.638 22.4533 193.784 22.52C193.944 22.5733 194.098 22.6 194.244 22.6C194.378 22.6 194.491 22.58 194.584 22.54C194.691 22.4867 194.811 22.46 194.944 22.46C195.078 22.46 195.198 22.5267 195.304 22.66C195.424 22.78 195.484 22.94 195.484 23.14C195.484 23.38 195.344 23.5867 195.064 23.76C194.784 23.92 194.471 24 194.124 24C193.938 24 193.704 23.9867 193.424 23.96C193.158 23.9333 192.891 23.8467 192.624 23.7C192.358 23.5533 192.131 23.3133 191.944 22.98C191.771 22.6333 191.684 22.1533 191.684 21.54V11.8C191.684 11.5733 191.764 11.3867 191.924 11.24C192.084 11.08 192.278 11 192.504 11ZM202.752 24.2C201.686 24.2 200.752 23.9733 199.952 23.52C199.152 23.0667 198.526 22.4467 198.072 21.66C197.632 20.86 197.412 19.94 197.412 18.9C197.412 17.74 197.639 16.7533 198.092 15.94C198.559 15.1133 199.159 14.4867 199.892 14.06C200.639 13.62 201.426 13.4 202.252 13.4C202.866 13.4 203.459 13.5133 204.032 13.74C204.606 13.9667 205.112 14.3 205.552 14.74C205.992 15.1667 206.346 15.6867 206.612 16.3C206.879 16.9 207.019 17.5733 207.032 18.32C207.032 18.5333 206.952 18.7133 206.792 18.86C206.632 19.0067 206.446 19.08 206.232 19.08H198.332L197.972 17.7H205.672L205.352 17.98V17.54C205.299 16.9933 205.112 16.5267 204.792 16.14C204.486 15.74 204.106 15.4333 203.652 15.22C203.212 15.0067 202.746 14.9 202.252 14.9C201.852 14.9 201.452 14.9733 201.052 15.12C200.666 15.2533 200.312 15.48 199.992 15.8C199.686 16.1067 199.432 16.5067 199.232 17C199.046 17.4933 198.952 18.0867 198.952 18.78C198.952 19.5533 199.106 20.2333 199.412 20.82C199.732 21.4067 200.172 21.8733 200.732 22.22C201.292 22.5533 201.946 22.72 202.692 22.72C203.159 22.72 203.566 22.66 203.912 22.54C204.259 22.42 204.559 22.2733 204.812 22.1C205.066 21.9133 205.279 21.7267 205.452 21.54C205.626 21.42 205.792 21.36 205.952 21.36C206.152 21.36 206.312 21.4267 206.432 21.56C206.566 21.6933 206.632 21.8533 206.632 22.04C206.632 22.2667 206.526 22.4667 206.312 22.64C205.939 23.0533 205.432 23.42 204.792 23.74C204.152 24.0467 203.472 24.2 202.752 24.2ZM214.577 13.4C215.484 13.4 216.197 13.5867 216.717 13.96C217.237 14.3333 217.604 14.8333 217.817 15.46C218.044 16.0867 218.157 16.7867 218.157 17.56V23.18C218.157 23.4067 218.077 23.6 217.917 23.76C217.77 23.92 217.584 24 217.357 24C217.13 24 216.937 23.92 216.777 23.76C216.63 23.6 216.557 23.4067 216.557 23.18V17.6C216.557 17.0933 216.477 16.64 216.317 16.24C216.17 15.8267 215.917 15.5 215.557 15.26C215.21 15.0067 214.73 14.88 214.117 14.88C213.557 14.88 213.044 15.0067 212.577 15.26C212.11 15.5 211.737 15.8267 211.457 16.24C211.177 16.64 211.037 17.0933 211.037 17.6V23.18C211.037 23.4067 210.957 23.6 210.797 23.76C210.65 23.92 210.464 24 210.237 24C210.01 24 209.817 23.92 209.657 23.76C209.51 23.6 209.437 23.4067 209.437 23.18V14.46C209.437 14.2333 209.51 14.0467 209.657 13.9C209.817 13.74 210.01 13.66 210.237 13.66C210.477 13.66 210.67 13.74 210.817 13.9C210.964 14.0467 211.037 14.2333 211.037 14.46V15.88L210.637 16.32C210.704 15.9733 210.857 15.6267 211.097 15.28C211.337 14.92 211.637 14.6 211.997 14.32C212.357 14.04 212.757 13.82 213.197 13.66C213.637 13.4867 214.097 13.4 214.577 13.4ZM228.857 13.66C229.097 13.66 229.29 13.74 229.437 13.9C229.583 14.0467 229.657 14.2333 229.657 14.46V19.92C229.657 21.2667 229.277 22.3133 228.517 23.06C227.77 23.7933 226.723 24.16 225.377 24.16C224.043 24.16 222.997 23.7933 222.237 23.06C221.49 22.3133 221.117 21.2667 221.117 19.92V14.46C221.117 14.2333 221.19 14.0467 221.337 13.9C221.497 13.74 221.69 13.66 221.917 13.66C222.157 13.66 222.35 13.74 222.497 13.9C222.643 14.0467 222.717 14.2333 222.717 14.46V19.92C222.717 20.8267 222.95 21.5133 223.417 21.98C223.883 22.4467 224.537 22.68 225.377 22.68C226.243 22.68 226.903 22.4467 227.357 21.98C227.823 21.5133 228.057 20.8267 228.057 19.92V14.46C228.057 14.2333 228.13 14.0467 228.277 13.9C228.437 13.74 228.63 13.66 228.857 13.66ZM246.648 9.2C246.875 9.2 247.062 9.28 247.208 9.44C247.368 9.58667 247.448 9.77333 247.448 10V23.18C247.448 23.4067 247.368 23.6 247.208 23.76C247.062 23.92 246.875 24 246.648 24C246.408 24 246.215 23.92 246.068 23.76C245.922 23.6 245.848 23.4067 245.848 23.18V21.28L246.228 21.14C246.228 21.46 246.128 21.8 245.928 22.16C245.728 22.5067 245.455 22.8333 245.108 23.14C244.762 23.4467 244.348 23.7 243.868 23.9C243.402 24.1 242.895 24.2 242.348 24.2C241.455 24.2 240.642 23.9667 239.908 23.5C239.188 23.0333 238.615 22.3933 238.188 21.58C237.775 20.7667 237.568 19.84 237.568 18.8C237.568 17.7467 237.775 16.8133 238.188 16C238.615 15.1867 239.188 14.5533 239.908 14.1C240.628 13.6333 241.428 13.4 242.308 13.4C242.868 13.4 243.395 13.4933 243.888 13.68C244.382 13.8667 244.808 14.12 245.168 14.44C245.542 14.76 245.835 15.1133 246.048 15.5C246.262 15.8867 246.368 16.2733 246.368 16.66L245.848 16.54V10C245.848 9.77333 245.922 9.58667 246.068 9.44C246.215 9.28 246.408 9.2 246.648 9.2ZM242.528 22.72C243.195 22.72 243.782 22.5533 244.288 22.22C244.808 21.8733 245.208 21.4067 245.488 20.82C245.782 20.22 245.928 19.5467 245.928 18.8C245.928 18.04 245.782 17.3667 245.488 16.78C245.208 16.1933 244.808 15.7333 244.288 15.4C243.782 15.0533 243.195 14.88 242.528 14.88C241.875 14.88 241.288 15.0533 240.768 15.4C240.262 15.7333 239.862 16.1933 239.568 16.78C239.275 17.3667 239.128 18.04 239.128 18.8C239.128 19.5333 239.275 20.2 239.568 20.8C239.862 21.3867 240.262 21.8533 240.768 22.2C241.288 22.5467 241.875 22.72 242.528 22.72ZM258.466 13.66C258.706 13.66 258.899 13.74 259.046 13.9C259.193 14.0467 259.266 14.2333 259.266 14.46V19.92C259.266 21.2667 258.886 22.3133 258.126 23.06C257.379 23.7933 256.333 24.16 254.986 24.16C253.653 24.16 252.606 23.7933 251.846 23.06C251.099 22.3133 250.726 21.2667 250.726 19.92V14.46C250.726 14.2333 250.799 14.0467 250.946 13.9C251.106 13.74 251.299 13.66 251.526 13.66C251.766 13.66 251.959 13.74 252.106 13.9C252.253 14.0467 252.326 14.2333 252.326 14.46V19.92C252.326 20.8267 252.559 21.5133 253.026 21.98C253.493 22.4467 254.146 22.68 254.986 22.68C255.853 22.68 256.513 22.4467 256.966 21.98C257.433 21.5133 257.666 20.8267 257.666 19.92V14.46C257.666 14.2333 257.739 14.0467 257.886 13.9C258.046 13.74 258.239 13.66 258.466 13.66ZM272.678 13.5C273.584 13.5 274.318 13.7333 274.878 14.2C275.451 14.6533 275.831 15.3 276.018 16.14H275.718L275.858 15.78C276.018 15.4067 276.291 15.0467 276.678 14.7C277.064 14.3533 277.511 14.0667 278.018 13.84C278.524 13.6133 279.051 13.5 279.598 13.5C280.478 13.5 281.171 13.6933 281.678 14.08C282.184 14.4533 282.544 14.96 282.758 15.6C282.984 16.2267 283.098 16.9333 283.098 17.72V23.18C283.098 23.4067 283.018 23.6 282.858 23.76C282.711 23.92 282.524 24 282.298 24C282.058 24 281.864 23.92 281.718 23.76C281.571 23.6 281.498 23.4067 281.498 23.18V17.76C281.498 17.24 281.418 16.7733 281.258 16.36C281.111 15.9333 280.864 15.6 280.518 15.36C280.184 15.1067 279.724 14.98 279.138 14.98C278.591 14.98 278.091 15.1067 277.638 15.36C277.184 15.6 276.824 15.9333 276.558 16.36C276.291 16.7733 276.158 17.24 276.158 17.76V23.18C276.158 23.4067 276.084 23.6 275.938 23.76C275.791 23.92 275.598 24 275.358 24C275.131 24 274.938 23.92 274.778 23.76C274.631 23.6 274.558 23.4067 274.558 23.18V17.7C274.558 17.1933 274.484 16.74 274.338 16.34C274.204 15.9267 273.971 15.6 273.638 15.36C273.304 15.1067 272.844 14.98 272.258 14.98C271.724 14.98 271.238 15.1067 270.798 15.36C270.358 15.6 270.004 15.9267 269.738 16.34C269.471 16.74 269.338 17.1933 269.338 17.7V23.18C269.338 23.4067 269.258 23.6 269.098 23.76C268.951 23.92 268.764 24 268.538 24C268.311 24 268.118 23.92 267.958 23.76C267.811 23.6 267.738 23.4067 267.738 23.18V14.46C267.738 14.2333 267.811 14.0467 267.958 13.9C268.118 13.74 268.311 13.66 268.538 13.66C268.778 13.66 268.971 13.74 269.118 13.9C269.264 14.0467 269.338 14.2333 269.338 14.46V15.98L268.898 16.46C268.951 16.1133 269.084 15.7667 269.298 15.42C269.524 15.0733 269.811 14.7533 270.158 14.46C270.504 14.1667 270.891 13.9333 271.318 13.76C271.744 13.5867 272.198 13.5 272.678 13.5ZM295.878 18.8C295.878 19.84 295.645 20.7667 295.178 21.58C294.725 22.3933 294.105 23.0333 293.318 23.5C292.545 23.9667 291.671 24.2 290.698 24.2C289.725 24.2 288.845 23.9667 288.058 23.5C287.271 23.0333 286.645 22.3933 286.178 21.58C285.725 20.7667 285.498 19.84 285.498 18.8C285.498 17.76 285.725 16.8333 286.178 16.02C286.645 15.2067 287.271 14.5667 288.058 14.1C288.845 13.6333 289.725 13.4 290.698 13.4C291.671 13.4 292.545 13.6333 293.318 14.1C294.105 14.5667 294.725 15.2067 295.178 16.02C295.645 16.8333 295.878 17.76 295.878 18.8ZM294.278 18.8C294.278 18.0267 294.118 17.3467 293.798 16.76C293.491 16.1733 293.065 15.7133 292.518 15.38C291.985 15.0467 291.378 14.88 290.698 14.88C290.018 14.88 289.405 15.0467 288.858 15.38C288.325 15.7133 287.898 16.1733 287.578 16.76C287.258 17.3467 287.098 18.0267 287.098 18.8C287.098 19.56 287.258 20.2333 287.578 20.82C287.898 21.4067 288.325 21.8733 288.858 22.22C289.405 22.5533 290.018 22.72 290.698 22.72C291.378 22.72 291.985 22.5533 292.518 22.22C293.065 21.8733 293.491 21.4067 293.798 20.82C294.118 20.2333 294.278 19.56 294.278 18.8ZM306.805 9.2C307.031 9.2 307.218 9.28 307.365 9.44C307.525 9.58667 307.605 9.77333 307.605 10V23.18C307.605 23.4067 307.525 23.6 307.365 23.76C307.218 23.92 307.031 24 306.805 24C306.565 24 306.371 23.92 306.225 23.76C306.078 23.6 306.005 23.4067 306.005 23.18V21.28L306.385 21.14C306.385 21.46 306.285 21.8 306.085 22.16C305.885 22.5067 305.611 22.8333 305.265 23.14C304.918 23.4467 304.505 23.7 304.025 23.9C303.558 24.1 303.051 24.2 302.505 24.2C301.611 24.2 300.798 23.9667 300.065 23.5C299.345 23.0333 298.771 22.3933 298.345 21.58C297.931 20.7667 297.725 19.84 297.725 18.8C297.725 17.7467 297.931 16.8133 298.345 16C298.771 15.1867 299.345 14.5533 300.065 14.1C300.785 13.6333 301.585 13.4 302.465 13.4C303.025 13.4 303.551 13.4933 304.045 13.68C304.538 13.8667 304.965 14.12 305.325 14.44C305.698 14.76 305.991 15.1133 306.205 15.5C306.418 15.8867 306.525 16.2733 306.525 16.66L306.005 16.54V10C306.005 9.77333 306.078 9.58667 306.225 9.44C306.371 9.28 306.565 9.2 306.805 9.2ZM302.685 22.72C303.351 22.72 303.938 22.5533 304.445 22.22C304.965 21.8733 305.365 21.4067 305.645 20.82C305.938 20.22 306.085 19.5467 306.085 18.8C306.085 18.04 305.938 17.3667 305.645 16.78C305.365 16.1933 304.965 15.7333 304.445 15.4C303.938 15.0533 303.351 14.88 302.685 14.88C302.031 14.88 301.445 15.0533 300.925 15.4C300.418 15.7333 300.018 16.1933 299.725 16.78C299.431 17.3667 299.285 18.04 299.285 18.8C299.285 19.5333 299.431 20.2 299.725 20.8C300.018 21.3867 300.418 21.8533 300.925 22.2C301.445 22.5467 302.031 22.72 302.685 22.72ZM318.622 13.66C318.862 13.66 319.056 13.74 319.202 13.9C319.349 14.0467 319.422 14.2333 319.422 14.46V19.92C319.422 21.2667 319.042 22.3133 318.282 23.06C317.536 23.7933 316.489 24.16 315.142 24.16C313.809 24.16 312.762 23.7933 312.002 23.06C311.256 22.3133 310.882 21.2667 310.882 19.92V14.46C310.882 14.2333 310.956 14.0467 311.102 13.9C311.262 13.74 311.456 13.66 311.682 13.66C311.922 13.66 312.116 13.74 312.262 13.9C312.409 14.0467 312.482 14.2333 312.482 14.46V19.92C312.482 20.8267 312.716 21.5133 313.182 21.98C313.649 22.4467 314.302 22.68 315.142 22.68C316.009 22.68 316.669 22.4467 317.122 21.98C317.589 21.5133 317.822 20.8267 317.822 19.92V14.46C317.822 14.2333 317.896 14.0467 318.042 13.9C318.202 13.74 318.396 13.66 318.622 13.66ZM324.146 23.18C324.146 23.4067 324.066 23.6 323.906 23.76C323.746 23.92 323.553 24 323.326 24C323.1 24 322.913 23.92 322.766 23.76C322.62 23.6 322.546 23.4067 322.546 23.18V10C322.546 9.77333 322.62 9.58667 322.766 9.44C322.926 9.28 323.12 9.2 323.346 9.2C323.586 9.2 323.78 9.28 323.926 9.44C324.073 9.58667 324.146 9.77333 324.146 10V23.18ZM331.834 24.2C330.768 24.2 329.834 23.9733 329.034 23.52C328.234 23.0667 327.608 22.4467 327.154 21.66C326.714 20.86 326.494 19.94 326.494 18.9C326.494 17.74 326.721 16.7533 327.174 15.94C327.641 15.1133 328.241 14.4867 328.974 14.06C329.721 13.62 330.508 13.4 331.334 13.4C331.948 13.4 332.541 13.5133 333.114 13.74C333.688 13.9667 334.194 14.3 334.634 14.74C335.074 15.1667 335.428 15.6867 335.694 16.3C335.961 16.9 336.101 17.5733 336.114 18.32C336.114 18.5333 336.034 18.7133 335.874 18.86C335.714 19.0067 335.528 19.08 335.314 19.08H327.414L327.054 17.7H334.754L334.434 17.98V17.54C334.381 16.9933 334.194 16.5267 333.874 16.14C333.568 15.74 333.188 15.4333 332.734 15.22C332.294 15.0067 331.828 14.9 331.334 14.9C330.934 14.9 330.534 14.9733 330.134 15.12C329.748 15.2533 329.394 15.48 329.074 15.8C328.768 16.1067 328.514 16.5067 328.314 17C328.128 17.4933 328.034 18.0867 328.034 18.78C328.034 19.5533 328.188 20.2333 328.494 20.82C328.814 21.4067 329.254 21.8733 329.814 22.22C330.374 22.5533 331.028 22.72 331.774 22.72C332.241 22.72 332.648 22.66 332.994 22.54C333.341 22.42 333.641 22.2733 333.894 22.1C334.148 21.9133 334.361 21.7267 334.534 21.54C334.708 21.42 334.874 21.36 335.034 21.36C335.234 21.36 335.394 21.4267 335.514 21.56C335.648 21.6933 335.714 21.8533 335.714 22.04C335.714 22.2667 335.608 22.4667 335.394 22.64C335.021 23.0533 334.514 23.42 333.874 23.74C333.234 24.0467 332.554 24.2 331.834 24.2ZM345.567 23.18C345.567 23.4067 345.487 23.6 345.327 23.76C345.18 23.92 344.994 24 344.767 24C344.527 24 344.334 23.92 344.187 23.76C344.04 23.6 343.967 23.4067 343.967 23.18V14.3C343.967 14.0733 344.04 13.8867 344.187 13.74C344.347 13.58 344.54 13.5 344.767 13.5C344.994 13.5 345.18 13.58 345.327 13.74C345.487 13.8867 345.567 14.0733 345.567 14.3V23.18ZM344.767 12.16C344.434 12.16 344.187 12.0933 344.027 11.96C343.867 11.8267 343.787 11.62 343.787 11.34V11.06C343.787 10.78 343.874 10.5733 344.047 10.44C344.22 10.3067 344.467 10.24 344.787 10.24C345.107 10.24 345.347 10.3067 345.507 10.44C345.667 10.5733 345.747 10.78 345.747 11.06V11.34C345.747 11.62 345.66 11.8267 345.487 11.96C345.327 12.0933 345.087 12.16 344.767 12.16ZM353.041 13.4C353.721 13.4 354.334 13.4733 354.881 13.62C355.428 13.7667 355.861 13.9667 356.181 14.22C356.501 14.4733 356.661 14.76 356.661 15.08C356.661 15.2533 356.601 15.42 356.481 15.58C356.361 15.74 356.201 15.82 356.001 15.82C355.814 15.82 355.661 15.7867 355.541 15.72C355.434 15.6533 355.328 15.5667 355.221 15.46C355.128 15.3533 354.994 15.26 354.821 15.18C354.661 15.0867 354.428 15.0133 354.121 14.96C353.814 14.9067 353.508 14.88 353.201 14.88C352.468 14.88 351.821 15.0533 351.261 15.4C350.714 15.7467 350.281 16.2133 349.961 16.8C349.641 17.3867 349.481 18.0533 349.481 18.8C349.481 19.5467 349.634 20.2133 349.941 20.8C350.248 21.3867 350.674 21.8533 351.221 22.2C351.768 22.5467 352.401 22.72 353.121 22.72C353.588 22.72 353.961 22.68 354.241 22.6C354.521 22.52 354.754 22.4267 354.941 22.32C355.181 22.1867 355.361 22.0533 355.481 21.92C355.614 21.7867 355.788 21.72 356.001 21.72C356.228 21.72 356.401 21.7933 356.521 21.94C356.654 22.0867 356.721 22.2667 356.721 22.48C356.721 22.72 356.554 22.9733 356.221 23.24C355.888 23.5067 355.434 23.7333 354.861 23.92C354.301 24.1067 353.661 24.2 352.941 24.2C351.928 24.2 351.041 23.9667 350.281 23.5C349.521 23.02 348.928 22.3733 348.501 21.56C348.088 20.7333 347.881 19.8133 347.881 18.8C347.881 17.7867 348.094 16.8733 348.521 16.06C348.961 15.2467 349.568 14.6 350.341 14.12C351.114 13.64 352.014 13.4 353.041 13.4ZM360.352 23.18C360.352 23.4067 360.272 23.6 360.112 23.76C359.965 23.92 359.779 24 359.552 24C359.312 24 359.119 23.92 358.972 23.76C358.825 23.6 358.752 23.4067 358.752 23.18V14.3C358.752 14.0733 358.825 13.8867 358.972 13.74C359.132 13.58 359.325 13.5 359.552 13.5C359.779 13.5 359.965 13.58 360.112 13.74C360.272 13.8867 360.352 14.0733 360.352 14.3V23.18ZM359.552 12.16C359.219 12.16 358.972 12.0933 358.812 11.96C358.652 11.8267 358.572 11.62 358.572 11.34V11.06C358.572 10.78 358.659 10.5733 358.832 10.44C359.005 10.3067 359.252 10.24 359.572 10.24C359.892 10.24 360.132 10.3067 360.292 10.44C360.452 10.5733 360.532 10.78 360.532 11.06V11.34C360.532 11.62 360.445 11.8267 360.272 11.96C360.112 12.0933 359.872 12.16 359.552 12.16ZM369.214 23.98C368.934 23.98 368.714 23.9 368.554 23.74C368.407 23.58 368.334 23.36 368.334 23.08V22.68C368.334 22.3867 368.407 22.16 368.554 22C368.714 21.84 368.934 21.76 369.214 21.76H369.374C369.667 21.76 369.887 21.84 370.034 22C370.181 22.16 370.254 22.3867 370.254 22.68V23.08C370.254 23.36 370.181 23.58 370.034 23.74C369.887 23.9 369.667 23.98 369.374 23.98H369.214ZM378.804 23.98C378.524 23.98 378.304 23.9 378.144 23.74C377.997 23.58 377.924 23.36 377.924 23.08V22.68C377.924 22.3867 377.997 22.16 378.144 22C378.304 21.84 378.524 21.76 378.804 21.76H378.964C379.257 21.76 379.477 21.84 379.624 22C379.77 22.16 379.844 22.3867 379.844 22.68V23.08C379.844 23.36 379.77 23.58 379.624 23.74C379.477 23.9 379.257 23.98 378.964 23.98H378.804ZM388.394 23.98C388.114 23.98 387.894 23.9 387.734 23.74C387.587 23.58 387.514 23.36 387.514 23.08V22.68C387.514 22.3867 387.587 22.16 387.734 22C387.894 21.84 388.114 21.76 388.394 21.76H388.554C388.847 21.76 389.067 21.84 389.214 22C389.36 22.16 389.434 22.3867 389.434 22.68V23.08C389.434 23.36 389.36 23.58 389.214 23.74C389.067 23.9 388.847 23.98 388.554 23.98H388.394Z" fill="black"/>
<defs>
<clipPath id="clip0_3319_9463">
<rect width="18" height="18" fill="white" transform="translate(34.6274 7.5)"/>
</clipPath>
</defs>
</svg>
