<svg width="20" height="20" viewBox="0 0 20 20" fill="none" xmlns="http://www.w3.org/2000/svg">
<path d="M10.043 1.74966C10.8624 1.74966 11.4783 1.73745 12.0186 1.94986L12.1846 2.02115C12.5655 2.19926 12.9041 2.45919 13.1748 2.78287L13.3057 2.95669C13.5432 3.30439 13.6992 3.72977 13.874 4.24966H17.5L17.5771 4.25357C17.955 4.29218 18.2498 4.61168 18.25 4.99966C18.25 5.38783 17.9551 5.70713 17.5771 5.74576L17.5 5.74966H16.5352L16.0811 12.5602C16.0279 13.3574 15.9947 13.8872 15.9023 14.3297L15.8594 14.5143C15.3995 16.2599 14.0402 17.614 12.3145 18.0778L11.9639 18.1588C11.4749 18.2533 10.9129 18.2497 10 18.2497C9.08718 18.2497 8.52506 18.2533 8.03613 18.1588C6.1456 17.7932 4.63115 16.3764 4.14062 14.5143C4.04554 14.1531 4.00303 13.7469 3.96191 13.1823L3.91895 12.5602L3.46484 5.74966H2.5C2.08582 5.74962 1.75 5.41385 1.75 4.99966C1.75021 4.58566 2.08595 4.2497 2.5 4.24966H6.12793L6.19629 4.04556C6.37444 3.53144 6.54701 3.11679 6.82617 2.78287L6.94629 2.6481C7.23564 2.34317 7.58892 2.10431 7.98145 1.94986L8.18848 1.87955C8.67941 1.73979 9.24108 1.74966 9.95801 1.74966H10.043ZM5.41602 12.4606L5.45898 13.0915C5.49849 13.6271 5.53002 13.9015 5.59082 14.1325C5.93454 15.4371 6.99571 16.4299 8.32031 16.6862C8.63301 16.7467 9.01856 16.7497 10 16.7497C10.9815 16.7497 11.367 16.7467 11.6797 16.6862L11.9248 16.6295C13.1341 16.3046 14.0869 15.3557 14.4092 14.1325L14.4609 13.8786C14.5063 13.5947 14.5351 13.1945 14.584 12.4606L15.0312 5.74966H4.96875L5.41602 12.4606ZM8.33301 7.58365C8.74722 7.58365 9.08301 7.91943 9.08301 8.33365V14.1667L9.0791 14.2438C9.04048 14.6218 8.72118 14.9167 8.33301 14.9167C7.94499 14.9165 7.62548 14.6217 7.58691 14.2438L7.58301 14.1667V8.33365C7.58301 7.91957 7.91898 7.58386 8.33301 7.58365ZM11.667 7.58365C12.0811 7.58379 12.417 7.91952 12.417 8.33365V11.6667C12.4168 12.0807 12.081 12.4165 11.667 12.4167C11.2529 12.4167 10.9171 12.0807 10.917 11.6667V8.33365C10.917 7.91943 11.2528 7.58365 11.667 7.58365ZM9.95801 3.24966C9.12966 3.24966 8.82021 3.25905 8.61426 3.31705L8.53125 3.34537C8.31623 3.42993 8.12484 3.56759 7.97656 3.74478C7.89068 3.84753 7.82212 3.9772 7.71875 4.24966H12.2803C12.1986 4.03524 12.14 3.90894 12.0762 3.81509L12.0234 3.74478C11.9122 3.61181 11.7773 3.50119 11.626 3.41861L11.4697 3.34537C11.2582 3.26221 10.9901 3.24967 10.043 3.24966H9.95801Z" fill="black"/>
</svg>
