<svg width="343" height="72" viewBox="0 0 343 72" fill="none" xmlns="http://www.w3.org/2000/svg">
<path d="M4.944 16C4.688 16 4.48 15.9253 4.32 15.776C4.17067 15.616 4.096 15.4187 4.096 15.184V5.6H5.808V15.184C5.808 15.4187 5.72267 15.616 5.552 15.776C5.392 15.9253 5.18933 16 4.944 16ZM1.312 6.336C1.088 6.336 0.896 6.26667 0.736 6.128C0.576 5.97867 0.496 5.78667 0.496 5.552C0.496 5.328 0.576 5.14667 0.736 5.008C0.896 4.86933 1.088 4.8 1.312 4.8H8.592C8.816 4.8 9.00267 4.87467 9.152 5.024C9.312 5.16267 9.392 5.344 9.392 5.568C9.392 5.80267 9.312 5.98933 9.152 6.128C9.00267 6.26667 8.816 6.336 8.592 6.336H1.312ZM15.2663 7.44C16.0023 7.44 16.5729 7.6 16.9783 7.92C17.3836 8.22933 17.6663 8.65067 17.8263 9.184C17.9969 9.71733 18.0823 10.304 18.0823 10.944V15.184C18.0823 15.4187 18.0023 15.616 17.8423 15.776C17.6929 15.9253 17.5063 16 17.2823 16C17.0476 16 16.8556 15.9253 16.7063 15.776C16.5569 15.616 16.4823 15.4187 16.4823 15.184V10.944C16.4823 10.5707 16.4289 10.2293 16.3223 9.92C16.2263 9.61067 16.0503 9.36533 15.7943 9.184C15.5489 9.00267 15.2023 8.912 14.7543 8.912C14.3383 8.912 13.9649 9.00267 13.6343 9.184C13.3143 9.36533 13.0636 9.61067 12.8823 9.92C12.7116 10.2293 12.6263 10.5707 12.6263 10.944V15.184C12.6263 15.4187 12.5463 15.616 12.3863 15.776C12.2369 15.9253 12.0503 16 11.8263 16C11.5916 16 11.3996 15.9253 11.2503 15.776C11.1009 15.616 11.0263 15.4187 11.0263 15.184V4.976C11.0263 4.74133 11.1009 4.54933 11.2503 4.4C11.3996 4.24 11.5916 4.16 11.8263 4.16C12.0503 4.16 12.2369 4.24 12.3863 4.4C12.5463 4.54933 12.6263 4.74133 12.6263 4.976V9.344L12.3383 9.504C12.4129 9.26933 12.5356 9.02933 12.7063 8.784C12.8876 8.53867 13.1063 8.31467 13.3623 8.112C13.6289 7.90933 13.9223 7.74933 14.2423 7.632C14.5623 7.504 14.9036 7.44 15.2663 7.44ZM24.2275 16.16C23.3422 16.16 22.5742 15.9787 21.9235 15.616C21.2728 15.2427 20.7662 14.736 20.4035 14.096C20.0515 13.4453 19.8755 12.704 19.8755 11.872C19.8755 10.9333 20.0622 10.1333 20.4355 9.472C20.8195 8.8 21.3155 8.288 21.9235 7.936C22.5315 7.57333 23.1768 7.392 23.8595 7.392C24.3822 7.392 24.8782 7.49867 25.3475 7.712C25.8168 7.91467 26.2328 8.20267 26.5955 8.576C26.9688 8.93867 27.2622 9.37067 27.4755 9.872C27.6888 10.3627 27.8008 10.9013 27.8115 11.488C27.8008 11.7013 27.7155 11.8773 27.5555 12.016C27.3955 12.1547 27.2088 12.224 26.9955 12.224H20.7715L20.3875 10.864H26.4035L26.0995 11.152V10.752C26.0782 10.3787 25.9555 10.0533 25.7315 9.776C25.5075 9.488 25.2302 9.26933 24.8995 9.12C24.5688 8.96 24.2222 8.88 23.8595 8.88C23.5395 8.88 23.2302 8.93333 22.9315 9.04C22.6435 9.136 22.3822 9.296 22.1475 9.52C21.9235 9.744 21.7422 10.0427 21.6035 10.416C21.4755 10.7787 21.4115 11.232 21.4115 11.776C21.4115 12.3627 21.5342 12.8747 21.7795 13.312C22.0248 13.7493 22.3555 14.0907 22.7715 14.336C23.1875 14.5707 23.6462 14.688 24.1475 14.688C24.5422 14.688 24.8675 14.6507 25.1235 14.576C25.3795 14.4907 25.5928 14.3893 25.7635 14.272C25.9342 14.1547 26.0835 14.0427 26.2115 13.936C26.3715 13.84 26.5315 13.792 26.6915 13.792C26.8835 13.792 27.0435 13.8613 27.1715 14C27.2995 14.128 27.3635 14.2827 27.3635 14.464C27.3635 14.6987 27.2462 14.912 27.0115 15.104C26.7235 15.3813 26.3235 15.6267 25.8115 15.84C25.3102 16.0533 24.7822 16.16 24.2275 16.16ZM23.8755 6.944C23.8222 6.944 23.7582 6.93333 23.6835 6.912C23.6195 6.88 23.5608 6.848 23.5075 6.816L22.0195 5.856C21.8702 5.77067 21.7528 5.66933 21.6675 5.552C21.5822 5.424 21.5395 5.29067 21.5395 5.152C21.5395 4.93867 21.6195 4.77333 21.7795 4.656C21.9395 4.53867 22.1048 4.48 22.2755 4.48C22.4142 4.48 22.5422 4.512 22.6595 4.576C22.7768 4.64 22.8782 4.71467 22.9635 4.8L24.2435 6.08C24.3715 6.208 24.4355 6.336 24.4355 6.464C24.4355 6.60267 24.3822 6.72 24.2755 6.816C24.1795 6.90133 24.0462 6.944 23.8755 6.944ZM33.844 7.44C34.6333 7.44 35.2413 7.63733 35.668 8.032C36.0947 8.416 36.3773 8.93867 36.516 9.6L36.26 9.52L36.372 9.264C36.5107 8.98667 36.7187 8.70933 36.996 8.432C37.284 8.144 37.6253 7.90933 38.02 7.728C38.4147 7.536 38.836 7.44 39.284 7.44C40.02 7.44 40.5907 7.6 40.996 7.92C41.4013 8.22933 41.684 8.65067 41.844 9.184C42.004 9.70667 42.084 10.2933 42.084 10.944V15.184C42.084 15.4187 42.0093 15.616 41.86 15.776C41.7107 15.9253 41.5187 16 41.284 16C41.06 16 40.868 15.9253 40.708 15.776C40.5587 15.616 40.484 15.4187 40.484 15.184V10.96C40.484 10.5867 40.4307 10.2453 40.324 9.936C40.228 9.62667 40.052 9.38133 39.796 9.2C39.5507 9.008 39.2093 8.912 38.772 8.912C38.356 8.912 37.9827 9.008 37.652 9.2C37.332 9.38133 37.0813 9.62667 36.9 9.936C36.7187 10.2453 36.628 10.5867 36.628 10.96V15.184C36.628 15.4187 36.5533 15.616 36.404 15.776C36.2547 15.9253 36.0627 16 35.828 16C35.5933 16 35.4013 15.9253 35.252 15.776C35.1027 15.616 35.028 15.4187 35.028 15.184V10.944C35.028 10.5707 34.9747 10.2293 34.868 9.92C34.772 9.61067 34.6013 9.36533 34.356 9.184C34.1107 9.00267 33.7693 8.912 33.332 8.912C32.916 8.912 32.548 9.00267 32.228 9.184C31.908 9.36533 31.6573 9.61067 31.476 9.92C31.3053 10.2293 31.22 10.5707 31.22 10.944V15.184C31.22 15.4187 31.14 15.616 30.98 15.776C30.8307 15.9253 30.644 16 30.42 16C30.1853 16 29.9933 15.9253 29.844 15.776C29.6947 15.616 29.62 15.4187 29.62 15.184V8.4C29.62 8.16533 29.6947 7.97333 29.844 7.824C29.9933 7.664 30.1853 7.584 30.42 7.584C30.644 7.584 30.8307 7.664 30.98 7.824C31.14 7.97333 31.22 8.16533 31.22 8.4V9.344L30.916 9.52C30.9907 9.28533 31.1133 9.04533 31.284 8.8C31.4547 8.55467 31.668 8.33067 31.924 8.128C32.1907 7.92533 32.484 7.76 32.804 7.632C33.124 7.504 33.4707 7.44 33.844 7.44ZM48.2431 16.16C47.3578 16.16 46.5898 15.9787 45.9391 15.616C45.2885 15.2427 44.7818 14.736 44.4191 14.096C44.0671 13.4453 43.8911 12.704 43.8911 11.872C43.8911 10.9333 44.0778 10.1333 44.4511 9.472C44.8351 8.8 45.3311 8.288 45.9391 7.936C46.5471 7.57333 47.1925 7.392 47.8751 7.392C48.3978 7.392 48.8938 7.49867 49.3631 7.712C49.8325 7.91467 50.2485 8.20267 50.6111 8.576C50.9845 8.93867 51.2778 9.37067 51.4911 9.872C51.7045 10.3627 51.8165 10.9013 51.8271 11.488C51.8165 11.7013 51.7311 11.8773 51.5711 12.016C51.4111 12.1547 51.2245 12.224 51.0111 12.224H44.7871L44.4031 10.864H50.4191L50.1151 11.152V10.752C50.0938 10.3787 49.9711 10.0533 49.7471 9.776C49.5231 9.488 49.2458 9.26933 48.9151 9.12C48.5845 8.96 48.2378 8.88 47.8751 8.88C47.5551 8.88 47.2458 8.93333 46.9471 9.04C46.6591 9.136 46.3978 9.296 46.1631 9.52C45.9391 9.744 45.7578 10.0427 45.6191 10.416C45.4911 10.7787 45.4271 11.232 45.4271 11.776C45.4271 12.3627 45.5498 12.8747 45.7951 13.312C46.0405 13.7493 46.3711 14.0907 46.7871 14.336C47.2031 14.5707 47.6618 14.688 48.1631 14.688C48.5578 14.688 48.8831 14.6507 49.1391 14.576C49.3951 14.4907 49.6085 14.3893 49.7791 14.272C49.9498 14.1547 50.0991 14.0427 50.2271 13.936C50.3871 13.84 50.5471 13.792 50.7071 13.792C50.8991 13.792 51.0591 13.8613 51.1871 14C51.3151 14.128 51.3791 14.2827 51.3791 14.464C51.3791 14.6987 51.2618 14.912 51.0271 15.104C50.7391 15.3813 50.3391 15.6267 49.8271 15.84C49.3258 16.0533 48.7978 16.16 48.2431 16.16ZM64.9848 4.16C65.2194 4.16 65.4114 4.23467 65.5608 4.384C65.7101 4.53333 65.7847 4.73067 65.7847 4.976V15.184C65.7847 15.4187 65.7101 15.616 65.5608 15.776C65.4114 15.9253 65.2194 16 64.9848 16C64.7608 16 64.5688 15.9253 64.4088 15.776C64.2594 15.616 64.1848 15.4187 64.1848 15.184V14.032L64.5208 14.048C64.5208 14.24 64.4408 14.4587 64.2808 14.704C64.1314 14.9387 63.9234 15.168 63.6568 15.392C63.3901 15.616 63.0754 15.8027 62.7128 15.952C62.3501 16.0907 61.9608 16.16 61.5448 16.16C60.8088 16.16 60.1474 15.9733 59.5608 15.6C58.9741 15.216 58.5101 14.6987 58.1688 14.048C57.8274 13.3867 57.6568 12.6293 57.6568 11.776C57.6568 10.9227 57.8274 10.1707 58.1688 9.52C58.5101 8.85867 58.9688 8.34133 59.5448 7.968C60.1314 7.584 60.7821 7.392 61.4968 7.392C61.9448 7.392 62.3608 7.46667 62.7448 7.616C63.1394 7.76533 63.4808 7.95733 63.7688 8.192C64.0568 8.42667 64.2808 8.67733 64.4408 8.944C64.6008 9.2 64.6808 9.44533 64.6808 9.68L64.1848 9.728V4.976C64.1848 4.74133 64.2594 4.54933 64.4088 4.4C64.5688 4.24 64.7608 4.16 64.9848 4.16ZM61.7208 14.688C62.2328 14.688 62.6754 14.56 63.0488 14.304C63.4328 14.048 63.7314 13.7013 63.9448 13.264C64.1581 12.8267 64.2648 12.3307 64.2648 11.776C64.2648 11.2213 64.1581 10.7253 63.9448 10.288C63.7314 9.85067 63.4328 9.504 63.0488 9.248C62.6648 8.992 62.2221 8.864 61.7208 8.864C61.2301 8.864 60.7928 8.992 60.4088 9.248C60.0354 9.504 59.7368 9.85067 59.5128 10.288C59.2994 10.7253 59.1928 11.2213 59.1928 11.776C59.1928 12.3307 59.2994 12.8267 59.5128 13.264C59.7368 13.7013 60.0354 14.048 60.4088 14.304C60.7928 14.56 61.2301 14.688 61.7208 14.688ZM71.9463 16.16C71.0609 16.16 70.2929 15.9787 69.6423 15.616C68.9916 15.2427 68.4849 14.736 68.1223 14.096C67.7703 13.4453 67.5943 12.704 67.5943 11.872C67.5943 10.9333 67.7809 10.1333 68.1543 9.472C68.5383 8.8 69.0343 8.288 69.6423 7.936C70.2503 7.57333 70.8956 7.392 71.5783 7.392C72.1009 7.392 72.5969 7.49867 73.0663 7.712C73.5356 7.91467 73.9516 8.20267 74.3143 8.576C74.6876 8.93867 74.9809 9.37067 75.1943 9.872C75.4076 10.3627 75.5196 10.9013 75.5303 11.488C75.5196 11.7013 75.4343 11.8773 75.2743 12.016C75.1143 12.1547 74.9276 12.224 74.7143 12.224H68.4903L68.1063 10.864H74.1223L73.8183 11.152V10.752C73.7969 10.3787 73.6743 10.0533 73.4503 9.776C73.2263 9.488 72.9489 9.26933 72.6183 9.12C72.2876 8.96 71.9409 8.88 71.5783 8.88C71.2583 8.88 70.9489 8.93333 70.6503 9.04C70.3623 9.136 70.1009 9.296 69.8663 9.52C69.6423 9.744 69.4609 10.0427 69.3223 10.416C69.1943 10.7787 69.1303 11.232 69.1303 11.776C69.1303 12.3627 69.2529 12.8747 69.4983 13.312C69.7436 13.7493 70.0743 14.0907 70.4903 14.336C70.9063 14.5707 71.3649 14.688 71.8663 14.688C72.2609 14.688 72.5863 14.6507 72.8423 14.576C73.0983 14.4907 73.3116 14.3893 73.4823 14.272C73.6529 14.1547 73.8023 14.0427 73.9303 13.936C74.0903 13.84 74.2503 13.792 74.4103 13.792C74.6023 13.792 74.7623 13.8613 74.8903 14C75.0183 14.128 75.0823 14.2827 75.0823 14.464C75.0823 14.6987 74.9649 14.912 74.7303 15.104C74.4423 15.3813 74.0423 15.6267 73.5303 15.84C73.0289 16.0533 72.5009 16.16 71.9463 16.16ZM83.5199 15.184C83.5199 15.4187 83.4399 15.616 83.2799 15.776C83.1305 15.9253 82.9439 16 82.7199 16C82.4959 16 82.3039 15.9253 82.1439 15.776C81.9945 15.616 81.9199 15.4187 81.9199 15.184V4.976C81.9199 4.74133 81.9999 4.54933 82.1599 4.4C82.3199 4.24 82.5119 4.16 82.7359 4.16C82.9705 4.16 83.1572 4.24 83.2959 4.4C83.4452 4.54933 83.5199 4.74133 83.5199 4.976V15.184ZM87.8853 6.224C87.8853 6.55467 87.7893 6.88533 87.5973 7.216C87.4159 7.54667 87.1813 7.824 86.8932 8.048C86.6053 8.26133 86.3013 8.368 85.9813 8.368C85.8746 8.368 85.7626 8.32533 85.6453 8.24C85.5386 8.15467 85.4853 8.01067 85.4853 7.808C85.4853 7.59467 85.5493 7.472 85.6773 7.44C85.8159 7.39733 85.9493 7.344 86.0773 7.28C86.2266 7.20533 86.3439 7.11467 86.4293 7.008C86.5146 6.89067 86.5573 6.752 86.5573 6.592C86.5573 6.47467 86.5039 6.37333 86.3973 6.288C86.3013 6.20267 86.1733 6.16 86.0133 6.16C85.9493 6.16 85.8746 6.17067 85.7893 6.192C85.7039 6.20267 85.6346 6.22933 85.5813 6.272C85.4853 6.21867 85.4053 6.15467 85.3413 6.08C85.2773 6.00533 85.2453 5.89333 85.2453 5.744C85.2453 5.456 85.3786 5.21067 85.6453 5.008C85.9119 4.80533 86.2159 4.704 86.5573 4.704C86.9626 4.704 87.2826 4.848 87.5173 5.136C87.7626 5.41333 87.8853 5.776 87.8853 6.224ZM96.766 7.456C97.0007 7.456 97.1927 7.536 97.342 7.696C97.4913 7.84533 97.566 8.03733 97.566 8.272V15.184C97.566 15.4187 97.4913 15.616 97.342 15.776C97.1927 15.9253 97.0007 16 96.766 16C96.542 16 96.35 15.9253 96.19 15.776C96.0407 15.616 95.966 15.4187 95.966 15.184V14.032L96.302 14.08C96.302 14.272 96.222 14.4853 96.062 14.72C95.9127 14.9547 95.7047 15.184 95.438 15.408C95.1713 15.6213 94.8567 15.8027 94.494 15.952C94.1313 16.0907 93.742 16.16 93.326 16.16C92.59 16.16 91.9287 15.9733 91.342 15.6C90.7553 15.216 90.2913 14.6933 89.95 14.032C89.6087 13.3707 89.438 12.6187 89.438 11.776C89.438 10.912 89.6087 10.1547 89.95 9.504C90.2913 8.84267 90.75 8.32533 91.326 7.952C91.9127 7.57867 92.5633 7.392 93.278 7.392C93.7367 7.392 94.158 7.46667 94.542 7.616C94.9367 7.76533 95.278 7.95733 95.566 8.192C95.854 8.42667 96.0727 8.67733 96.222 8.944C96.382 9.2 96.462 9.44533 96.462 9.68L95.966 9.728V8.272C95.966 8.048 96.0407 7.856 96.19 7.696C96.35 7.536 96.542 7.456 96.766 7.456ZM93.502 14.688C94.0033 14.688 94.446 14.56 94.83 14.304C95.214 14.048 95.5127 13.7013 95.726 13.264C95.9393 12.816 96.046 12.32 96.046 11.776C96.046 11.2213 95.9393 10.7253 95.726 10.288C95.5127 9.85067 95.214 9.504 94.83 9.248C94.446 8.992 94.0033 8.864 93.502 8.864C93.0113 8.864 92.574 8.992 92.19 9.248C91.8167 9.504 91.518 9.85067 91.294 10.288C91.0807 10.7253 90.974 11.2213 90.974 11.776C90.974 12.32 91.0807 12.816 91.294 13.264C91.518 13.7013 91.8167 14.048 92.19 14.304C92.574 14.56 93.0113 14.688 93.502 14.688ZM104.048 7.44C104.794 7.44 105.456 7.62667 106.032 8C106.618 8.37333 107.082 8.88533 107.424 9.536C107.765 10.176 107.936 10.9227 107.936 11.776C107.936 12.6293 107.765 13.3867 107.424 14.048C107.082 14.6987 106.624 15.2107 106.048 15.584C105.472 15.9573 104.821 16.144 104.096 16.144C103.69 16.144 103.306 16.08 102.944 15.952C102.581 15.824 102.261 15.6587 101.984 15.456C101.706 15.2427 101.477 15.0187 101.296 14.784C101.125 14.5493 101.018 14.3307 100.976 14.128L101.408 13.92V18.384C101.408 18.6187 101.328 18.8107 101.168 18.96C101.018 19.12 100.832 19.2 100.608 19.2C100.373 19.2 100.181 19.12 100.032 18.96C99.8822 18.8107 99.8075 18.6187 99.8075 18.384V8.368C99.8075 8.144 99.8822 7.952 100.032 7.792C100.181 7.632 100.373 7.552 100.608 7.552C100.832 7.552 101.018 7.632 101.168 7.792C101.328 7.952 101.408 8.144 101.408 8.368V9.472L101.152 9.328C101.184 9.12533 101.285 8.91733 101.456 8.704C101.626 8.48 101.84 8.272 102.096 8.08C102.362 7.888 102.661 7.73333 102.992 7.616C103.333 7.49867 103.685 7.44 104.048 7.44ZM103.872 8.912C103.36 8.912 102.912 9.04 102.528 9.296C102.154 9.54133 101.861 9.87733 101.648 10.304C101.434 10.7307 101.328 11.2213 101.328 11.776C101.328 12.32 101.434 12.816 101.648 13.264C101.861 13.7013 102.154 14.048 102.528 14.304C102.912 14.5493 103.36 14.672 103.872 14.672C104.373 14.672 104.81 14.5493 105.184 14.304C105.557 14.048 105.85 13.7013 106.064 13.264C106.288 12.816 106.4 12.32 106.4 11.776C106.4 11.232 106.288 10.7467 106.064 10.32C105.85 9.88267 105.557 9.54133 105.184 9.296C104.81 9.04 104.373 8.912 103.872 8.912ZM113.985 7.44C114.732 7.44 115.393 7.62667 115.969 8C116.556 8.37333 117.02 8.88533 117.361 9.536C117.702 10.176 117.873 10.9227 117.873 11.776C117.873 12.6293 117.702 13.3867 117.361 14.048C117.02 14.6987 116.561 15.2107 115.985 15.584C115.409 15.9573 114.758 16.144 114.033 16.144C113.628 16.144 113.244 16.08 112.881 15.952C112.518 15.824 112.198 15.6587 111.921 15.456C111.644 15.2427 111.414 15.0187 111.233 14.784C111.062 14.5493 110.956 14.3307 110.913 14.128L111.345 13.92V18.384C111.345 18.6187 111.265 18.8107 111.105 18.96C110.956 19.12 110.769 19.2 110.545 19.2C110.31 19.2 110.118 19.12 109.969 18.96C109.82 18.8107 109.745 18.6187 109.745 18.384V8.368C109.745 8.144 109.82 7.952 109.969 7.792C110.118 7.632 110.31 7.552 110.545 7.552C110.769 7.552 110.956 7.632 111.105 7.792C111.265 7.952 111.345 8.144 111.345 8.368V9.472L111.089 9.328C111.121 9.12533 111.222 8.91733 111.393 8.704C111.564 8.48 111.777 8.272 112.033 8.08C112.3 7.888 112.598 7.73333 112.929 7.616C113.27 7.49867 113.622 7.44 113.985 7.44ZM113.809 8.912C113.297 8.912 112.849 9.04 112.465 9.296C112.092 9.54133 111.798 9.87733 111.585 10.304C111.372 10.7307 111.265 11.2213 111.265 11.776C111.265 12.32 111.372 12.816 111.585 13.264C111.798 13.7013 112.092 14.048 112.465 14.304C112.849 14.5493 113.297 14.672 113.809 14.672C114.31 14.672 114.748 14.5493 115.121 14.304C115.494 14.048 115.788 13.7013 116.001 13.264C116.225 12.816 116.337 12.32 116.337 11.776C116.337 11.232 116.225 10.7467 116.001 10.32C115.788 9.88267 115.494 9.54133 115.121 9.296C114.748 9.04 114.31 8.912 113.809 8.912ZM121.411 15.184C121.411 15.4187 121.331 15.616 121.171 15.776C121.021 15.9253 120.835 16 120.611 16C120.387 16 120.195 15.9253 120.035 15.776C119.885 15.616 119.811 15.4187 119.811 15.184V4.976C119.811 4.74133 119.891 4.54933 120.051 4.4C120.211 4.24 120.403 4.16 120.627 4.16C120.861 4.16 121.048 4.24 121.187 4.4C121.336 4.54933 121.411 4.74133 121.411 4.976V15.184ZM125.296 15.184C125.296 15.4187 125.221 15.616 125.072 15.776C124.923 15.9253 124.731 16 124.496 16C124.272 16 124.08 15.9253 123.92 15.776C123.771 15.616 123.696 15.4187 123.696 15.184V8.336C123.696 8.10133 123.771 7.90933 123.92 7.76C124.08 7.6 124.272 7.52 124.496 7.52C124.731 7.52 124.923 7.6 125.072 7.76C125.221 7.90933 125.296 8.10133 125.296 8.336V15.184ZM124.48 6.464C124.171 6.464 123.947 6.41067 123.808 6.304C123.669 6.18667 123.6 5.99467 123.6 5.728V5.472C123.6 5.20533 123.675 5.01867 123.824 4.912C123.973 4.80533 124.197 4.752 124.496 4.752C124.816 4.752 125.045 4.81067 125.184 4.928C125.323 5.03467 125.392 5.216 125.392 5.472V5.728C125.392 6.00533 125.317 6.19733 125.168 6.304C125.029 6.41067 124.8 6.464 124.48 6.464ZM131.176 7.392C131.752 7.392 132.264 7.456 132.712 7.584C133.16 7.70133 133.507 7.872 133.752 8.096C134.008 8.30933 134.136 8.56 134.136 8.848C134.136 9.02933 134.083 9.2 133.976 9.36C133.869 9.50933 133.709 9.584 133.496 9.584C133.347 9.584 133.219 9.55733 133.112 9.504C133.016 9.45067 132.925 9.38667 132.84 9.312C132.755 9.23733 132.648 9.16267 132.52 9.088C132.403 9.024 132.227 8.97067 131.992 8.928C131.768 8.88533 131.565 8.864 131.384 8.864C130.819 8.864 130.328 8.992 129.912 9.248C129.507 9.504 129.187 9.85067 128.952 10.288C128.728 10.7253 128.616 11.2213 128.616 11.776C128.616 12.3307 128.728 12.8267 128.952 13.264C129.187 13.7013 129.501 14.048 129.896 14.304C130.301 14.56 130.771 14.688 131.304 14.688C131.624 14.688 131.885 14.6667 132.088 14.624C132.291 14.5707 132.467 14.5067 132.616 14.432C132.776 14.336 132.909 14.24 133.016 14.144C133.133 14.0373 133.293 13.984 133.496 13.984C133.731 13.984 133.907 14.0587 134.024 14.208C134.152 14.3467 134.216 14.5227 134.216 14.736C134.216 14.9707 134.072 15.2 133.784 15.424C133.507 15.6373 133.133 15.8133 132.664 15.952C132.195 16.0907 131.677 16.16 131.112 16.16C130.28 16.16 129.555 15.968 128.936 15.584C128.328 15.2 127.853 14.6773 127.512 14.016C127.181 13.3547 127.016 12.608 127.016 11.776C127.016 10.9333 127.192 10.1867 127.544 9.536C127.896 8.87467 128.387 8.352 129.016 7.968C129.645 7.584 130.365 7.392 131.176 7.392ZM142.641 7.456C142.876 7.456 143.068 7.536 143.217 7.696C143.366 7.84533 143.441 8.03733 143.441 8.272V15.184C143.441 15.4187 143.366 15.616 143.217 15.776C143.068 15.9253 142.876 16 142.641 16C142.417 16 142.225 15.9253 142.065 15.776C141.916 15.616 141.841 15.4187 141.841 15.184V14.032L142.177 14.08C142.177 14.272 142.097 14.4853 141.937 14.72C141.788 14.9547 141.58 15.184 141.313 15.408C141.046 15.6213 140.732 15.8027 140.369 15.952C140.006 16.0907 139.617 16.16 139.201 16.16C138.465 16.16 137.804 15.9733 137.217 15.6C136.63 15.216 136.166 14.6933 135.825 14.032C135.484 13.3707 135.313 12.6187 135.313 11.776C135.313 10.912 135.484 10.1547 135.825 9.504C136.166 8.84267 136.625 8.32533 137.201 7.952C137.788 7.57867 138.438 7.392 139.153 7.392C139.612 7.392 140.033 7.46667 140.417 7.616C140.812 7.76533 141.153 7.95733 141.441 8.192C141.729 8.42667 141.948 8.67733 142.097 8.944C142.257 9.2 142.337 9.44533 142.337 9.68L141.841 9.728V8.272C141.841 8.048 141.916 7.856 142.065 7.696C142.225 7.536 142.417 7.456 142.641 7.456ZM139.377 14.688C139.878 14.688 140.321 14.56 140.705 14.304C141.089 14.048 141.388 13.7013 141.601 13.264C141.814 12.816 141.921 12.32 141.921 11.776C141.921 11.2213 141.814 10.7253 141.601 10.288C141.388 9.85067 141.089 9.504 140.705 9.248C140.321 8.992 139.878 8.864 139.377 8.864C138.886 8.864 138.449 8.992 138.065 9.248C137.692 9.504 137.393 9.85067 137.169 10.288C136.956 10.7253 136.849 11.2213 136.849 11.776C136.849 12.32 136.956 12.816 137.169 13.264C137.393 13.7013 137.692 14.048 138.065 14.304C138.449 14.56 138.886 14.688 139.377 14.688ZM145.571 7.68H149.331C149.544 7.68 149.72 7.75467 149.859 7.904C150.008 8.04267 150.083 8.21867 150.083 8.432C150.083 8.63467 150.008 8.80533 149.859 8.944C149.72 9.08267 149.544 9.152 149.331 9.152H145.571C145.357 9.152 145.176 9.08267 145.027 8.944C144.888 8.79467 144.819 8.61867 144.819 8.416C144.819 8.20267 144.888 8.02667 145.027 7.888C145.176 7.74933 145.357 7.68 145.571 7.68ZM147.251 5.6C147.485 5.6 147.677 5.68 147.827 5.84C147.976 5.98933 148.051 6.18133 148.051 6.416V13.84C148.051 14.032 148.083 14.1867 148.147 14.304C148.211 14.4213 148.296 14.5013 148.403 14.544C148.52 14.5867 148.637 14.608 148.755 14.608C148.872 14.608 148.973 14.5867 149.059 14.544C149.155 14.5013 149.267 14.48 149.395 14.48C149.523 14.48 149.64 14.5387 149.747 14.656C149.853 14.7733 149.907 14.9333 149.907 15.136C149.907 15.392 149.768 15.6 149.491 15.76C149.213 15.92 148.915 16 148.595 16C148.413 16 148.2 15.984 147.955 15.952C147.709 15.92 147.469 15.84 147.235 15.712C147.011 15.584 146.824 15.3813 146.674 15.104C146.525 14.816 146.451 14.416 146.451 13.904V6.416C146.451 6.18133 146.525 5.98933 146.674 5.84C146.834 5.68 147.027 5.6 147.251 5.6ZM153.358 15.184C153.358 15.4187 153.284 15.616 153.134 15.776C152.985 15.9253 152.793 16 152.558 16C152.334 16 152.142 15.9253 151.982 15.776C151.833 15.616 151.758 15.4187 151.758 15.184V8.336C151.758 8.10133 151.833 7.90933 151.982 7.76C152.142 7.6 152.334 7.52 152.558 7.52C152.793 7.52 152.985 7.6 153.134 7.76C153.284 7.90933 153.358 8.10133 153.358 8.336V15.184ZM152.542 6.464C152.233 6.464 152.009 6.41067 151.87 6.304C151.732 6.18667 151.662 5.99467 151.662 5.728V5.472C151.662 5.20533 151.737 5.01867 151.886 4.912C152.036 4.80533 152.26 4.752 152.558 4.752C152.878 4.752 153.108 4.81067 153.246 4.928C153.385 5.03467 153.454 5.216 153.454 5.472V5.728C153.454 6.00533 153.38 6.19733 153.23 6.304C153.092 6.41067 152.862 6.464 152.542 6.464ZM163.575 11.792C163.575 12.6453 163.388 13.4027 163.015 14.064C162.641 14.7147 162.135 15.2267 161.495 15.6C160.855 15.9733 160.135 16.16 159.335 16.16C158.535 16.16 157.815 15.9733 157.175 15.6C156.535 15.2267 156.023 14.7147 155.639 14.064C155.265 13.4027 155.079 12.6453 155.079 11.792C155.079 10.928 155.265 10.1707 155.639 9.52C156.023 8.85867 156.535 8.34133 157.175 7.968C157.815 7.584 158.535 7.392 159.335 7.392C160.135 7.392 160.855 7.584 161.495 7.968C162.135 8.34133 162.641 8.85867 163.015 9.52C163.388 10.1707 163.575 10.928 163.575 11.792ZM161.975 11.792C161.975 11.2053 161.857 10.6987 161.623 10.272C161.388 9.83467 161.068 9.49333 160.663 9.248C160.268 8.992 159.825 8.864 159.335 8.864C158.844 8.864 158.396 8.992 157.991 9.248C157.585 9.49333 157.265 9.83467 157.031 10.272C156.796 10.6987 156.679 11.2053 156.679 11.792C156.679 12.3573 156.796 12.8587 157.031 13.296C157.265 13.7333 157.585 14.0747 157.991 14.32C158.396 14.5653 158.844 14.688 159.335 14.688C159.825 14.688 160.268 14.5653 160.663 14.32C161.068 14.0747 161.388 13.7333 161.623 13.296C161.857 12.8587 161.975 12.3573 161.975 11.792ZM169.722 7.392C170.479 7.392 171.066 7.552 171.482 7.872C171.898 8.18133 172.186 8.60267 172.346 9.136C172.516 9.65867 172.602 10.2453 172.602 10.896V15.184C172.602 15.4187 172.522 15.616 172.362 15.776C172.212 15.9253 172.026 16 171.802 16C171.567 16 171.375 15.9253 171.226 15.776C171.076 15.616 171.002 15.4187 171.002 15.184V10.912C171.002 10.528 170.948 10.1867 170.842 9.888C170.735 9.57867 170.548 9.33333 170.282 9.152C170.026 8.96 169.663 8.864 169.194 8.864C168.756 8.864 168.372 8.96 168.042 9.152C167.711 9.33333 167.45 9.57867 167.258 9.888C167.076 10.1867 166.986 10.528 166.986 10.912V15.184C166.986 15.4187 166.906 15.616 166.746 15.776C166.596 15.9253 166.41 16 166.186 16C165.951 16 165.759 15.9253 165.61 15.776C165.46 15.616 165.386 15.4187 165.386 15.184V8.4C165.386 8.16533 165.46 7.97333 165.61 7.824C165.759 7.664 165.951 7.584 166.186 7.584C166.41 7.584 166.596 7.664 166.746 7.824C166.906 7.97333 166.986 8.16533 166.986 8.4V9.296L166.698 9.456C166.772 9.22133 166.9 8.98667 167.082 8.752C167.274 8.50667 167.503 8.28267 167.77 8.08C168.036 7.86667 168.335 7.70133 168.666 7.584C168.996 7.456 169.348 7.392 169.722 7.392Z" fill="black"/>
<path d="M0 50C0 37.8497 9.84974 28 22 28H321C333.15 28 343 37.8497 343 50V50C343 62.1503 333.15 72 321 72H22C9.84974 72 0 62.1503 0 50V50Z" fill="#FFFBF1"/>
<path d="M8 50C8 42.268 14.268 36 22 36H97.6667C105.399 36 111.667 42.268 111.667 50V50C111.667 57.732 105.399 64 97.6667 64H22C14.268 64 8 57.732 8 50V50Z" fill="#76746F" fill-opacity="0.4"/>
<path d="M46.3903 54V45.2727H47.4471V53.0625H51.504V54H46.3903ZM53.004 54V47.4545H54.0096V54H53.004ZM53.5153 46.3636C53.3193 46.3636 53.1503 46.2969 53.0082 46.1634C52.869 46.0298 52.7994 45.8693 52.7994 45.6818C52.7994 45.4943 52.869 45.3338 53.0082 45.2003C53.1503 45.0668 53.3193 45 53.5153 45C53.7113 45 53.879 45.0668 54.0182 45.2003C54.1602 45.3338 54.2312 45.4943 54.2312 45.6818C54.2312 45.8693 54.1602 46.0298 54.0182 46.1634C53.879 46.2969 53.7113 46.3636 53.5153 46.3636ZM58.4937 56.5909C58.0079 56.5909 57.5902 56.5284 57.2408 56.4034C56.8914 56.2812 56.6002 56.1193 56.3672 55.9176C56.1371 55.7188 55.9539 55.5057 55.8175 55.2784L56.6187 54.7159C56.7096 54.8352 56.8246 54.9716 56.9638 55.125C57.103 55.2812 57.2934 55.4162 57.5348 55.5298C57.7792 55.6463 58.0988 55.7045 58.4937 55.7045C59.0221 55.7045 59.4581 55.5767 59.8019 55.321C60.1456 55.0653 60.3175 54.6648 60.3175 54.1193V52.7898H60.2323C60.1584 52.9091 60.0533 53.0568 59.9169 53.233C59.7834 53.4062 59.5902 53.5611 59.3374 53.6974C59.0874 53.831 58.7493 53.8977 58.3232 53.8977C57.7948 53.8977 57.3204 53.7727 56.8999 53.5227C56.4823 53.2727 56.1513 52.9091 55.907 52.4318C55.6655 51.9545 55.5448 51.375 55.5448 50.6932C55.5448 50.0227 55.6627 49.4389 55.8985 48.9418C56.1343 48.4418 56.4624 48.0554 56.8829 47.7827C57.3033 47.5071 57.7891 47.3693 58.3402 47.3693C58.7664 47.3693 59.1044 47.4403 59.3544 47.5824C59.6073 47.7216 59.8005 47.8807 59.934 48.0597C60.0704 48.2358 60.1755 48.3807 60.2493 48.4943H60.3516V47.4545H61.3232V54.1875C61.3232 54.75 61.1954 55.2074 60.9397 55.5597C60.6868 55.9148 60.3459 56.1747 59.9169 56.3395C59.4908 56.5071 59.0164 56.5909 58.4937 56.5909ZM58.4596 52.9943C58.863 52.9943 59.2039 52.902 59.4823 52.7173C59.7607 52.5327 59.9723 52.267 60.1172 51.9205C60.2621 51.5739 60.3346 51.1591 60.3346 50.6761C60.3346 50.2045 60.2635 49.7884 60.1215 49.4276C59.9794 49.0668 59.7692 48.7841 59.4908 48.5795C59.2124 48.375 58.8687 48.2727 58.4596 48.2727C58.0334 48.2727 57.6783 48.3807 57.3942 48.5966C57.113 48.8125 56.9013 49.1023 56.7593 49.4659C56.6201 49.8295 56.5505 50.233 56.5505 50.6761C56.5505 51.1307 56.6215 51.5327 56.7635 51.8821C56.9084 52.2287 57.1215 52.5014 57.4027 52.7003C57.6868 52.8963 58.0391 52.9943 58.4596 52.9943ZM64.1698 50.0625V54H63.1641V45.2727H64.1698V48.4773H64.255C64.4084 48.1392 64.6385 47.8707 64.9454 47.6719C65.255 47.4702 65.6669 47.3693 66.1812 47.3693C66.6272 47.3693 67.0178 47.4588 67.353 47.6378C67.6883 47.8139 67.9482 48.0852 68.1329 48.4517C68.3204 48.8153 68.4141 49.2784 68.4141 49.8409V54H67.4084V49.9091C67.4084 49.3892 67.2735 48.9872 67.0036 48.7031C66.7366 48.4162 66.3658 48.2727 65.8914 48.2727C65.5618 48.2727 65.2664 48.3423 65.005 48.4815C64.7465 48.6207 64.5419 48.8239 64.3914 49.0909C64.2437 49.358 64.1698 49.6818 64.1698 50.0625ZM73.1005 47.4545V48.3068H69.7085V47.4545H73.1005ZM70.6971 45.8864H71.7028V52.125C71.7028 52.4091 71.744 52.6222 71.8264 52.7642C71.9116 52.9034 72.0196 52.9972 72.1503 53.0455C72.2838 53.0909 72.4244 53.1136 72.5721 53.1136C72.6829 53.1136 72.7738 53.108 72.8449 53.0966C72.9159 53.0824 72.9727 53.071 73.0153 53.0625L73.2199 53.9659C73.1517 53.9915 73.0565 54.017 72.9343 54.0426C72.8122 54.071 72.6574 54.0852 72.4699 54.0852C72.1858 54.0852 71.9074 54.0241 71.6346 53.902C71.3647 53.7798 71.1403 53.5938 70.9613 53.3438C70.7852 53.0938 70.6971 52.7784 70.6971 52.3977V45.8864Z" fill="#4B4A47"/>
<path d="M119.667 50C119.667 42.268 125.935 36 133.667 36H209.333C217.065 36 223.333 42.268 223.333 50V50C223.333 57.732 217.065 64 209.333 64H133.666C125.935 64 119.667 57.732 119.667 50V50Z" fill="#76746F" fill-opacity="0.4"/>
<path d="M161.75 54H159.057V45.2727H161.869C162.716 45.2727 163.44 45.4474 164.043 45.7969C164.645 46.1435 165.107 46.642 165.428 47.2926C165.749 47.9403 165.909 48.7159 165.909 49.6193C165.909 50.5284 165.747 51.3111 165.423 51.9673C165.099 52.6207 164.628 53.1236 164.009 53.4759C163.389 53.8253 162.636 54 161.75 54ZM160.114 53.0625H161.682C162.403 53.0625 163.001 52.9233 163.476 52.6449C163.95 52.3665 164.304 51.9702 164.537 51.456C164.77 50.9418 164.886 50.3295 164.886 49.6193C164.886 48.9148 164.771 48.3082 164.541 47.7997C164.311 47.2884 163.967 46.8963 163.51 46.6236C163.053 46.348 162.483 46.2102 161.801 46.2102H160.114V53.0625ZM169.472 54.1534C169.057 54.1534 168.68 54.0753 168.342 53.919C168.004 53.7599 167.736 53.5312 167.537 53.233C167.338 52.9318 167.239 52.5682 167.239 52.142C167.239 51.767 167.313 51.4631 167.46 51.2301C167.608 50.9943 167.805 50.8097 168.053 50.6761C168.3 50.5426 168.572 50.4432 168.871 50.3778C169.172 50.3097 169.474 50.2557 169.778 50.2159C170.176 50.1648 170.499 50.1264 170.746 50.1009C170.996 50.0724 171.178 50.0256 171.291 49.9602C171.408 49.8949 171.466 49.7812 171.466 49.6193V49.5852C171.466 49.1648 171.351 48.8381 171.121 48.6051C170.893 48.3722 170.548 48.2557 170.085 48.2557C169.605 48.2557 169.229 48.3608 168.956 48.571C168.683 48.7812 168.491 49.0057 168.381 49.2443L167.426 48.9034C167.597 48.5057 167.824 48.196 168.108 47.9744C168.395 47.75 168.707 47.5937 169.045 47.5057C169.386 47.4148 169.722 47.3693 170.051 47.3693C170.261 47.3693 170.503 47.3949 170.776 47.446C171.051 47.4943 171.317 47.5952 171.572 47.7486C171.831 47.902 172.045 48.1335 172.216 48.4432C172.386 48.7528 172.472 49.1676 172.472 49.6875V54H171.466V53.1136H171.415C171.347 53.2557 171.233 53.4077 171.074 53.5696C170.915 53.7315 170.703 53.8693 170.439 53.983C170.175 54.0966 169.852 54.1534 169.472 54.1534ZM169.625 53.25C170.023 53.25 170.358 53.1719 170.631 53.0156C170.906 52.8594 171.114 52.6577 171.253 52.4105C171.395 52.1634 171.466 51.9034 171.466 51.6307V50.7102C171.423 50.7614 171.33 50.8082 171.185 50.8509C171.043 50.8906 170.878 50.9261 170.69 50.9574C170.506 50.9858 170.325 51.0114 170.149 51.0341C169.976 51.054 169.835 51.071 169.727 51.0852C169.466 51.1193 169.222 51.1747 168.994 51.2514C168.77 51.3253 168.588 51.4375 168.449 51.5881C168.313 51.7358 168.244 51.9375 168.244 52.1932C168.244 52.5426 168.374 52.8068 168.632 52.9858C168.893 53.1619 169.224 53.25 169.625 53.25ZM174.307 54V47.4545H175.279V48.4432H175.347C175.466 48.1193 175.682 47.8565 175.995 47.6548C176.307 47.4531 176.659 47.3523 177.051 47.3523C177.125 47.3523 177.218 47.3537 177.328 47.3565C177.439 47.3594 177.523 47.3636 177.58 47.3693V48.392C177.546 48.3835 177.468 48.3707 177.346 48.3537C177.226 48.3338 177.1 48.3239 176.966 48.3239C176.648 48.3239 176.364 48.3906 176.114 48.5241C175.867 48.6548 175.671 48.8366 175.526 49.0696C175.384 49.2997 175.313 49.5625 175.313 49.858V54H174.307ZM179.71 51.6136L179.692 50.3693H179.897L182.761 47.4545H184.005L180.954 50.5398H180.869L179.71 51.6136ZM178.772 54V45.2727H179.778V54H178.772ZM182.931 54L180.374 50.7614L181.09 50.0625L184.21 54H182.931Z" fill="#4B4A47"/>
<path d="M231.333 50C231.333 42.268 237.602 36 245.333 36H321C328.732 36 335 42.268 335 50V50C335 57.732 328.732 64 321 64H245.333C237.602 64 231.333 57.732 231.333 50V50Z" fill="#EF7D4F"/>
<path d="M263.997 47.4545C263.945 47.0227 263.738 46.6875 263.374 46.4489C263.011 46.2102 262.565 46.0909 262.036 46.0909C261.65 46.0909 261.312 46.1534 261.022 46.2784C260.735 46.4034 260.511 46.5753 260.349 46.794C260.19 47.0128 260.11 47.2614 260.11 47.5398C260.11 47.7727 260.166 47.973 260.276 48.1406C260.39 48.3054 260.535 48.4432 260.711 48.554C260.887 48.6619 261.072 48.7514 261.265 48.8224C261.458 48.8906 261.636 48.946 261.798 48.9886L262.684 49.2273C262.911 49.2869 263.164 49.3693 263.443 49.4744C263.724 49.5795 263.992 49.723 264.248 49.9048C264.506 50.0838 264.72 50.3139 264.887 50.5952C265.055 50.8764 265.139 51.2216 265.139 51.6307C265.139 52.1023 265.015 52.5284 264.768 52.9091C264.524 53.2898 264.166 53.5923 263.694 53.8168C263.225 54.0412 262.656 54.1534 261.985 54.1534C261.36 54.1534 260.819 54.0526 260.362 53.8509C259.907 53.6491 259.549 53.3679 259.288 53.0071C259.029 52.6463 258.883 52.2273 258.849 51.75H259.94C259.968 52.0795 260.079 52.3523 260.272 52.5682C260.468 52.7812 260.715 52.9403 261.014 53.0455C261.315 53.1477 261.639 53.1989 261.985 53.1989C262.389 53.1989 262.751 53.1335 263.072 53.0028C263.393 52.8693 263.647 52.6847 263.835 52.4489C264.022 52.2102 264.116 51.9318 264.116 51.6136C264.116 51.3239 264.035 51.0881 263.873 50.9062C263.711 50.7244 263.498 50.5767 263.234 50.4631C262.97 50.3494 262.684 50.25 262.377 50.1648L261.303 49.858C260.622 49.6619 260.082 49.3821 259.684 49.0185C259.286 48.6548 259.087 48.179 259.087 47.5909C259.087 47.1023 259.22 46.6761 259.484 46.3125C259.751 45.946 260.109 45.6619 260.558 45.4602C261.009 45.2557 261.514 45.1534 262.07 45.1534C262.633 45.1534 263.133 45.2543 263.57 45.456C264.008 45.6548 264.354 45.9276 264.61 46.2741C264.869 46.6207 265.005 47.0142 265.019 47.4545H263.997ZM267.388 56.4545C267.217 56.4545 267.065 56.4403 266.932 56.4119C266.798 56.3864 266.706 56.3608 266.655 56.3352L266.91 55.4489C267.155 55.5114 267.37 55.5341 267.558 55.517C267.745 55.5 267.912 55.4162 268.057 55.2656C268.204 55.1179 268.339 54.8778 268.461 54.5455L268.649 54.0341L266.228 47.4545H267.319L269.126 52.6705H269.194L271.001 47.4545H272.092L269.314 54.9545C269.189 55.2926 269.034 55.5724 268.849 55.794C268.665 56.0185 268.45 56.1847 268.206 56.2926C267.964 56.4006 267.691 56.4545 267.388 56.4545ZM278.056 48.9205L277.152 49.1761C277.096 49.0256 277.012 48.8793 276.901 48.7372C276.793 48.5923 276.645 48.473 276.458 48.3793C276.27 48.2855 276.03 48.2386 275.738 48.2386C275.337 48.2386 275.003 48.331 274.736 48.5156C274.472 48.6974 274.34 48.929 274.34 49.2102C274.34 49.4602 274.431 49.6577 274.613 49.8026C274.794 49.9474 275.079 50.0682 275.465 50.1648L276.437 50.4034C277.022 50.5455 277.458 50.7628 277.745 51.0554C278.032 51.3452 278.175 51.7187 278.175 52.1761C278.175 52.5511 278.067 52.8864 277.851 53.1818C277.638 53.4773 277.34 53.7102 276.956 53.8807C276.573 54.0511 276.127 54.1364 275.618 54.1364C274.951 54.1364 274.398 53.9915 273.961 53.7017C273.523 53.4119 273.246 52.9886 273.13 52.4318L274.084 52.1932C274.175 52.5455 274.347 52.8097 274.6 52.9858C274.856 53.1619 275.189 53.25 275.601 53.25C276.07 53.25 276.442 53.1506 276.718 52.9517C276.996 52.75 277.135 52.5085 277.135 52.2273C277.135 52 277.056 51.8097 276.897 51.6562C276.738 51.5 276.493 51.3835 276.164 51.3068L275.073 51.0511C274.473 50.9091 274.033 50.6889 273.752 50.3906C273.473 50.0895 273.334 49.7131 273.334 49.2614C273.334 48.892 273.438 48.5653 273.645 48.2812C273.856 47.9972 274.141 47.7741 274.502 47.6122C274.866 47.4503 275.277 47.3693 275.738 47.3693C276.385 47.3693 276.894 47.5114 277.263 47.7955C277.635 48.0795 277.9 48.4545 278.056 48.9205ZM282.536 47.4545V48.3068H279.144V47.4545H282.536ZM280.132 45.8864H281.138V52.125C281.138 52.4091 281.179 52.6222 281.261 52.7642C281.347 52.9034 281.455 52.9972 281.585 53.0455C281.719 53.0909 281.859 53.1136 282.007 53.1136C282.118 53.1136 282.209 53.108 282.28 53.0966C282.351 53.0824 282.408 53.071 282.45 53.0625L282.655 53.9659C282.587 53.9915 282.492 54.017 282.369 54.0426C282.247 54.071 282.092 54.0852 281.905 54.0852C281.621 54.0852 281.342 54.0241 281.07 53.902C280.8 53.7798 280.575 53.5938 280.396 53.3438C280.22 53.0938 280.132 52.7784 280.132 52.3977V45.8864ZM286.722 54.1364C286.092 54.1364 285.548 53.9972 285.09 53.7188C284.636 53.4375 284.285 53.0455 284.038 52.5426C283.793 52.0369 283.671 51.4489 283.671 50.7784C283.671 50.108 283.793 49.517 284.038 49.0057C284.285 48.4915 284.629 48.0909 285.069 47.804C285.512 47.5142 286.029 47.3693 286.62 47.3693C286.961 47.3693 287.298 47.4261 287.63 47.5398C287.962 47.6534 288.265 47.8381 288.538 48.0938C288.81 48.3466 289.028 48.6818 289.19 49.0994C289.352 49.517 289.433 50.0312 289.433 50.642V51.0682H284.387V50.1989H288.41C288.41 49.8295 288.336 49.5 288.188 49.2102C288.043 48.9205 287.836 48.6918 287.566 48.5241C287.299 48.3565 286.984 48.2727 286.62 48.2727C286.22 48.2727 285.873 48.3722 285.58 48.571C285.291 48.767 285.068 49.0227 284.911 49.3381C284.755 49.6534 284.677 49.9915 284.677 50.3523V50.9318C284.677 51.4261 284.762 51.8452 284.933 52.1889C285.106 52.5298 285.346 52.7898 285.653 52.9688C285.96 53.1449 286.316 53.233 286.722 53.233C286.987 53.233 287.225 53.196 287.438 53.1222C287.654 53.0455 287.84 52.9318 287.997 52.7812C288.153 52.6278 288.274 52.4375 288.359 52.2102L289.33 52.483C289.228 52.8125 289.056 53.1023 288.815 53.3523C288.573 53.5994 288.275 53.7926 287.92 53.9318C287.565 54.0682 287.166 54.1364 286.722 54.1364ZM286.143 46.5682L284.813 44.5909H285.989L287.029 46.5682H286.143ZM290.962 54V47.4545H291.934V48.4773H292.019C292.156 48.1278 292.376 47.8565 292.68 47.6634C292.984 47.4673 293.349 47.3693 293.775 47.3693C294.207 47.3693 294.566 47.4673 294.853 47.6634C295.143 47.8565 295.369 48.1278 295.531 48.4773H295.599C295.766 48.1392 296.018 47.8707 296.353 47.6719C296.688 47.4702 297.09 47.3693 297.559 47.3693C298.144 47.3693 298.623 47.5526 298.995 47.919C299.367 48.2827 299.553 48.8494 299.553 49.6193V54H298.548V49.6193C298.548 49.1364 298.416 48.7912 298.151 48.5838C297.887 48.3764 297.576 48.2727 297.218 48.2727C296.758 48.2727 296.401 48.4119 296.149 48.6903C295.896 48.9659 295.769 49.3153 295.769 49.7386V54H294.747V49.517C294.747 49.1449 294.626 48.8452 294.384 48.6179C294.143 48.3878 293.832 48.2727 293.451 48.2727C293.19 48.2727 292.945 48.3423 292.718 48.4815C292.494 48.6207 292.312 48.8139 292.173 49.0611C292.036 49.3054 291.968 49.5881 291.968 49.9091V54H290.962ZM304.136 54.1364C303.506 54.1364 302.962 53.9972 302.504 53.7188C302.05 53.4375 301.699 53.0455 301.452 52.5426C301.207 52.0369 301.085 51.4489 301.085 50.7784C301.085 50.108 301.207 49.517 301.452 49.0057C301.699 48.4915 302.043 48.0909 302.483 47.804C302.926 47.5142 303.443 47.3693 304.034 47.3693C304.375 47.3693 304.712 47.4261 305.044 47.5398C305.377 47.6534 305.679 47.8381 305.952 48.0938C306.225 48.3466 306.442 48.6818 306.604 49.0994C306.766 49.517 306.847 50.0312 306.847 50.642V51.0682H301.801V50.1989H305.824C305.824 49.8295 305.75 49.5 305.602 49.2102C305.457 48.9205 305.25 48.6918 304.98 48.5241C304.713 48.3565 304.398 48.2727 304.034 48.2727C303.634 48.2727 303.287 48.3722 302.994 48.571C302.705 48.767 302.482 49.0227 302.325 49.3381C302.169 49.6534 302.091 49.9915 302.091 50.3523V50.9318C302.091 51.4261 302.176 51.8452 302.347 52.1889C302.52 52.5298 302.76 52.7898 303.067 52.9688C303.374 53.1449 303.73 53.233 304.136 53.233C304.401 53.233 304.639 53.196 304.852 53.1222C305.068 53.0455 305.254 52.9318 305.411 52.7812C305.567 52.6278 305.688 52.4375 305.773 52.2102L306.744 52.483C306.642 52.8125 306.47 53.1023 306.229 53.3523C305.987 53.5994 305.689 53.7926 305.334 53.9318C304.979 54.0682 304.58 54.1364 304.136 54.1364Z" fill="#212121"/>
</svg>
